<svg xmlns="http://www.w3.org/2000/svg" xmlns:xlink="http://www.w3.org/1999/xlink" width="26" height="26" viewBox="0 0 26 26">
    <defs>
        <path id="a" d="M136 1.433v23.128c0 .795-.644 1.433-1.433 1.433h-6.628V15.931h3.378l.504-3.923h-3.888V9.5c0-1.137.313-1.909 1.944-1.909h2.078V4.08c-.36-.047-1.59-.157-3.03-.157-2.994 0-5.049 1.828-5.049 5.189v2.896h-3.389v3.923h3.39V26h-12.444c-.789 0-1.433-.644-1.433-1.433V1.433c0-.789.644-1.433 1.433-1.433h23.128c.795 0 1.439.644 1.439 1.433z"/>
    </defs>
    <use fill="#9B9B9B" fill-rule="nonzero" transform="translate(-110)" xlink:href="#a"/>
</svg>
