<svg xmlns="http://www.w3.org/2000/svg" width="84" height="44" viewBox="0 0 84 44">
    <path fill="#FEFEFE" fill-rule="evenodd" d="M38.58 21.264a95.08 95.08 0 0 0-10.923 2.969L40.63 0l12.295 22.615c-2.113.377-4.285.836-6.46 1.375.381-.216.717-.401.966-.532l.424-.225-.33-3.568-.766.118c-1.404.225-2.81.458-4.23.713l-1.824-3.472-2.123 4.24zm-5.535 7.528l.914 1.703-2.252 4.496h-9.809l2.882-5.383a94.878 94.878 0 0 1 11.467-3.684l-.27.54c-1.005.74-1.91 1.444-2.505 1.957l-.427.37zM64.17 22.16l-.13 2.68c-9.63.068-21.794 3.127-28.817 6.484l-1.271-2.369c1.35-1.164 4.538-3.492 6.716-4.83-6.693 1.504-14.058 3.483-23.058 7.854l-1.168-2.385c12.24-5.849 21.388-7.666 30.431-9.11l.221 2.34c-1.006.523-3.696 2.123-5.518 3.253 7.032-2.172 15.798-3.867 22.594-3.917zm-17.64 5.96a85.71 85.71 0 0 1 8.426-1.768l4.698 8.639h-9.515l-3.608-6.87zm14.736 6.857a.847.847 0 0 1-.867-.856c0-.489.376-.86.867-.86.497 0 .872.371.872.86 0 .484-.375.856-.872.856zm.195-.785l.197.376h-.188l-.184-.358h-.188v.358h-.16v-.934h.418c.17 0 .31.09.31.283 0 .148-.081.238-.205.275zm-.111-.402h-.252v.265h.252c.086 0 .154-.04.154-.134 0-.088-.068-.13-.154-.13zm-.084-.391a.714.714 0 0 0-.728.722.71.71 0 0 0 .728.717.71.71 0 0 0 .732-.717.713.713 0 0 0-.732-.722zm-59.55 6.677h.48l1.666 3.842h-.616l-.391-.95H1l-.385.95H0l1.716-3.842zm.946 2.436l-.726-1.764h-.01l-.737 1.764H2.66zm6.342-1.606c-.11-.141-.25-.25-.418-.325a1.255 1.255 0 0 0-.523-.115 1.37 1.37 0 0 0-1.053.456 1.515 1.515 0 0 0-.294.497c-.07.19-.105.393-.105.61 0 .203.033.394.1.575.065.181.16.34.285.478.125.137.277.246.457.326.18.079.382.119.61.119.224 0 .42-.045.589-.136.168-.09.311-.217.429-.38l.445.331a1.537 1.537 0 0 1-.445.393 1.893 1.893 0 0 1-1.028.28c-.309 0-.587-.058-.834-.174a1.981 1.981 0 0 1-1.031-1.093 1.98 1.98 0 0 1-.138-.719c0-.296.05-.57.148-.822.1-.251.238-.468.416-.65.178-.184.391-.326.64-.427a2.175 2.175 0 0 1 1.582-.005c.247.097.45.247.607.45l-.44.331zm3.085-.83H14.6v.488h-1.985v1.145h1.848v.489h-1.848v1.231H14.7v.489h-2.612v-3.842zm11.45.83c-.11-.141-.25-.25-.418-.325a1.257 1.257 0 0 0-.523-.115 1.372 1.372 0 0 0-1.053.456 1.529 1.529 0 0 0-.294.497c-.07.19-.104.393-.104.61 0 .203.033.394.099.575.066.181.16.34.286.478.124.137.276.246.456.326.18.079.383.119.61.119.224 0 .42-.045.59-.136.168-.09.31-.217.428-.38l.446.331a1.7 1.7 0 0 1-.155.171c-.073.074-.17.149-.291.223-.12.074-.266.14-.437.195-.171.056-.368.084-.592.084-.307 0-.585-.058-.833-.174a1.983 1.983 0 0 1-1.031-1.093 1.98 1.98 0 0 1-.137-.719c0-.296.05-.57.148-.822.1-.251.238-.468.416-.65.177-.184.39-.326.64-.427a2.175 2.175 0 0 1 1.581-.005c.248.097.45.247.608.45l-.44.331zm4.306-.83h.479l1.666 3.842h-.616l-.39-.95H27.13l-.386.95h-.615l1.715-3.842zm.946 2.436l-.726-1.764h-.01l-.738 1.764h1.474zm3.745.602a.867.867 0 0 0 .366.313c.149.067.301.1.46.1a.931.931 0 0 0 .52-.163.683.683 0 0 0 .184-.2.528.528 0 0 0 .07-.277c0-.149-.047-.262-.142-.34a1.246 1.246 0 0 0-.355-.195 6.986 6.986 0 0 0-.462-.152 1.889 1.889 0 0 1-.462-.203 1.122 1.122 0 0 1-.355-.35c-.095-.147-.143-.345-.143-.595a.99.99 0 0 1 .075-.358.993.993 0 0 1 .234-.347c.106-.105.242-.193.41-.263.166-.07.367-.106.602-.106.212 0 .415.029.61.087.194.058.365.175.511.352l-.429.386a.708.708 0 0 0-.28-.244.902.902 0 0 0-.412-.093c-.147 0-.27.02-.366.057a.66.66 0 0 0-.234.147.57.57 0 0 0-.16.383c0 .162.048.287.143.374.096.087.214.157.355.211.141.055.295.104.462.147.167.043.321.104.462.182.141.078.26.182.355.314.095.132.143.315.143.546a1.128 1.128 0 0 1-.396.874c-.121.1-.264.179-.43.233a1.682 1.682 0 0 1-.527.081c-.25 0-.486-.043-.71-.13a1.166 1.166 0 0 1-.533-.401l.434-.37zm4.867-3.038h.529v1.595h2.018v-1.595h.528v3.842h-.528v-1.759H37.93v1.759h-.529v-3.842zm9.455 0h2.513v.488h-1.985v1.145h1.848v.489h-1.848v1.231h2.084v.489h-2.612v-3.842zm6.187 1.823l-1.31-1.823h.677l1.012 1.476 1.001-1.476h.66l-1.298 1.817 1.43 2.024h-.693l-1.117-1.666-1.121 1.666h-.655l1.414-2.018zm4.586-1.823H59c.249 0 .454.033.616.1.16.067.288.152.382.255a.873.873 0 0 1 .195.348c.036.128.055.252.055.371 0 .12-.019.243-.055.372a.873.873 0 0 1-.195.347 1.052 1.052 0 0 1-.382.255 1.62 1.62 0 0 1-.616.1h-.842v1.693h-.528v-3.841zm.528 1.693h.693c.103 0 .204-.008.305-.025.101-.016.19-.046.27-.09a.497.497 0 0 0 .19-.186.627.627 0 0 0 .071-.318.627.627 0 0 0-.071-.318.495.495 0 0 0-.19-.186.824.824 0 0 0-.27-.09 1.914 1.914 0 0 0-.305-.025h-.693v1.238zm4.658-1.693h1.37c.249 0 .454.033.616.1.161.067.288.152.382.255a.863.863 0 0 1 .195.348c.037.128.055.252.055.371a.977.977 0 0 1-.255.665 1.077 1.077 0 0 1-.702.35l1.106 1.752h-.66l-.99-1.693h-.589v1.693h-.528v-3.841zm.528 1.693h.693c.103 0 .205-.008.306-.025.1-.016.19-.046.27-.09a.493.493 0 0 0 .189-.186.623.623 0 0 0 .071-.318.623.623 0 0 0-.071-.318.492.492 0 0 0-.19-.186.824.824 0 0 0-.27-.09 1.918 1.918 0 0 0-.305-.025h-.693v1.238zm4.758-1.693h2.513v.488H68.63v1.145h1.848v.489H68.63v1.231h2.084v.489h-2.612v-3.842zm5.4 3.038a.864.864 0 0 0 .366.313c.149.067.301.1.46.1a.934.934 0 0 0 .519-.163.683.683 0 0 0 .184-.2.528.528 0 0 0 .071-.277c0-.149-.047-.262-.143-.34a1.24 1.24 0 0 0-.354-.195 6.972 6.972 0 0 0-.462-.152 1.882 1.882 0 0 1-.462-.203 1.118 1.118 0 0 1-.355-.35c-.095-.147-.143-.345-.143-.595a1.004 1.004 0 0 1 .308-.705c.106-.105.243-.193.41-.263.166-.07.367-.106.602-.106.212 0 .416.029.61.087.195.058.365.175.512.352l-.43.386a.707.707 0 0 0-.28-.244.903.903 0 0 0-.412-.093c-.147 0-.269.02-.366.057a.658.658 0 0 0-.234.147.522.522 0 0 0-.123.193.58.58 0 0 0-.036.19c0 .162.048.287.143.374.095.087.213.157.355.211.14.055.295.104.462.147.166.043.32.104.461.182.142.078.26.182.355.314.096.132.143.315.143.546a1.112 1.112 0 0 1-.396.874 1.294 1.294 0 0 1-.429.233c-.165.054-.34.081-.527.081-.25 0-.486-.043-.71-.13a1.163 1.163 0 0 1-.533-.401l.434-.37zm4.983 0a.863.863 0 0 0 .366.313c.148.067.3.1.459.1a.932.932 0 0 0 .52-.163.682.682 0 0 0 .184-.2.528.528 0 0 0 .07-.277c0-.149-.047-.262-.142-.34a1.248 1.248 0 0 0-.355-.195 6.972 6.972 0 0 0-.461-.152 1.889 1.889 0 0 1-.463-.203 1.118 1.118 0 0 1-.354-.35c-.096-.147-.143-.345-.143-.595a.99.99 0 0 1 .074-.358.997.997 0 0 1 .234-.347c.106-.105.242-.193.41-.263a1.54 1.54 0 0 1 .602-.106c.212 0 .416.029.61.087.195.058.365.175.512.352l-.43.386a.707.707 0 0 0-.28-.244.903.903 0 0 0-.412-.093c-.147 0-.269.02-.366.057a.662.662 0 0 0-.234.147.522.522 0 0 0-.124.193.58.58 0 0 0-.035.19c0 .162.047.287.143.374.095.087.213.157.355.211.14.055.294.104.462.147.166.043.32.104.461.182.141.078.26.182.355.314.095.132.143.315.143.546a1.112 1.112 0 0 1-.396.874 1.294 1.294 0 0 1-.429.233c-.165.054-.34.081-.528.081-.25 0-.486-.043-.71-.13a1.165 1.165 0 0 1-.532-.401l.434-.37zm3.716-2.177a.85.85 0 0 1-.873-.862.85.85 0 0 1 .873-.86.85.85 0 0 1 .874.86.85.85 0 0 1-.874.862zm.197-.787l.195.379h-.19l-.187-.363h-.184v.363h-.163v-.94h.42c.169 0 .312.088.312.284 0 .148-.08.24-.203.277zm-.114-.406h-.252v.267h.252c.087 0 .152-.04.152-.133 0-.089-.065-.134-.152-.134zm-.083-.392a.714.714 0 0 0-.732.723c0 .411.316.724.732.724a.714.714 0 0 0 .733-.724.714.714 0 0 0-.733-.723z"/>
</svg>
