<svg xmlns="http://www.w3.org/2000/svg" xmlns:xlink="http://www.w3.org/1999/xlink" width="306" height="308" viewBox="0 0 306 308">
    <defs>
        <path id="a" d="M.08.162h23.214V14.94H.081z"/>
        <path id="c" d="M0 .276h75.865v18.573H0z"/>
    </defs>
    <g fill="none" fill-rule="evenodd">
        <path fill="#3C3C3C" d="M83.644 125.154c.035-.182.01-.772.257-1.113.222-.306.785-.263 1.117-.512.478-.36.89-.836 1.316-1.28.248-.26.432-.62.712-.81.15-.102.5-.026.65.117.145.14.164.464.204.714.014.087-.073.2-.124.292-.749 1.355-1.462 2.737-2.273 4.043-.212.342-.717.606-1.097.622-.504.022-.758-.686-.762-2.073M51.039 143.41l2.369-2.285 1.907 1.215c-.25.34-.64.71-.27 1.33.08.135-.197.739-.426.873-.42.246-.931.42-1.398.403-.4-.015-.815-.294-1.178-.54-.31-.21-.554-.54-1.004-.996M216.987 135.079c-.109-.594-.096-1.198.511-1.525.61-.328 1.017.174 1.428.541.578.514 1.133 1.063 1.693 1.603.509.493.685 1.333.318 1.75-.467.529-1.037.369-1.477-.008-.814-.696-1.565-1.484-2.473-2.361M110.866 273.858c.955-.047 1.674-.323 2.147-.053.804.46 1.492 1.218 2.153 1.938.38.414.43 1.022-.018 1.478-.443.45-.855.316-1.296-.126-.658-.66-1.403-1.21-2.069-1.862-.295-.29-.485-.714-.917-1.375M251.827 145.627c-.679-1.162-.583-1.675.436-1.918.915-.219 1.768-.49 2.503-1.188.338-.32.79-.479 1.174.003.41.515.152.99-.195 1.29-.57.49-1.184.958-1.841 1.266-.618.288-1.316.357-2.077.547M59.272 100.2c-.591.063-1.193.308-1.676.135-.75-.27-1.412-.279-2.142-.001-.3.113-.696.082-1-.04-.389-.156-.468-.556-.189-.935.997-1.354 3.927-1.271 4.877.138.077.115.062.31.13.704M3.56 162.237c-.893 1.167-1.863.082-2.74.289-.578-.885-.126-1.679.044-2.437.061-.269.576-.662.76-.591.479.183 1.003.497 1.296.937.334.502.438 1.2.64 1.802M207.934 49.604l-2.195-1.028c.572-.383.872-.956.86-1.835-.003-.384.556-.775.86-1.163.277.346.667.642.81 1.047.378 1.077.298 2.14-.335 2.98M240.432 13.354c.742-.024 1.22.361 1.268 1.027.06.82-.917 1.84-1.76 1.836-.465-.001-1.08-.612-1.127-1.117-.075-.812.766-1.718 1.619-1.746M131.548 176.744c.082-1.052 1.18-2.614 1.971-2.704.25-.028.622.121.755.335.135.216.128.649.035.923-.4 1.187-1.427 1.7-2.76 1.446M48.772 215.71c.703-.626 1.302-1.222 1.96-1.718.287-.215.793-.429 1.028-.286.484.296.244.838.051 1.302-.37.897-1.236 1.563-2.063 1.515-.511-.03-.951-.204-.976-.814M134.626 81.353c1.304 1.03 1.491 2.66.52 3.415-.45.35-.966.265-1.11-.23-.186-.638-.195-1.392-.101-2.065.056-.406.452-.752.691-1.12M53.114 257.729c-.335-.416-.765-.805-1.014-1.31-.155-.312-.155-.86-.017-1.193.274-.659.88-.596 1.42-.523.5.069.568.495.595.973.062 1.085-.05 1.364-.984 2.053M134.977 278.882c-.148.66-.21 1.097-.346 1.501-.186.551-.467 1-1.105.788-.62-.207-1.08-.832-.947-1.484.063-.307.369-.584.617-.794.135-.114.382-.08.577-.079.338.005.675.037 1.204.068M150.439 72.565c-.252.729-.342 1.316-.635 1.712-.18.247-.696.326-1.01.24-.168-.044-.322-.606-.308-.924.017-.425.203-.84.32-1.258.151-.546.503-.92.97-.69.31.152.482.653.663.92M271.604 49.423c.323-1.188-.217-1.762-1.06-2.264l1.307-1.371c.762.715.827 1.725.994 2.597.098.513-.363.972-1.241 1.038M115.308 101.008l-.478 1.392c-.706-.447-1.38-.837-2.014-1.298-.156-.113-.288-.497-.235-.686.059-.203.387-.49.53-.447.722.213 1.607 0 2.197 1.039M60.533 35.412c-.785-.055-1.35-.689-1.32-1.302.03-.639.531-1.131 1.1-1.08.559.05.976.593.929 1.266-.044.6-.262 1.066-.709 1.116M87.62 98.022c.166-1.787 1.137-2.653 2.19-2.278.195.07.437.342.462.55.024.203-.154.557-.326.65-.692.37-1.416.665-2.326 1.078M105.885 6.874l-1.442.168-.246 1.287c-.338-.314-.544-.635-.802-.704-.211-.057-.485.188-.92.384.375-1.539 1.476-1.786 2.319-2.252.327-.18.95.181 1.09 1.117M237.587 169.503c-.93.192-1.26-.577-1.828-1.11.353-.516.67-.983.979-1.436 1.07.662 1.076.676.849 2.546M256.42 281.207c-.589.026-1.293.36-1.548-.45-.122-.387.121-1.06.393-1.415.161-.21.786-.217 1.05-.034.742.513.31 1.215.106 1.899M95.199 273.891c.88 1.175 1.011 1.743.53 2.133-.48.389-1.282.24-1.544-.285-.343-.687-.085-1.185 1.014-1.848M119.613 27.892c-.244-.85-.178-1.528.48-1.629.364-.055.86.373 1.171.723.243.274.294.765.56 1.539l-2.21-.633M134.788 264.387c-.867-.003-1.634-.676-1.624-1.242.01-.58.324-.907.824-.954.466-.044 1.288.829 1.225 1.384-.037.333-.324.63-.425.812M211.702 185.063c1.492-.081 1.734.197 1.564 1.858l-1.334.267c-.599-.715-.634-1.397-.23-2.125M148.307 291.33c.07-.301.083-.4.095-.4.785.014 1.573.016 2.356.081.105.009.305.394.261.507-.148.383-.321.842-.61 1.036-.203.137-.647-.033-.912-.206-.221-.144-.306-.536-.513-.735-.164-.155-.422-.184-.677-.283M32.596 160.027c-.614.182-.992.397-1.357.371-.338-.023-.94-.307-.939-.47.004-.442.175-1.006.461-1.278.198-.186.767-.09 1.045.106.295.208.442.683.79 1.271M170.237 30.652c.014-.92.481-1.334 1.138-1.318.526.013 1.125.604.915.994-.247.458-.718.924-1.16 1.03-.277.067-.677-.522-.893-.706M226.043 217.133c-.112-.218-.411-.545-.427-.888-.035-.786.53-1.59.953-1.406.345.151.705.58.829.976.149.479-.643 1.314-1.355 1.318M169.422 124.687c-.445-.738-.855-1.34-1.186-1.994-.227-.446.102-.95.564-.815.385.113.84.393 1.038.757.34.627.42 1.36-.416 2.052M297.665 158.695c.778-.73 1.56-.542 2.402-.295.103.81-.236 1.218-.829 1.337-.672.134-1.279-.005-1.573-1.042M109.21 110.784c.764-1.764 1.636-2.54 2.638-2.416-.317 1.054-1.065 1.691-1.711 2.394-.142.153-.527.022-.928.022M304.971 38.012c-.646-.004-1.434-1.134-1.32-1.696.012-.053.036-.131.07-.144.254-.095.54-.302.763-.24.63.178 1.118.946.956 1.477-.081.267-.353.461-.469.603M59.336 141.03l-1.77.896c.16.229-.55-.041-.207-.837.167-.385.621-.853.94-.848.352.006.697.51 1.037.789M207.602 93.272c-1.11-.102-1.48-.463-1.368-1.341.079-.623.435-.861.942-.741.62.147.745.822.426 2.082M221.855 176.524c-.643-.043-1.031-.539-.933-1.13.089-.535.321-.934.897-.849.462.068.93.144.819.87-.087.558-.22 1.112-.783 1.11M34.701 257.814c.958.09 1.859 1.044 2.153 2.23-.923-.497-2.184-.407-2.153-2.23M69.409 92.594l-2.557-.45c.162-.87.443-1.196 1.043-1.132.676.072 1.175.368 1.514 1.582M226.038 27.338c.124-.122.301-.44.53-.495.421-.101 1.2.928 1.108 1.524-.042.27-.383.614-.638.68-.46.12-1.047-.844-1-1.709M125.49 246.051c-.252-.374-.593-.713-.724-1.135-.089-.286.056-.732.216-1.02.082-.149.51-.232.637-.126.194.165.348.51.366.793.03.457-.063.925-.105 1.389l-.39.1zM232.627 216.354c.433-.86.598-1.752 1.472-2.095.808.516.253 1.125.075 1.674-.25.775-.782.68-1.547.421M46.038 161.163c-.396-.645-.718-.979-.819-1.383-.13-.516.386-1.142.74-.936.335.194.661.646.75 1.051.057.26-.321.643-.67 1.268M240.074 93.002c.184-.211.439-.758.735-.788.573-.058.622.574.61 1.082-.013.482.031 1.104-.576 1.14-.71.04-.658-.646-.769-1.434M293.832 154.764c.255 1.217.294 2.312-.718 3.501.413-1.313-.793-2.648.718-3.5M133.261 59.869c-.719-.53-1.009-1.053-.452-1.71.38-.448.89-.3 1.15.142.498.848-.203 1.122-.698 1.568M200.765 92.39c-.335-.703-.619-1.118-.71-1.581-.037-.177.375-.67.57-.662.556.022.857.52.816 1.114-.02.29-.32.557-.676 1.129M284.771 43.451l-.65 1.757c-.85-.296-.914-.865-.667-1.384.163-.344.587-.53.895-.787l.422.414M191.576 226.863l-.325 1.671c-.694-.074-1.433.03-1.33-.95.098-.92.826-.656 1.655-.72M142.03 150.508c.311-1.184.823-1.69 1.317-1.388.267.164.59.79.502 1.014-.397 1.004-1.082.132-1.819.374M245.917 85.905c.36-.62.882-.825 1.217-.298.225.352.076 1.03.029 1.555-.005.051-.621.17-.698.05-.25-.39-.38-.876-.548-1.307M57.66 273.427c-.469 1.228-1.294.557-1.96.778.345-1.613.418-1.641 1.96-.778M211.42 287.48c-.267.28-.497.647-.811.81-.23.118-.569-.036-.859-.068.102-.382.106-.95.33-1.098.307-.204.78-.089 1.18-.11l.16.466M16.865 118.497c.125-.646.14-1.173.347-1.571.083-.16.626-.138.9-.021.521.223.538.747.081 1.106a1.4 1.4 0 0 1-.392.203c-.226.081-.458.14-.936.283M295.857 107.455c-.433.44-.651.85-.885.86-.482.024-1.003-.21-1.016-.87-.005-.245.396-.735.548-.704.4.079.766.383 1.353.714M302.731 142.923c-.59-.7-.716-1.239-.3-1.685.427-.46.883-.262 1.362.408l-1.062 1.277M149.48 61.323l.133 1.348c-.295.063-.598.234-.719.132-.276-.235-.678-.637-.644-.91.084-.683.601-.767 1.23-.57M104.53 83.749c.482-1.056 1.014-1.35 1.892-.89-.309 1.155-.928 1.211-1.892.89M238.162 40.032c.382.441 1.012.713.526 1.445-.297.448-.683.313-.98-.076-.562-.739-.059-1.015.454-1.37M55.606 188.733c.44-.36.658-.646.926-.733.398-.13.883-.002.853.545-.016.284-.448.665-.752.758-.215.065-.528-.276-1.027-.57M182.932 156.712c-.305-.424-.647-.706-.701-1.046-.034-.214.36-.516.563-.778.276.337.579.653.796 1.031.034.058-.331.407-.658.793M41.958 209.912c-.45-.28-.735-.368-.742-.478-.04-.709-.02-1.422-.02-2.397 1.232.818.646 1.757.762 2.875M27.468 52.803c-1.539-.027-1.619-.176-.943-1.341l.943 1.341M201.07 149.135l-1.137-1.56c.702-.053 1.234-.222 1.314-.075.212.39.232.915.329 1.387l-.507.248M297.304 68.21c-.534-.316-.981-.677-.533-1.393.11-.177.653-.266.774-.134.51.551.301 1.067-.241 1.527M199.985 52.916c.752.237 1.034.692.814 1.37-.048.15-.554.285-.723.177-.602-.384-.494-.922-.091-1.547M290.83 96.041c-.38-.492-.665-.806-.864-1.177-.028-.054.429-.596.525-.55.312.149.617.424.802.742.065.113-.22.487-.463.985M202.726 275.36c-.096.966-.542 1.178-1.121.995-.169-.054-.404-.601-.337-.714.343-.573.852-.516 1.458-.28M202.77 208.657c-.314-.455-.643-.863-.614-.898a4.64 4.64 0 0 1 .94-.867c.04-.028.455.419.421.5-.164.397-.423.743-.746 1.265M50.837 222.84c.38-.266.577-.52.753-.504.431.04.935.17.905.808-.01.215-.455.625-.569.573-.354-.16-.645-.498-1.089-.876M301.76 225.123c.124-.745.222-1.342.867-1.219.184.035.468.61.408.839-.187.707-.689.553-1.275.38M118.12 17.726c-.378.485-.673 1.065-1.218.544-.152-.146-.162-.8-.013-.965.45-.505.863-.25 1.231.421M239.782 22.675c.188.648.292 1.233-.482 1.375-.19.035-.604-.26-.613-.426-.046-.795.425-.982 1.095-.95M185.318 151.279c.521-.263.799-.51 1.07-.5.185.006.36.371.539.577-.212.234-.42.65-.637.656-.245.007-.499-.353-.972-.733M168.14 40.587c.405-.358.623-.703.808-.681.28.032.536.32.802.5-.206.248-.387.646-.627.7-.23.05-.522-.257-.983-.519M286.39 50.247l-1.973 1.213c.597-1.54 1.083-1.834 1.973-1.213M146.55 75.63c-.339.347-.591.729-.69.684-.257-.118-.527-.387-.624-.67-.046-.132.307-.625.461-.615.246.016.478.316.853.601M250.739 211.747c-.266-.402-.568-.67-.53-.845.063-.289.344-.518.533-.772.213.233.574.45.596.704.02.236-.319.512-.6.913M173.448 74.403c.223.424.516.762.453.912-.113.274-.42.546-.68.599-.138.028-.532-.48-.489-.622.09-.299.393-.515.716-.889M140.618 85.308c.217-.089.48-.31.64-.24.315.139.575.44.857.672-.134.196-.305.578-.396.556-.32-.082-.613-.302-.916-.469l-.185-.519M166.626 73.154c.723.424.851.846.436 1.386-.1.13-.4.241-.491.17-.592-.462-.203-.915.055-1.556M263.858 233.083c-.237-.38-.484-.605-.493-.843-.008-.174.338-.544.453-.51.235.07.527.318.588.56.04.158-.286.433-.548.793M265.19 116.9c1.028.166.907.763.576 1.58-.775-.3-.727-.865-.577-1.58M122.127 247.449c.344-.295.651-.665.737-.609.236.155.47.47.521.763.029.158-.378.604-.485.564-.258-.095-.454-.4-.773-.718M211.092 56.41c-.09.685-.282 1.114-.842.952-.13-.038-.293-.486-.239-.67.179-.615.57-.654 1.08-.283M250.964 86.045c.424-.533.79-.834 1.267-.305.096.107.123.469.04.576-.433.567-.836.346-1.307-.271M304.326 48.634c-.35.323-.556.585-.812.704-.078.036-.386-.292-.437-.5-.114-.465.13-.739.543-.688.185.023.353.233.706.484M200.01 148.02l-.99.729-.255-.187c.076-.32.066-.738.246-.936.342-.377.716-.282 1 .394M191.01 224.392c-.306-.998-.101-1.361.422-1.407.161-.014.342.275.514.425l-.936.982M91.938 56.677c-.314-.105-.635-.195-.934-.341-.028-.013.018-.478.13-.559.524-.38.775-.002.982.425l-.178.475M84.253 147.734l-.656.686c-.17-.217-.42-.411-.478-.662-.034-.147.26-.562.366-.545.23.037.433.276.768.52M28.455 129.497c-.254-.399-.461-.666-.585-.976-.022-.054.31-.287.478-.437.187.273.399.53.539.831.03.064-.206.285-.432.582M33.535 172.802c-.345.279-.546.515-.785.59-.082.026-.391-.386-.365-.552.032-.198.295-.449.487-.485.155-.03.353.225.663.447M55.384 154.387c-.227-.423-.503-.721-.452-.897.07-.238.39-.383.603-.569.13.203.383.422.364.604-.027.246-.262.463-.515.862M147.992 206.394l1.238-.355c-.24 1.075-.649 1.057-1.103.91l-.135-.555M141.907 14.328c-.29.238-.48.513-.625.485-.19-.038-.442-.292-.48-.495-.03-.17.212-.403.333-.608l.772.618M272.786 263.964c-.309.594-.706.726-1.175.305-.076-.068-.054-.46.041-.56.448-.48.839-.392 1.134.255M258.435 200.282c-.496.003-.833-.186-.705-.771.034-.157.432-.377.567-.312.518.248.352.674.138 1.083M186.939 223.57l1.177.826c-.936.54-1.005.494-1.177-.826M233.965 97.467c.592-.449.927-.212 1.133.293.043.107-.122.444-.25.498-.572.238-.754-.188-.883-.79M260.746 272.939c.466.193.845.401.647 1.028-.035.112-.366.226-.489.162-.519-.267-.519-.676-.158-1.19M291.326 105.454c-.233-.4-.511-.676-.468-.852.061-.247.36-.42.557-.626.163.229.436.446.456.689.015.195-.276.422-.545.79M267.01 234.365c-.245-.376-.48-.599-.532-.866-.03-.16.227-.39.355-.587.19.21.459.388.542.643.052.155-.182.429-.365.81M122.095 280.713l-.297-1.699c.921.534 1.019 1.032.742 1.64l-.445.06M286.693 108.876c-.185-.292-.448-.547-.406-.672.089-.264.337-.459.52-.682.173.21.507.45.48.624-.036.244-.337.437-.594.73M279.1 160.237c-.202-.393-.398-.636-.432-.907-.014-.11.409-.437.485-.385.203.137.4.406.453.663.027.128-.263.341-.505.63M157.694 212.245c.588.772.575 1.15.124 1.39-.123.066-.333-.076-.503-.122l.38-1.268M229.487 112.296c-.17-.363-.363-.59-.34-.784.021-.182.272-.33.422-.492.137.2.365.39.382.602.014.166-.234.359-.464.674M237.65 13.505l.143 1.316c-.218.008-.53.123-.637.004-.352-.39-.251-.788.494-1.32M302.523 86.54h1.693c-.608.65-.992.959-1.693 0M49.022 35.633l-.644-.543c.165-.227.297-.52.508-.65.09-.057.496.228.492.348-.007.248-.192.489-.356.845M238.471 252.937c-.214-.352-.427-.569-.46-.816-.016-.112.369-.442.493-.397.2.074.401.351.468.591.03.11-.257.332-.5.622M152.876 285.52c-.553-.204-.688-.53-.407-.98.072-.116.402-.193.469-.12.352.39.159.737-.062 1.1M257.57 30.493l1.14-.898c.107.269.23.425.208.546-.135.72-.507.824-1.348.352M260.508 97.568c-.211-.441-.373-.728-.472-1.04-.015-.048.366-.328.386-.305.202.232.393.49.52.778.03.063-.203.273-.434.567M194.346 246.409c-.234-.25-.389-.414-.543-.58.129-.14.28-.414.38-.392.19.042.377.23.502.414.031.045-.179.3-.339.558M152.245 201.917l-.455-.67c.178-.137.381-.412.525-.376.16.04.31.347.368.57.021.084-.23.257-.438.476M175.865 188.184c-.256.22-.421.473-.584.471-.167-.002-.332-.253-.498-.395.172-.203.32-.465.53-.578.078-.041.304.267.552.502M74.792 197.884v1.277c-.181.028-.304.092-.357.049-.565-.474-.464-.849.357-1.326M71.377 67.638c-.219-.265-.454-.447-.429-.538.073-.263.25-.49.387-.73.125.143.355.288.352.427-.005.233-.16.46-.31.84M59.164 195.872c-.257-.346-.442-.55-.56-.795-.022-.048.28-.39.319-.366.214.134.421.316.563.537.04.06-.156.312-.322.624M240.559 104.522c-.254.235-.425.514-.586.506-.146-.007-.405-.34-.389-.5.02-.208.266-.386.415-.577l.56.571M164.601 307.586c-.223-.368-.395-.592-.488-.852-.02-.055.327-.37.356-.345.196.17.385.38.502.622.034.068-.18.29-.37.575M162.764 82.503c.213-.224.347-.463.442-.444.198.039.376.213.562.332-.113.184-.219.507-.343.516-.175.013-.363-.207-.661-.404M264.337 155.02c.31-.207.486-.392.684-.427.087-.015.217.274.328.425-.163.152-.31.367-.496.43-.096.03-.264-.21-.516-.428M286.345 125.787l.827-.514c-.025.789-.025.789-.827.514M228.515 163.27l-.659.455-.243-.536.727-.407c.06.162.117.326.175.489M17.732 190.958l-1.247-.589c.868-.106.868-.106 1.247.589M194.216 87.021c-.293.287-.436.503-.622.572-.078.03-.353-.258-.347-.39.007-.16.196-.38.347-.438.12-.046.301.114.622.256M10.026 161.276c-.184-.296-.308-.495-.433-.693l.515-.38c.111.194.28.376.31.583.015.114-.207.27-.392.49M199.493 135.07c-.158-.29-.354-.53-.315-.599.113-.194.31-.343.5-.448.035-.02.306.304.278.392-.065.206-.246.366-.463.655M50.789 269.024c-.239-.285-.443-.434-.5-.636-.029-.101.262-.45.317-.425.194.085.388.257.496.456.04.074-.155.311-.313.605M120.839 178.638c.266-.171.475-.384.544-.336.173.119.28.355.416.544-.131.114-.296.348-.385.316-.18-.065-.317-.274-.575-.524M80.386 195.819c-.188-.366-.348-.562-.372-.778-.011-.1.242-.333.375-.332.137.001.394.235.382.33-.03.218-.191.413-.385.78M73.016 194.856c-.265-.034-.535-.046-.788-.127-.036-.012.012-.357.021-.549l.838.13c-.024.182-.048.364-.07.546M88.728 232.865c.261-.245.423-.488.509-.458.18.064.327.264.462.434.014.016-.16.311-.23.303-.201-.025-.394-.14-.741-.279M173.38 92.988c.455-.22.665-.395.875-.396.134-.002.4.294.378.387a.858.858 0 0 1-.389.507c-.09.049-.285-.153-.863-.498M25.188 238.92c.231-.227.396-.484.482-.454.18.063.342.259.453.444.026.042-.201.392-.287.38-.19-.028-.364-.195-.648-.37M208.113 121.475c-.266.165-.474.375-.55.325-.17-.11-.3-.336-.386-.547-.018-.044.27-.349.341-.317.187.084.332.286.595.54M205.985 15.742l.777.204c-.047.138-.105.397-.14.393-.246-.027-.486-.108-.73-.172.032-.141.062-.283.093-.425M200.982 140.269c-.26.157-.469.364-.55.313-.162-.101-.254-.345-.375-.53.148-.077.306-.234.441-.211.14.023.26.217.484.428M15.347 195.673c.16-.064.321-.178.477-.167.078.005.227.273.198.359-.055.16-.21.372-.335.383-.168.014-.348-.141-.524-.223l.184-.352M175.735 268.977c-.057-.204-.18-.421-.152-.608.031-.2.207-.372.32-.556.124.14.316.262.35.426.032.144-.114.336-.182.507l-.336.231M147.206 233.388c-.245-.3-.455-.444-.452-.584.002-.152.203-.3.318-.45.097.097.264.182.277.29.02.174-.062.362-.143.744M143.936 243.431l.324 1.176c-.793-.222-.845-.574-.324-1.176M144.087 145.482c-.247.242-.446.502-.492.47-.174-.115-.318-.313-.426-.513-.023-.042.176-.332.234-.317.196.05.375.187.684.36M136.624 162.703c-.146-.307-.336-.558-.29-.637.108-.19.328-.297.503-.437.077.181.226.37.21.54-.015.152-.212.282-.423.534M51.937 272.072l.75.623-.176.333-.836-.48.262-.476zM51.823 277.836c-.132-.268-.308-.467-.276-.603.036-.153.25-.314.405-.344.076-.014.288.282.27.406-.023.166-.211.302-.4.54M117.9 42.907l.762-.862c.131.197.238.284.23.355-.066.558-.267.894-.991.507M117.298 172.144c-.203.19-.334.41-.464.41-.14-.002-.28-.21-.418-.327l.402-.555c.134.13.266.262.48.472M88.247 210.199c.184.204.371.405.54.625.006.01-.232.295-.247.283-.213-.176-.407-.38-.606-.577l.313-.331zM28.716 224.864c-.18-.225-.416-.406-.392-.516.04-.19.22-.39.386-.476.074-.037.382.236.367.298-.057.223-.206.416-.361.694M181.941 226.796l-.595-1.112c.572.12.77.49.595 1.112M189.138 161.04c-.173.136-.299.275-.45.329-.046.015-.246-.26-.223-.308.077-.161.224-.28.344-.416l.33.396M190.343 114.733c-.183-.217-.386-.355-.38-.48.006-.135.205-.36.324-.361.138-.003.28.19.42.3l-.364.54M196.2 70.969c-.07-.367-.177-.59-.12-.732.048-.127.277-.164.427-.241.056.179.178.373.148.53-.026.136-.224.23-.455.443M157.51 214.66c.172.297.328.447.336.607.009.175-.119.358-.187.537-.163-.157-.376-.285-.466-.483-.043-.096.148-.326.316-.66M76.013 209.17l-.649.448c-.085-.164-.256-.345-.233-.487.022-.142.232-.322.372-.338.12-.014.26.18.51.377M163.59 86.231c-.174.16-.338.344-.358.326a1.187 1.187 0 0 1-.315-.432c-.018-.047.202-.294.248-.272.144.066.256.217.425.378M207.384 16.736c.197-.114.344-.232.505-.27.037-.01.21.314.172.385-.079.15-.256.237-.392.35l-.285-.465M210.834 84.572c-.17-.268-.3-.41-.345-.58-.015-.06.195-.283.278-.267.159.03.3.177.448.276a603.4 603.4 0 0 0-.38.571M303.78 96.434c.25-.106.417-.214.592-.236.091-.01.197.132.296.205l-.332.548-.557-.517M223.271 113.742l-.367.356c-.095-.147-.23-.282-.267-.446-.019-.076.151-.208.235-.314l.4.404M125.076 15.91l.256-.482c.138.1.312.173.4.313.04.063-.101.38-.15.377-.154-.009-.302-.116-.506-.209M231.842 126.003c-.192-.636-.29-.814-.28-.985.005-.1.183-.187.283-.281.09.16.23.31.257.484.022.136-.091.3-.26.782M240.643 70.148c-.163-.301-.333-.475-.315-.62.019-.16.21-.294.325-.44.11.153.289.295.307.459.015.142-.153.308-.317.601M60.227 184.995c-.048-.284-.127-.479-.091-.64.023-.104.214-.16.33-.239.063.18.166.36.17.54.002.083-.194.17-.41.34M120.274 136.358c-.182.063-.373.196-.54.165-.136-.024-.275-.227-.35-.389-.024-.053.138-.304.233-.32.137-.021.292.089.439.142l.218.402M258.978 125.402l-.539.413c-.093-.159-.22-.306-.262-.48-.014-.065.186-.278.273-.268.143.018.274.163.528.335M261.147 148.685c-.238.18-.364.33-.511.365-.069.017-.268-.21-.253-.285.038-.18.167-.334.26-.5l.504.42M263.438 23.534c-.173.158-.329.34-.357.318a1.04 1.04 0 0 1-.309-.408c-.016-.04.2-.285.265-.264.137.044.243.204.4.354M264.182 269.413c-.134-.424-.269-.632-.223-.759.053-.153.26-.237.4-.35.065.143.192.294.178.427-.016.163-.151.31-.355.682M166.867 147.617c-.121-.262-.257-.429-.224-.513a.726.726 0 0 1 .34-.354c.053-.026.276.188.264.227-.053.162-.167.298-.38.64M109.988 58.757c.277-.158.454-.342.557-.298.145.062.234.29.348.448-.133.11-.272.314-.398.305-.135-.009-.26-.22-.507-.455M150.942 215.722c-.185-.32-.365-.494-.35-.644.014-.16.214-.299.334-.446.114.158.291.303.32.478.022.135-.144.309-.304.612M99.687 213.808c-.12-.211-.246-.42-.347-.642-.005-.013.197-.145.302-.222l.285.718-.24.146M152.373 221.137l-.42.564c-.12-.143-.28-.266-.341-.435-.03-.082.12-.35.199-.357.145-.01.298.111.562.228"/>
        <path fill="#CDB076" d="M277.601 179.867a.989.989 0 0 0-.746-1.184l-8.528-1.937c-1.276-.29-1.716 1.639-.439 1.929l8.528 1.937a.99.99 0 0 0 1.185-.745M29.783 122.557c-1.276-.29-1.717 1.64-.44 1.93l9.338 2.12c1.276.29 1.717-1.638.44-1.929l-9.338-2.12zM274.56 145.995a.99.99 0 1 0 .088 1.977c1.699-.076 3.397-.154 5.096-.235 1.307-.062 1.214-2.04-.094-1.976-1.697.08-3.393.159-5.09.234M252.126 146.838c-3.557.18-7.235.367-10.814.44a.99.99 0 0 0 .041 1.978c8.163-.167 16.49-.901 24.794-.923a.99.99 0 1 0-.006-1.979c-4.703.013-9.437.252-14.015.484M63.047 155.035a.989.989 0 0 0-1.017-.961c-6.202.173-12.535.464-19.143.758-1.307.058-1.222 2.034.087 1.976 6.646-.295 12.934-.585 19.111-.757a.99.99 0 0 0 .962-1.016M34.766 157.151c1.307-.049 1.234-2.027-.076-1.977-3.014.115-5.7.199-8.21.257-1.163.028-1.326 1.698-.198 1.954.314.071 8.162-.222 8.484-.234M273.85 113.231c-1.99.586-4.085 1.22-6.404 1.942a.988.988 0 1 0 .588 1.889c2.31-.719 4.395-1.35 6.376-1.933 1.255-.37.698-2.27-.56-1.898M242.032 125.139a.988.988 0 0 0 .505-.018c4.996-1.507 10.043-3.129 14.923-4.698l3.03-.973a.99.99 0 1 0-.604-1.884l-3.033.974c-4.872 1.566-9.91 3.185-14.888 4.687a.988.988 0 0 0 .067 1.912M224.607 130.383a.986.986 0 0 0 .506-.019c3.337-1.011 6.675-2.019 10.013-3.023a.989.989 0 1 0-.57-1.895c-3.34 1.005-6.68 2.013-10.018 3.026a.988.988 0 0 0 .069 1.91M48.974 184.8c3.703-1.037 7.421-2.215 11.018-3.354 5.002-1.585 8.543-2.459 12.527-3.821a357.44 357.44 0 0 1 5.954-1.96l.907-.292a.988.988 0 1 0-.608-1.883l-.908.293c-1.965.634-3.996 1.29-5.986 1.97-3.846 1.315-7.864 2.344-11.793 3.588-3.763 1.191-7.716 2.454-11.645 3.554-1.26.353-.725 2.257.534 1.905M41.066 186.209a.99.99 0 0 0-1.238-.653l-8.052 2.489c-.964.298-.91 1.686.074 1.91.366.083-.186.195 8.563-2.51a.989.989 0 0 0 .653-1.236M260.843 84.997c1.107-.696.054-2.372-1.055-1.674l-14.294 8.989c-.749.471-.544 1.608.308 1.801.572.13-.432.615 15.041-9.116M226.761 106.088a.99.99 0 0 0 .747-.128l12.343-7.761a.989.989 0 1 0-1.055-1.674l-12.343 7.761a.988.988 0 0 0 .308 1.802M214.233 113.966a.99.99 0 0 0 .746-.127l6.031-3.793a.989.989 0 1 0-1.055-1.673l-6.03 3.792a.989.989 0 0 0 .308 1.801M66.107 205.123l-20.751 13.049c-.748.47-.546 1.608.308 1.801.58.133-.873.892 21.498-13.176a.989.989 0 1 0-1.055-1.674M238.461 58.07c-.658.726-1.993 1.9-2.51 2.63-.743 1.222-2.264 2.192-3.358 3.71-.77 1.069.849 2.209 1.606 1.157.431-.598.967-1.112 1.535-1.657 2.36-2.263.86-1.222 3.179-3.482.362-.353.705-.687 1.015-1.028.88-.97-.587-2.298-1.467-1.33M227.53 69.86a9487.713 9487.713 0 0 1-10.832 11.745.988.988 0 1 0 1.455 1.341A9959.7 9959.7 0 0 0 228.988 71.2c.885-.962-.571-2.303-1.458-1.34M201.399 100.32a.99.99 0 0 0 .947-.292c3.548-3.827 7.093-7.656 10.637-11.487a.99.99 0 0 0-1.454-1.342c-3.544 3.83-7.089 7.659-10.636 11.485a.989.989 0 0 0 .506 1.636M88.51 222.678c3.067-3.27 6.239-6.651 9.345-9.99 1.894-2.037 3.784-4.077 5.67-6.12a.988.988 0 0 0-.056-1.397.991.991 0 0 0-1.4.056c-1.884 2.041-3.772 4.08-5.664 6.114-6.72 7.223-13.587 14.475-20.292 21.705a.99.99 0 0 0 .506 1.636c.79.18.037.635 11.89-12.004M67.738 245.098c1.45-1.598 2.977-3.272 4.54-4.975.883-.964-.576-2.301-1.46-1.336a1113.533 1113.533 0 0 0-4.547 4.983c-.88.97.588 2.298 1.467 1.328M201.787 61.492c1.853-3.36 3.444-6.908 5.46-10.074 1.3-2.14 1.74-4.093 3.162-5.994.236-.366 1.676-3.056 2.704-5.388.527-1.196-1.285-1.995-1.813-.797a67.924 67.924 0 0 1-2.52 5.058c-1.55 2.097-2.034 4.13-3.215 6.077-2.065 3.243-3.684 6.85-5.512 10.163-.636 1.15 1.105 2.094 1.734.955M196.37 67.52c-.864 1.316-1.68 2.769-2.566 4.57l-.92 1.876c-2.284 4.662-4.645 9.481-7.27 14.052a.989.989 0 1 0 1.717.984c2.658-4.627 5.034-9.476 7.332-14.166l.92-1.873c.847-1.727 1.624-3.112 2.443-4.357a.989.989 0 1 0-1.656-1.086M105.64 241.25a.991.991 0 0 0-1.317.473c-3.465 7.353-7.87 13.994-11.232 21.4-.543 1.196 1.265 2.004 1.803.818 3.316-7.304 7.718-13.942 11.22-21.376a.988.988 0 0 0-.474-1.316M181.244 32.39l.912-4.002c.289-1.274-1.64-1.715-1.931-.438l-.911 4.001c-.29 1.274 1.64 1.715 1.93.439M176.889 51.526l2.731-12.003c.29-1.275-1.64-1.715-1.93-.438l-2.733 12.002c-.289 1.275 1.641 1.716 1.932.44M173.592 61.55a.99.99 0 0 0 1.185-.745l1.426-6.265c.29-1.275-1.64-1.715-1.931-.44l-1.426 6.267a.989.989 0 0 0 .746 1.183M168.84 82.426a.99.99 0 0 0 1.185-.746l3.128-13.74a.99.99 0 1 0-1.93-.439l-3.128 13.741a.989.989 0 0 0 .746 1.184M133.451 237.909a.99.99 0 0 0-1.185.745l-6.122 26.902c-.29 1.274 1.64 1.714 1.93.438l6.123-26.901a.989.989 0 0 0-.746-1.184M124.52 272.692l-.477 2.089c-.29 1.274 1.641 1.715 1.932.438l.475-2.089c.29-1.273-1.641-1.713-1.93-.438M149.432 31.04c-.08-2.155-.139-4.102-.183-5.952-.031-1.31-2.01-1.26-1.98.046.045 1.86.105 3.814.185 5.978.047 1.304 2.027 1.238 1.978-.072M147.848 40.402c.208 4.575.427 9.281.57 13.917.041 1.303 2.02 1.25 1.98-.062-.144-4.63-.362-9.327-.572-13.945-.06-1.305-2.038-1.217-1.978.09M148.666 61.838c.178 5.634.376 11.537.586 17.547a.99.99 0 0 0 1.98-.07 5386.15 5386.15 0 0 1-.587-17.54c-.042-1.305-2.02-1.244-1.98.063M156.81 247.668a.99.99 0 0 0-.952 1.025l1.093 29.402c.048 1.304 2.027 1.238 1.978-.073l-1.093-29.402a.991.991 0 0 0-1.026-.952M115.921 34.63c.26 1.28 2.201.888 1.94-.394-.247-1.216-.514-1.842-.909-2.548-.183-.328-.355-.637-.319-.842.319-1.788-3.39-1.739-1.41 1.806.216.388.462.816.698 1.977M120.64 50.143c.396 1.246 2.284.65 1.888-.598-.877-2.764-1.745-5.425-2.633-8.19-.4-1.244-2.285-.642-1.885.605.876 2.73 1.767 5.461 2.63 8.183M132.084 85.607a.99.99 0 0 0 1.165-1.256c-3.529-11.461-5.88-19.117-8.45-27.493-.384-1.25-2.277-.67-1.893.58 9.066 29.536 8.386 27.99 9.178 28.169M176.275 222.683a.99.99 0 1 0-1.862.675c.555 1.526.958 3.025 1.348 4.475.278 1.034.565 2.103.907 3.18a.987.987 0 0 0 1.243.645.989.989 0 0 0 .645-1.241 73.612 73.612 0 0 1-.883-3.097c-.4-1.49-.814-3.03-1.398-4.637M182.768 244.431c-.65-2.11-1.3-4.221-1.953-6.331a.99.99 0 0 0-1.891.583l1.951 6.33c.739 2.398 1.477 4.796 2.219 7.194.385 1.244 2.282.678 1.892-.584-.741-2.397-1.48-4.794-2.218-7.192M187.613 260.066c-.39-1.247-2.282-.658-1.89.59 4.117 13.13 3.898 12.647 4.6 12.806a.991.991 0 0 0 1.16-1.27 1154.009 1154.009 0 0 1-3.87-12.126M89.276 51.606c.853.194 1.529-.744 1.057-1.492l-3.886-6.168c-.697-1.106-2.373-.054-1.676 1.054 4.242 6.732 3.956 6.481 4.505 6.606M100.204 68.949c.852.193 1.529-.744 1.057-1.492l-6.092-9.669c-.697-1.105-2.374-.054-1.676 1.054 6.614 10.496 6.16 9.982 6.711 10.107M107.449 77.277l-2.285-3.626c-.698-1.106-2.374-.054-1.676 1.054 2.455 3.896 2.37 3.942 2.903 4.063.852.194 1.529-.743 1.058-1.491M112.209 84.831l-.857-1.36c-.698-1.105-2.374-.054-1.677 1.054l.857 1.36c.698 1.106 2.374.054 1.677-1.054M118.62 98.72a.99.99 0 0 0 1.675-1.055l-6.66-10.569c-.696-1.106-2.373-.053-1.675 1.054l6.66 10.57zM210.908 241.473l-16.389-26.01a.99.99 0 0 0-1.676 1.054c17.72 28.121 16.427 26.316 17.008 26.448.851.194 1.528-.744 1.057-1.492M215.077 248.09c-.697-1.105-2.374-.054-1.676 1.054 6.878 10.915 6.406 10.389 6.97 10.516.852.195 1.528-.743 1.056-1.49l-6.35-10.08zM59.302 65.079a.988.988 0 0 0 .363 1.351c.743.43 1.344 1.115 1.98 1.84 2.258 2.575 3.043 2.397 6.45 5.846.92.93 2.33-.459 1.41-1.39-1.367-1.384-2.911-2.73-4.86-4.235-1.384-1.07-4.206-5.38-5.343-3.412M73.526 77.982a.989.989 0 0 0 .028 1.398l.498.478c4.97 4.77 4.906 4.713 5.272 4.796.984.223 1.638-1.007.89-1.693-1.756-1.61-3.516-3.306-5.288-5.008a.99.99 0 0 0-1.4.029M89.553 91.45c-1.925-1.748-3.653-3.315-5.32-4.834-.967-.88-2.302.582-1.334 1.463 5.719 5.205 5.4 4.984 5.768 5.067.985.224 1.639-1.013.886-1.696M107.118 107.713c-3.486-3.34-7.373-6.965-12.233-11.408-.964-.882-2.303.576-1.336 1.46 4.847 4.432 8.724 8.047 12.199 11.376.944.904 2.316-.522 1.37-1.428M246.676 236.838c-1.738-1.456-3.398-3.079-5.005-4.649-5.245-5.128-5-4.471-7.777-7.256-4.224-4.236-4.202-4.045-9.218-8.591-.968-.879-2.301.585-1.331 1.464 14.074 12.76.944.946 13.86 12.845 2.722 2.505 5.304 5.278 8.199 7.703 1.003.84 2.276-.675 1.272-1.516M40.093 92.257a.99.99 0 0 0 .671 1.228c1.341.392 2.866 1.936 4.263 2.377 2.092.475 5.217 3.751 5.945 1.755a.989.989 0 0 0-.59-1.268c-.706-.258-1.335-.645-2-1.055-3.207-1.977-1.773-.494-4.454-2.314-1.318-.894-3.384-2.262-3.835-.723M78.708 111.338c-7.26-3.82-14.68-7.727-21.941-11.638-1.152-.62-2.093 1.12-.94 1.741 7.256 3.91 14.6 7.776 21.959 11.648 1.157.609 2.081-1.142.922-1.751M100.175 123.82a.989.989 0 0 0-.405-1.339 2551.147 2551.147 0 0 0-16.683-8.84c-1.157-.609-2.082 1.14-.923 1.75a2542.455 2542.455 0 0 1 16.67 8.834.99.99 0 0 0 1.34-.404M234.61 193.307c-3.425-1.79-6.356-3.32-9.335-4.888-1.158-.61-2.083 1.139-.924 1.75.204.107 9.356 4.928 9.58 4.979 1.121.254 1.703-1.306.679-1.841M241.438 196.888c-1.158-.611-2.082 1.14-.925 1.75 1.872.987 3.57 1.89 5.192 2.76 1.153.617 2.09-1.125.936-1.744a880.154 880.154 0 0 0-5.203-2.766M254.849 206.374c.268.142 9.792 5.157 10.088 5.225 1.122.255 1.703-1.31.675-1.843-3.368-1.746-6.648-3.443-9.837-5.13-1.151-.614-2.086 1.134-.926 1.748M303.426 161.923l-10.372-.795c-1.551-.119-1.733 2.227-.18 2.346l10.372.795a1.178 1.178 0 0 0 .18-2.346M14.31 139.77l-11.357-.87c-1.551-.118-1.733 2.227-.18 2.346l11.356.87c1.551.12 1.734-2.227.18-2.346M295.472 126.175c1.985-.384 3.97-.772 5.955-1.163 1.526-.3 1.072-2.611-.456-2.309-1.982.39-3.965.778-5.948 1.162a1.178 1.178 0 1 0 .45 2.31M285.182 125.753c-9.84 1.482-19.517 3.799-29.05 5.408a1.177 1.177 0 1 0 .392 2.32c9.575-1.616 19.242-3.93 29.009-5.401 1.541-.233 1.187-2.56-.35-2.327M23.068 175.97a1.178 1.178 0 0 0 1.38.93c7.767-1.503 15.114-2.94 22.351-4.217 1.535-.27 1.123-2.588-.41-2.317-7.266 1.283-14.666 2.729-22.389 4.225a1.176 1.176 0 0 0-.932 1.378M14.417 176.42c-3.527.66-6.672 1.226-9.617 1.732-1.361.235-1.262 2.228.109 2.333.382.03 9.575-1.683 9.94-1.752a1.176 1.176 0 1 0-.432-2.313M282.3 90.96a514.32 514.32 0 0 1 7.164-3.383c1.412-.653.424-2.791-.99-2.136a519.45 519.45 0 0 0-7.196 3.4 1.176 1.176 0 1 0 1.022 2.12M253.117 104.99c.382.029-.753.672 20.725-9.907 1.395-.686.357-2.8-1.04-2.11-7.224 3.557-13.69 6.763-20.098 9.779-1.091.514-.785 2.146.413 2.237M245.94 107.217a1.178 1.178 0 0 0-1.566-.564 5739.795 5739.795 0 0 0-11.258 5.303 1.176 1.176 0 1 0 1.007 2.127c3.75-1.771 7.5-3.538 11.253-5.3.588-.277.842-.978.565-1.566M69.5 192.907l1.018-.503a1.176 1.176 0 1 0-1.045-2.108l-1.016.502c-7.382 3.647-27.743 13.482-33.029 15.842-1.115.498-.818 2.155.391 2.247.708.054 11.478-5.247 12.947-5.963 7.826-3.816.393.036 20.735-10.017M25.76 211.27l-9.04 4.33c-1.082.52-.776 2.142.421 2.234.438.033-.207.273 9.637-4.442a1.176 1.176 0 1 0-1.018-2.122M252.998 67.552l15.249-13.064c1.181-1.012-.352-2.8-1.533-1.786l-15.25 13.064a1.176 1.176 0 1 0 1.534 1.786M231.828 85.234c.692.053-.202.626 14.023-11.56 1.181-1.011-.35-2.8-1.532-1.786l-13.168 11.28c-.799.685-.36 1.987.677 2.066M224.219 89.107l-6.434 5.511a1.175 1.175 0 0 0 .677 2.067c.3.023.61-.069.856-.28l6.434-5.512a1.178 1.178 0 0 0-1.533-1.786M60.09 229.716l-22.138 18.965c-.797.683-.361 1.987.676 2.066.705.054-.87 1.2 22.995-19.245a1.178 1.178 0 0 0-1.533-1.786M233.51 36.266c.89-1.72 2.512-3.12 3.348-5.036.655-1.071 1.617-2.172 2.317-3.217.867-1.293-1.091-2.6-1.957-1.309-.662.99-1.676 2.143-2.42 3.382-1.215 2.39-2.328 3.068-3.38 5.1-.715 1.383 1.38 2.46 2.093 1.08M216.6 60.017c.908.07.176.825 11.762-16.218.874-1.285-1.073-2.61-1.95-1.322-3.56 5.238-7.125 10.472-10.694 15.704a1.177 1.177 0 0 0 .882 1.836M202.046 82.355c3.506-5.12 7.01-10.242 10.51-15.367.878-1.283-1.066-2.612-1.945-1.326-3.5 5.124-7.003 10.245-10.509 15.365a1.175 1.175 0 0 0 .881 1.837c.405.031.816-.149 1.063-.509M104.366 224.903a1.176 1.176 0 1 0-1.947-1.324c-10.483 15.376-17.232 24.907-25.686 37.247-.879 1.282 1.064 2.613 1.944 1.328a3382.4 3382.4 0 0 1 10.833-15.683c3.038-4.382 6.18-8.912 9.252-13.381 1.873-2.726 3.74-5.455 5.604-8.187M71.503 268.502a1394.74 1394.74 0 0 0-4.48 6.655 1.177 1.177 0 0 0 .888 1.827c.937.071.748-.084 5.543-7.164.872-1.287-1.078-2.607-1.95-1.318M194.666 37.115c.586-1.57 1.133-3.187 1.663-4.751 3.263-9.644 2.768-6.635 4.136-11.472 1.267-4.478 1.844-3.927 3.784-10.992.412-1.499-1.86-2.124-2.272-.623-.523 1.908-1.262 4.174-2.081 6.39-1.458 2.738-1.673 5.213-2.723 7.71-1.864 4.174-3.14 8.7-4.713 12.916-.547 1.463 1.666 2.271 2.206.822M180.931 72.662a1.18 1.18 0 0 0 1.527-.665c4.496-11.446 6.59-20.611 9.025-25.858.653-1.41-1.483-2.402-2.138-.99-1.318 2.842-2.066 5.338-2.977 8.191-1.873 5.882-3.811 11.963-6.103 17.797-.238.605.06 1.288.666 1.525M111.435 266.124c-2.794 9.253-6.818 17.834-9.481 27.133-.429 1.496 1.836 2.142 2.264.647 2.626-9.17 6.648-17.746 9.472-27.101.449-1.488-1.805-2.17-2.255-.68M165.423 6.452l.373-4.867c.119-1.55-2.229-1.732-2.348-.18l-.374 4.867c-.119 1.55 2.23 1.732 2.349.18M163.636 29.724l1.12-14.598c.12-1.549-2.228-1.732-2.348-.179l-1.12 14.597c-.12 1.55 2.229 1.732 2.348.18M162.77 41.008l.584-7.62c.12-1.549-2.228-1.731-2.347-.18l-.586 7.62c-.119 1.55 2.23 1.732 2.348.18M159.556 67.479a1.177 1.177 0 0 0 1.265-1.084l1.282-16.71c.12-1.55-2.229-1.732-2.348-.18l-1.282 16.71a1.176 1.176 0 0 0 1.083 1.264M145.04 256.566a1.177 1.177 0 0 0-1.264 1.083l-2.512 32.716c-.119 1.55 2.23 1.73 2.348.18l2.512-32.716a1.177 1.177 0 0 0-1.084-1.263M140.598 299.044l-.195 2.54c-.12 1.55 2.23 1.732 2.348.18l.195-2.54c.12-1.55-2.229-1.732-2.348-.18M125.444 10.83a1.178 1.178 0 0 0 2.315-.429c-.468-2.521-.88-4.802-1.254-6.971-.265-1.535-2.584-1.132-2.32.4.376 2.18.788 4.469 1.26 7M127.528 21.692c1.044 5.346 2.122 10.844 3.1 16.273.275 1.53 2.594 1.115 2.318-.417-.977-5.421-2.053-10.91-3.106-16.307-.298-1.525-2.61-1.077-2.312.45M132.23 46.77a6659.086 6659.086 0 0 0 3.75 20.54 1.177 1.177 0 0 0 2.317-.426 6327.21 6327.21 0 0 1-3.75-20.533c-.277-1.53-2.594-1.113-2.317.418M175.597 264.922c-.285-1.526-2.6-1.1-2.315.431l6.415 34.402c.284 1.525 2.6 1.103 2.315-.431l-6.415-34.402zM88.96 20.458c.53 1.461 2.744.663 2.213-.801-.28-.774-.654-1.683-1.3-2.559-.292-.396-.746-.893-.736-1.216.062-2.117-4.322-1.495-1.343 2.371.321.419.685.88 1.165 2.205M97.218 37.888c.674 1.379 2.805.377 2.117-1.032-1.514-3.098-3-6.079-4.526-9.177-.687-1.394-2.802-.358-2.114 1.04 1.508 3.06 3.033 6.117 4.523 9.17M116.867 77.62a1.178 1.178 0 0 0 1.152-1.68c-6.151-12.87-10.252-21.469-14.738-30.875-.668-1.403-2.796-.393-2.126 1.012 15.946 33.437 14.754 31.47 15.712 31.543M195.22 236.41c-.73-1.684-1.487-3.424-2.454-5.213a1.176 1.176 0 1 0-2.072 1.119c.92 1.7 1.655 3.393 2.366 5.03.508 1.169 1.032 2.377 1.622 3.585.677 1.388 2.808.387 2.117-1.031a86.496 86.496 0 0 1-1.578-3.49M200.797 248.545a1.178 1.178 0 0 0-2.124 1.016c1.134 2.369 2.268 4.739 3.4 7.108 4.16 8.701 3.935 8.673 4.838 8.742a1.177 1.177 0 0 0 1.151-1.681c-2.505-5.227-4.789-10.016-7.265-15.185M212.626 273.205a1.177 1.177 0 0 0-2.12 1.026c2.426 5.01 4.61 9.462 6.679 13.615.694 1.393 2.802.344 2.108-1.048-2.064-4.145-4.245-8.59-6.667-13.593M60.573 45.07c1.037.079 1.669-1.141.984-1.94l-5.65-6.58c-1.013-1.18-2.8.35-1.787 1.532 6.154 7.168 5.783 6.936 6.453 6.987M76.454 63.571c1.037.08 1.67-1.14.984-1.939l-8.854-10.315c-1.014-1.18-2.803.35-1.788 1.532 9.602 11.186 8.982 10.67 9.658 10.722M85.446 74.047c1.037.08 1.67-1.141.984-1.939l-3.32-3.868c-1.013-1.18-2.802.35-1.788 1.531 3.586 4.178 3.475 4.226 4.124 4.276M90.315 80.248l1.245 1.45c1.013 1.18 2.802-.35 1.788-1.53l-1.245-1.452c-1.014-1.179-2.802.35-1.788 1.532M93.634 84.115l9.678 11.275c1.013 1.18 2.803-.35 1.788-1.532l-9.678-11.275c-1.013-1.179-2.802.35-1.788 1.532M212.972 219.528a1.178 1.178 0 0 0-1.788 1.532c25.748 29.996 23.916 28.1 24.621 28.155 1.037.08 1.67-1.141.985-1.938l-23.818-27.749zM242.849 254.336c-1.013-1.18-2.802.35-1.788 1.53l9.23 10.753c1.013 1.18 2.803-.35 1.787-1.531l-9.23-10.752zM28.32 67.665c.95.375 1.776 1.077 2.651 1.82 3.105 2.636 3.998 2.29 8.609 5.753.52.391 1.258.287 1.65-.232a1.175 1.175 0 0 0-.234-1.647c-1.85-1.39-3.901-2.705-6.458-4.137-1.722-.965-3.118-2.863-5.353-3.745a1.176 1.176 0 1 0-.866 2.188M46.92 80.483l.67.476c6.948 4.939 6.672 4.696 7.038 4.724 1.196.092 1.751-1.47.752-2.147-2.347-1.59-4.712-3.277-7.095-4.97a1.178 1.178 0 0 0-1.365 1.917M67.1 94.048c1.2.092 1.753-1.477.748-2.15-2.57-1.722-4.875-3.265-7.102-4.76-1.29-.868-2.607 1.083-1.314 1.952 7.715 5.182 7.254 4.926 7.669 4.958M73.65 98.632c6.477 4.37 11.668 7.948 16.337 11.26 1.268.9 2.634-1.016 1.363-1.918-4.684-3.323-9.89-6.91-16.381-11.292-1.288-.87-2.61 1.079-1.318 1.95"/>
        <path fill="#CDB076" d="M173.97 256.199a7884.986 7884.986 0 0 0-6.558-35.364c-1.98-10.556-4.105-21.79-6.684-35.352-.963-5.06-1.93-10.12-2.895-15.181a13540.935 13540.935 0 0 0 15.232 48.736.99.99 0 0 0 1.89-.594 13910.242 13910.242 0 0 1-16.57-53.041c9.924 20.642 19.969 41.48 29.97 62.066a1.176 1.176 0 0 0 1.573.544c.585-.284.83-.987.545-1.572-9.444-19.44-18.93-39.109-28.314-58.622l26.512 42.077a.99.99 0 0 0 1.676-1.054l-28.566-45.335c46.483 54.163 43.44 50.842 44.143 50.896 1.037.08 1.67-1.141.984-1.939L166.767 165.7l4.55 4.236 4.382 4.079a5406.08 5406.08 0 0 0 20.838 19.315c7.657 7.052 14.56 13.34 21.105 19.225.972.874 2.299-.595 1.325-1.47a2382.171 2382.171 0 0 1-21.087-19.21 5488.292 5488.292 0 0 1-20.83-19.308l-4.383-4.079c-2.666-2.482-5.378-5.007-8.102-7.54 4.426 3.04 8.842 6.078 13.17 9.056l5.865 4.036c18.346 12.618 36.805 25.273 56.07 38.041 1.296.86 2.6-1.1 1.3-1.96a2834.759 2834.759 0 0 1-28.16-18.93 6396.64 6396.64 0 0 1-27.873-19.09l-5.867-4.035-8.87-6.102a344.29 344.29 0 0 0 12.446 5.95c12.523 7.694 33.55 18.122 33.917 18.205 1.13.257 1.703-1.325.665-1.848-11.215-5.652-22.838-11.46-33.598-18.076l-.11-.058a350.953 350.953 0 0 1-16.63-8.08c8.316 2.91 16.103 5.39 23.819 7.595 13.831 5.913 28.492 10.722 42.799 15.458a1.177 1.177 0 1 0 .74-2.233l-1.624-.538c-13.648-4.518-27.761-9.19-41.057-14.88l-.14-.049c-7.513-2.144-15.093-4.553-23.172-7.368l91.279 20.735c1.276.29 1.716-1.639.439-1.929l-92.298-20.967 115.04 8.815c1.55.119 1.733-2.227.18-2.346l-112.558-8.625.796-.032 1.052-.019c1.877-.031 3.818-.063 5.673-.316 1.741-.218 3.52-.147 5.402-.072 1.189.047 2.419.097 3.667.07l.075-.005c.542-.053 1.112-.07 1.716-.087 1.126-.033 2.289-.067 3.442-.342 1.384-.182 2.848-.125 4.397-.066.725.027 1.475.057 2.257.06 1.61-.035 3.12-.162 4.58-.286 1.429-.12 2.906-.245 4.447-.278 5.356-.077 10.717-.273 15.902-.461 3.217-.117 6.544-.24 9.824-.33a.99.99 0 1 0-.055-1.977c-3.289.091-6.62.212-9.842.33-5.173.189-10.523.383-15.863.46-1.611.034-3.12.161-4.58.285-1.43.12-2.907.246-4.43.279-.722-.004-1.455-.032-2.165-.059-1.582-.06-3.219-.124-4.788.09l-.102.019c-.967.236-2.042.268-3.081.298-.598.018-1.217.035-1.814.092-1.175.024-2.36-.023-3.508-.069-1.88-.075-3.824-.152-5.738.088-1.748.238-3.63.27-5.45.3-.358.005-.713.011-1.078.019-1.172.046-2.34.095-3.51.142 2.257-.429 4.51-.858 6.772-1.285.404-.069.816-.136 1.234-.205 2.203-.364 4.481-.74 6.62-1.36 2.01-.56 4.114-.786 6.343-1.025 1.406-.152 2.862-.308 4.326-.556l.088-.019a30.186 30.186 0 0 1 2.004-.401c1.318-.235 2.68-.477 3.988-1 1.597-.457 3.329-.645 5.162-.845.858-.094 1.746-.19 2.666-.322 1.89-.321 3.643-.734 5.338-1.134 1.66-.39 3.377-.795 5.185-1.102 6.288-1.021 12.561-2.185 18.628-3.31 3.765-.698 7.657-1.42 11.5-2.097a1.176 1.176 0 1 0-.409-2.317c-3.854.68-7.752 1.402-11.521 2.101-6.054 1.122-12.314 2.283-18.584 3.302-1.89.321-3.643.734-5.34 1.134-1.66.39-3.376.795-5.16 1.098-.852.122-1.72.217-2.558.308-1.873.204-3.81.415-5.619.94l-.116.04c-1.097.447-2.356.67-3.573.887-.701.124-1.425.253-2.118.424-1.38.232-2.782.384-4.14.529-2.224.239-4.525.486-6.735 1.103-2.015.584-4.224.948-6.36 1.3-.42.07-.837.138-1.265.212l-.052.009.66-.2c6.818-2.259 13.605-4.332 20.17-6.337 5.131-1.568 10.437-3.189 15.677-4.875a.99.99 0 1 0-.607-1.883c-5.226 1.682-10.524 3.3-15.65 4.866-6.574 2.008-13.374 4.085-20.187 6.343-2.362.71-4.715 1.424-7.059 2.139 3.473-1.652 6.96-3.305 10.475-4.956 7.628-3.845 15.253-7.467 22.626-10.968 5.763-2.737 11.723-5.569 17.594-8.464a1.177 1.177 0 1 0-1.042-2.11c-5.856 2.888-11.808 5.715-17.564 8.449-7.385 3.508-15.022 7.135-22.645 10.978a2356.49 2356.49 0 0 0-6.983 3.296l39.163-24.628a.989.989 0 1 0-1.055-1.674l-42.408 26.67L212.4 102.33a1.178 1.178 0 0 0-1.533-1.786l-44.646 38.248 9.68-10.374c6.978-7.475 14.193-15.204 21.344-22.891a.989.989 0 1 0-1.452-1.347 17726.434 17726.434 0 0 1-21.34 22.889c-4.04 4.328-8.121 8.7-12.233 13.11 4.596-6.671 9.158-13.285 13.666-19.82a22379.258 22379.258 0 0 0 21.118-30.646 1.178 1.178 0 0 0-1.942-1.332c-7.071 10.286-14.21 20.635-21.115 30.643-3.462 5.019-6.958 10.086-10.475 15.188 6.734-12.665 13.618-25.67 20.268-38.725a.99.99 0 1 0-1.765-.897c-7.492 14.708-15.285 29.36-22.824 43.532l.904-2.544c6.412-18.025 13.043-36.665 19.309-55.327a1.177 1.177 0 1 0-2.232-.748c-6.171 18.375-12.696 36.733-19.018 54.507l10.328-45.376a.99.99 0 1 0-1.931-.439l-11.114 48.827 4.773-62.17a1.176 1.176 0 0 0-2.348-.18l-4.51 58.747c-.18-4.413-.353-8.67-.524-12.943-.447-11.163-.827-21.03-1.163-30.17l-.136-3.723a.99.99 0 0 0-1.979.072l.136 3.724c.336 9.14.716 19.011 1.164 30.176.215 5.382.433 10.742.666 16.417-1.461-7.665-2.813-14.78-4.17-21.933-3.147-16.622-5.23-27.755-7.438-39.649-.284-1.528-2.6-1.103-2.316.428 2.131 11.478 4.184 22.466 7.441 39.66 1.084 5.72 2.167 11.42 3.304 17.395a34759.36 34759.36 0 0 0-14.054-45.293.99.99 0 0 0-1.892.588c4.764 15.302 9.578 30.84 14.233 45.866l1.194 3.853-3.281-6.835a42725.52 42725.52 0 0 0-24.746-51.486c-.674-1.401-2.798-.382-2.122 1.02 8.273 17.174 16.646 34.617 24.744 51.484l1.28 2.666-19.368-30.739c-.698-1.106-2.374-.054-1.677 1.054l21.81 34.612-33.52-39.05c-1.012-1.179-2.801.35-1.787 1.532l31.391 36.571c-1.78-1.63-3.523-3.22-5.24-4.782-1.785-1.625-3.544-3.343-5.245-5.006-1.536-1.5-3.122-3.05-4.733-4.536-1.669-1.54-3.448-2.947-5.065-4.46-1.697-1.59-3.383-3.266-5.09-4.915-.93-.9-1.73-1.67-2.507-2.431-.934-.915-2.322.497-1.386 1.413.812.795 1.628 1.581 2.517 2.44 1.676 1.618 3.381 3.315 5.113 4.936.875.819 1.792 1.606 2.68 2.367a87.287 87.287 0 0 1 2.394 2.103c1.59 1.467 3.167 3.007 4.692 4.498 1.714 1.674 3.485 3.405 5.297 5.054 2.49 2.265 5.027 4.584 7.67 7.008-4.376-2.97-8.52-5.766-12.563-8.482-2.384-1.6-4.753-3.316-7.045-4.975-2.068-1.498-4.206-3.046-6.359-4.513-2.232-1.522-4.57-2.868-6.737-4.368-1.695-1.173-9.852-7.052-10.22-7.318-1.258-.914-2.644.988-1.383 1.904 1.093.793 2.19 1.576 3.387 2.433 2.253 1.611 4.555 3.31 6.875 4.916 1.173.812 2.39 1.577 3.566 2.318 1.055.663 2.146 1.35 3.185 2.058 2.125 1.45 4.25 2.987 6.303 4.475 2.31 1.671 4.696 3.4 7.114 5.023a2860.72 2860.72 0 0 1 7.204 4.853c-10.557-5.354-20.265-10.42-28.44-14.708a.988.988 0 1 0-.92 1.752c8.645 4.534 19.002 9.937 30.268 15.634 1.229.683 2.456 1.34 3.67 1.982-2.397-.836-4.866-1.7-7.334-2.63l-.043-.015c-14.242-4.739-27.367-9.291-38.328-13.12a1.178 1.178 0 0 0-1.5.722 1.175 1.175 0 0 0 .723 1.498c10.963 3.83 24.09 8.384 38.339 13.125a246 246 0 0 0 4.894 1.774l-88.876-20.19c-1.275-.289-1.717 1.64-.439 1.93l91.583 20.804-114.17-8.748c-1.551-.118-1.734 2.227-.18 2.346l109.656 8.402c-21.716.947-42.27 1.839-63.563 2.47a.99.99 0 1 0 .059 1.979c21.596-.642 42.424-1.55 64.474-2.511l3.43-.15-6.82 1.315c-25.766 4.968-50.104 9.66-75.384 14.17a1.177 1.177 0 1 0 .414 2.317c25.296-4.513 49.641-9.207 75.417-14.177l4.111-.792c-15.944 4.985-31.123 9.712-47.054 14.302a.989.989 0 1 0 .549 1.901c16.782-4.835 32.719-9.819 49.593-15.096l.295-.093-2.852 1.379c-18.92 9.139-36.789 17.771-55.665 26.37a1.176 1.176 0 1 0 .977 2.141c18.423-8.392 35.88-16.812 54.281-25.702L72.73 200.958a.99.99 0 1 0 1.055 1.674l67.383-42.375-74.013 63.407c-1.18 1.011.351 2.8 1.534 1.786l70.132-60.083c-2.528 2.734-5.062 5.48-7.601 8.237-4.9 5.53-9.81 10.794-14.558 15.886-3.108 3.333-6.322 6.78-9.523 10.288a.988.988 0 0 0 .512 1.631.988.988 0 0 0 .952-.298c3.194-3.5 6.404-6.943 9.508-10.273 4.756-5.1 9.675-10.374 14.579-15.909 3.656-3.97 7.303-7.917 10.939-11.842-4.13 6.03-8.275 12.1-12.431 18.212-4.8 7.359-9.658 14.407-14.356 21.225-3.075 4.462-6.255 9.077-9.41 13.762a1.175 1.175 0 0 0 .887 1.83c.41.031.823-.153 1.068-.517 3.147-4.675 6.323-9.283 9.395-13.741 4.706-6.829 9.573-13.89 14.377-21.255a6708.284 6708.284 0 0 1 11.006-16.133c-.709 1.357-1.419 2.711-2.127 4.074-11.744 23.036-22.423 43.792-34.204 64.523a.988.988 0 0 0 .642 1.453.99.99 0 0 0 1.08-.476c11.801-20.767 22.492-41.544 34.243-64.596 1.11-2.134 2.222-4.263 3.334-6.385-1.25 3.572-2.498 7.153-3.74 10.752-9.799 29.148-18.743 55.426-28.988 81.867-.561 1.45 1.63 2.31 2.196.85 10.263-26.487 19.216-52.793 29.02-81.958.75-2.169 1.501-4.33 2.253-6.49l-13.986 61.45a.989.989 0 1 0 1.93.439l14.983-65.827-6.36 82.844a1.178 1.178 0 0 0 2.349.18l6.06-78.944c.146 3.524.292 7.048.436 10.572.474 11.597.855 21.2 1.2 30.22.418 10.908.776 20.79 1.094 30.212a.99.99 0 0 0 1.98-.067c-.319-9.425-.677-19.31-1.094-30.22-.346-9.023-.727-18.627-1.201-30.225-.196-4.813-.396-9.626-.595-14.44 1.249 6.549 2.5 13.096 3.745 19.644 2.58 13.561 4.703 24.792 6.683 35.346a7912.075 7912.075 0 0 1 6.556 35.354 1.177 1.177 0 0 0 2.317-.423M278.063 235.596c-4.358-2.674-7.544-5.428-13.089-9.019-5.843-3.78-3.338-2.66-13.38-9.284-.998-.659-1.995-1.317-2.99-1.982-1.292-.865-2.605 1.09-1.31 1.956 16.63 11.121 3.62 2.542 18.548 12.699 3.638 2.474 7.16 5.287 10.989 7.636a1.177 1.177 0 1 0 1.232-2.005M22.291 106.806a1.177 1.177 0 0 0 .326-2.326c-.876-.18-1.683-.526-2.537-.893-4.117-1.768-2.172-.272-5.643-1.946-1.04-.502-2.116-1.021-3.31-1.187-1.555-.207-1.856 2.118-.324 2.331 1.585.22 3.298 1.546 5.237 2.023.857.137 1.015.041 3.11.94.367.158 2.265.99 3.141 1.058"/>
        <path fill="#CDB076" d="M58.558 117.184c-9.209-3.23-18.62-6.535-27.844-9.872-1.463-.529-2.267 1.682-.802 2.212 7.247 2.621 27.8 9.915 28.167 9.943 1.361.104 1.774-1.829.479-2.283M63.33 121.352c7.86 2.758 14.465 5.087 21.154 7.49a1.177 1.177 0 0 0 .797-2.215 3010.524 3010.524 0 0 0-21.17-7.495c-1.467-.516-2.25 1.704-.78 2.22M256.274 186.482c-4.342-1.51-8.056-2.8-11.836-4.126-1.467-.516-2.25 1.703-.78 2.22.255.09 11.869 4.17 12.14 4.19 1.363.104 1.774-1.833.476-2.284M271.536 191.855c-2.065-.742-4.225-1.51-6.604-2.348-1.469-.518-2.251 1.702-.783 2.219 2.375.836 4.53 1.602 6.59 2.343 1.463.526 2.263-1.687.797-2.214M295.618 200.438c-4.267-1.469-8.423-2.895-12.468-4.324-1.463-.521-2.257 1.698-.786 2.218.337.12 12.423 4.364 12.781 4.39 1.365.106 1.775-1.836.473-2.284"/>
        <path fill="#FFF" d="M255.159 248.264c.42-1.225 2.301-3.275 5.084-4.82 1.268-.705 2.826-1.22 4.495-1.646-.832 4.34-2.673 8.416-4.943 10.665-1.07 1.062-2.667 2.056-3.405 2.254-.853-.655-2.085-3.96-1.231-6.453m-1.683-22.277c.366.282.93.688 1.497 1.059-1.01.368-1.987.779-2.928 1.233.637-.893 1.091-1.744 1.43-2.292M80.822 179.87c6.665-7.988 7.37-17.625-.054-25.291 2.407-2.494 3.275-6.343 6.228-28.799-.052 7.037 1.316 10.25 5.987 13.544 1.362.963 3.267 2.303 5.609 2.857-5.867 3.927-9.852 10.764-9.598 17.694.144 3.944 2.344 6.937 4.167 8.756-1.529 2.16-1.633 5.007-1.695 7.64-.017.686-.157 2.218 1.168 3.64a4.383 4.383 0 0 0-.226 1.356c-.01 1.94-.355 4.344-.805 6.957-2.03-2.322-6.214-6.29-10.78-8.354m-8.338 37.597c-1.467 3.005-4.006 5.363-6.696 7.859-4.34 4.028-8.984 6.899-14.075 8.685 1.276-11.505 2.636-23.302 5.34-33.372.653-.355 1.477-.742 2.382-1.334.697-.457 1.28-.956 1.794-1.397.335-.287.843-.723 1.037-.815 1.527-.634 3.705-1.153 5.548-1.32.392-.037.901-.057 1.436-.057.566 0 1.138.021 1.654.061 1.882.145 3.487.52 4.167.794.226.496.625 1.788.809 4.178.576 7.475-1.512 12.861-3.396 16.718m51.404-168.175c.818 8.918-3.53 17.991-8.8 25.283 2.58-10.556 6.818-22.232 8.8-25.283m107.349 107.748c.42-1.226 2.301-3.275 5.085-4.821 1.268-.704 2.825-1.219 4.494-1.645-.832 4.341-2.673 8.416-4.943 10.665-1.07 1.061-2.667 2.056-3.405 2.253-.853-.654-2.085-3.96-1.231-6.452m-23.473-45.929c1.227-9.701-.824-4.49 2.408-10.497a22.762 22.762 0 0 1 2.368-3.577c-.644 4.805-1.997 9.161-3.352 13.41-.47.201-.947.422-1.424.664m-30.234-8.82a33.97 33.97 0 0 0-3.48 2.706c.147-1.692.274-1.767 2.463-5.692a26.01 26.01 0 0 1 1.365-2.227 41.462 41.462 0 0 1-.348 5.213m-34.738 48.98c-6.98 0-6.497 3.864-6.676 7.426-.058 1.154-.116 2.326-.211 3.436-2.346-.898-4.619-2.604-5.302-3.506-1.876-2.469-4.122-4.256-7.181-3.372-.084-3.527-.656-6.871-2.2-9.528 4.509 1.31 7.92-1.17 10.672-5.11 1.213 2.507 2.917 4.44 5.083 5.692 1.725.999 4.594 2.233 6.752 2.082 1.016-.072 2.003-.397 2.97-.983.027.167.06.335.1.503.666 2.747 3.256 4.589 5.821 5.44-.291.724-.576 1.47-.848 2.243a11.807 11.807 0 0 0-.414-.508c-2.118-2.46-5.16-3.816-8.566-3.816m-32.714 10.474a81.03 81.03 0 0 0-1.478-.243c-.606-2.425.395-5.637 1.986-7.022.124 2.197-.205 4.986-.508 7.265m93.748-4.649c-.495 7.274-1.129 15.583-2.13 23.818a16.161 16.161 0 0 0-2.054-.128c-4.08 0-8.04 1.451-10.593 3.882-.478.456-.946.945-1.403 1.47-.807-3.03-2.88-5.792-5.728-7.511-1.758-1.062-4.529-2.314-7.03-2.645a12.51 12.51 0 0 0-1.627-.11c-4.552 0-7.054 2.677-8.552 4.84.304-3.773.733-7.692 1.29-11.787 5.618-4.933 11.745-11.574 13.07-20.295.437-2.88-.407-5.728-2.377-8.017-2.126-2.47-5.309-3.945-8.514-3.945-.184 0-.367.006-.549.016.487-1.931.867-3.855 1.238-5.745.107-.545.214-1.09.323-1.63.134-.667.273-1.319.419-1.962 2.05 1.979 4.807 3.405 7.247 3.898.67.136 1.345.204 2.005.204 2.873 0 5.045-1.23 6.672-2.587-1.425 9.63-2.957 19.306-4.605 27.986-.09.473-.225 1.042-.369 1.646-.528 2.22-1.185 4.985-.744 7.67 1.168 7.103 8.915 7.803 11.461 8.032a4.396 4.396 0 0 0 3.439-1.204c4.26-4.082 3.178-6.987 8.587-36.118 9.209 4.756 15.288-4.828 19.973-14.173.697 6.637 3.432 10.322 7.744 13.133-9.73 3.557-15.298 10.783-16.31 17.9-4.501-1.687-10.555-1.443-10.883 3.362m-4.93 48.449c-.232 2.762-1.054 4.412-1.769 7.126.462-2.577 1.028-4.6 1.769-7.126m-87.287-66.291c-1.66-.347-3.105-.402-4.77-.208.741-1.768 1.1-3.588 1.292-5.412a21.81 21.81 0 0 0 3.478 5.62m184.8 94.683c-1.665-3.591-6.404-4.823-12.587-6.512 2.07-13.836 2.424-24.387 2.628-35.816.111-6.187.009-10.774-2.33-13.468-3.185-3.666-8.242-3.389-11.862-3.557a4.4 4.4 0 0 0-3.29 1.256c-1.963 1.927-1.015 2.847-1.31 12.915-1.683-5.393-7.306-8.85-12.968-8.85a4.396 4.396 0 0 0-4.364 4.923c.204 1.679.07 3.782-.23 6.038-1.187-1.249-2.922-2.384-4.708-3.195.637-.993.937-2.179.835-3.448-.184-2.318-1.937-3.837-3.443-4.9-6.842-4.832-14.972-4.204-21.32 3.38 1.013-6.21.645-5.911 1.433-10.798 3.847 2.457 8.868 3.9 13.434 3.523 5.38-.447 9.417-3.72 11.344-5.63 4.862-4.817 7.533-11.477 9.438-18.373 3.985 1.687 5.787 4.087 10.381 4.087 2.187 0 3.652-1.062 4.344-2.623.65-1.47 2.602-6.583.37-10.6-1.611-2.9-5.13-3.954-7.958-4.802-.299-.09-.587-.176-.855-.26-1.141-.36-2.246-.67-3.483-1.02 2.035-13.49 2.396-24.747 2.625-35.553.127-6.104.057-10.636-2.012-13.371-3.046-4.027-8.641-3.754-12.18-3.924a4.4 4.4 0 0 0-3.294 1.254c-1.965 1.93-1.016 2.847-1.312 12.92-2.347-7.5-11.276-9.526-14.193-8.679-.823-2.193-2.15-4.144-4.163-5.686-7.31-5.598-14.292-6.417-20.776.168-3.135-4.175-11.003-8.073-14.397-3.998a4.39 4.39 0 0 0-.957 3.53c.17 1.019.286 2.162.362 3.374-2.73-2.46-7.11-5.132-11.225-5.132-3.721 0-6.478 1.856-8.539 3.982-2.94-3.492-7.537-5.243-9.189-5.356-2.965-.609-7.31 1.582-6.366 7.46.216 1.36-1.542 15.151-1.879 17.894-.722 5.893-.385 7.71-.88 9.448 0 0-.874 1.513-1.563 2.866.889-5.97 1.15-9.97-.04-12.79-1.437-3.407-6.888-5.942-10.414-6.292a5.593 5.593 0 0 0 .431-3.467c-.322-1.707-1.402-3.74-6.981-5.883-3.276-1.257-8.082-1.032-11.124.687-4.97 2.808-8.901 8.655-11.737 17.422.564-5.4.547-4.677.655-6.782.027-.54.066-1.309.126-1.725.8-.884 18.084-14.223 24.159-33.983 1.692-5.506 2.66-13.534.301-19.552-3.134-7.993-12.226-14.28-20.058-9.874-11.605 6.53-20.085 36.47-22.87 49.533.635-6.104 1.643-21.58-1.004-26.692-1.852-3.577-10.725-8.216-15.606-4.47-4.764 3.657.063 6.356-6.676 56.956-2.191.956-5.48 2.456-7.477 2.871-1.248.26-3.134.651-4.766 2.178a4.39 4.39 0 0 0-1.002 5.01c.88 1.951 2.327 3.103 2.787 3.564a4.398 4.398 0 0 0 3.854 1.596c1.85-.188 3.518-.607 5.05-1.1-1.989 17.14-3.882 19.498-3.274 23.244-5.343.127-10.661 1.741-15.818 4.81-9.405 5.598-11.664 9.42-13.885 11.917-2.182 2.452-3.519 4.7-4.363 6.036-5.096 8.062-7.722 14.626-.632 21.034 1.969 1.778 5.079 3.989 8.85 4.595-2.664 9.507-4.408 19.066-4.986 24.353-6.01-1.606-9.518 3.276-8.839 9.51 1.115 10.264 10.445 19.706 23.787 19.706 12.554 0 23.881-5.775 32.599-14.31 5.91-5.787 9.866-10.027 13.108-17.26 2.152 1.89 5.75 3.704 8.94 3.325 3.797-.451 6.15-3.71 7.732-6.98 3.045 5.397 9.841 9.256 14.13 8.756 2.035-.238 3.647-1.335 4.94-2.73.928 1.963 2.257 3.485 3.988 4.558 1.86 1.152 6.468 3.475 9.493 3.242 3.13-.243 5.251-2.344 6.607-4.225 2.46 2.24 5.62 3.161 8.979 3.161-1.257 12.067 1.42 20.206 7.566 22.954 1.298.58 3.5 1.258 5.433 1.258.53 0 1.038-.05 1.51-.15 3.658-.771 5.284-4.379 6.36-6.766l.27-.593c1.835-3.933 3.29-7.883 4.752-11.649 2.711 2.217 7.818 4.461 11.396 4.206 4.487-.317 7.25-4.253 9.396-8.172 3.095 2.754 12.553 7.77 16.933-1.485 4.793 2.899 9.103 4.185 12.923.126 2.749 2.985 7.775 5.16 10.809 4.887-13.883 11.586-8.83 32.001 10.293 34.525 5.565.735 10.483-1.37 14.643-5.236 5.294-4.92 7.985-11.853 9.826-18.603 4.28 1.814 5.95 4.299 10.894 4.07a4.399 4.399 0 0 0 3.851-2.687c.758-1.803 2.336-6.398.62-10.101"/>
        <path fill="#0D603D" d="M95.847 176.92c.07-2.47.003-6.317 2.05-6.417 2.588-.127 5.944 2.131 7.109 3.96.14 2.701-.485 6.173-2.461 6.282-2.124.116-5.486-2.63-6.698-3.824M92.293 129.123c-.06-.447.137-1.86-.137-1.638.06.447-.138 1.86.137 1.638m0-2.048c-.078-.835.164-2.71-.137-2.868.078.835-.163 2.71.137 2.868m.137-3.96c-.06-.448.138-1.86-.137-1.64.06.448-.138 1.86.137 1.64m.136-2.185c-.044-.33.117-1.561-.136-1.23.044.33-.117 1.561.136 1.23M121 73.678c3.45-5.464 7.382-13.522 7.382-21.85 0-3.704-.285-8.877-4.648-8.194-1.039.163-2.219 1.466-2.87 2.322-1.98 2.598-3.211 6.119-4.511 9.559-3.776 9.992-7.209 22.94-8.475 33.868 4.462-4.355 9.262-9.587 13.122-15.705m-5.33-31.956c-.484.495-1.113 1.385-.274.41.78-.733 2.419-2.03 2.734-2.322-1.09.368-1.63 1.286-2.46 1.912M102.68 137.59c-2.737 1.317-5.246-.5-7.244-1.912-2.432-1.716-3.68-3.21-3.964-7.101-.476-6.529 1.224-15.186 1.503-21.03-2.64 1.186-5.613 3.222-8.338 4.779-1.96 10.04-2.643 20.25-4.648 30.864-.424 2.247-1.05 8.097-3.007 8.74-1.326.435-3.41-.455-4.511-.956-1.762-.803-3.56-2.174-3.828-3.824-.287-1.768.761-5.355 1.094-7.238 1.214-6.868 2.333-14.41 2.87-21.714-3.166.843-6.472 2.729-10.526 3.142-.313-.403-.818-.777-1.23-1.23-.433-.476-.712-.824-.956-1.365 1.035-.97 2.55-.97 3.827-1.366 3.29-1.023 6.417-2.605 9.432-3.824 2.145-15.716 3.99-32.526 4.511-49.572.076-2.468-.242-6.15.82-6.965 2.22-1.705 8.193 1.401 9.022 3.004.716 1.383.982 4.778 1.094 6.418.95 13.93-2.306 28.517-3.28 40.833 2.882-1.263 6.057-3.416 8.611-5.463 2.405-18.077 6.972-35.914 14.217-50.528 2.223-4.484 5.32-10.054 9.295-12.291 2.823-1.588 5.95-.886 8.339.82 2.236 1.595 4.53 4.435 5.468 6.828 1.956 4.99 1.019 12.011-.41 16.66-3.7 12.035-11.183 20.731-19.275 28.816-1.311 1.31-4.241 3.25-4.784 4.78-.45 1.266-.35 3.286-.547 5.052-.928 8.349-1.762 16.965-2.187 25.81-.167 3.48-.08 6.972-1.368 9.833"/>
        <path fill="#0D603D" d="M220.379 153.432c.303-1.924-.397.623-.137 1.366.113-.596.09-1.062.137-1.366m25.015.683c.577-2.43 1.47-5.269 1.23-8.057.019 3.022-1.011 5.726-1.23 8.057m-.683-8.877c-3.658.736-7.473 1.445-10.526 3.141-3.076 1.708-6.15 4.438-7.108 7.238-1.646 4.803.8 12.02 5.058 12.29 2.36.15 5.478-2.206 6.835-3.55 3.71-3.677 6.409-10.664 6.698-17.48.02-.474.338-1.545-.41-1.776-.249.018-.315.09-.547.137m-118.517-12.427c-.093.261 1.126-1.824.82-1.776-.256.61-.64 1.09-.82 1.776m60.283 22.67c-.596 3.106-1.355 6.262-1.366 9.423 2.148-12.512 4.404-24.917 6.288-37.692.113-.325-.193-.63-.137-.137-1.481 9.65-3.005 19.148-4.785 28.405m5.195-29.77c-.142-.56.422-1.118 0-1.503.182.6-.408 1.128 0 1.503m14.627 2.047c1.394-2.158 3.057-4.774 3.69-7.237-1.81 1.742-3.865 3.967-3.69 7.237m3.007-2.867c.793-1.894 2.252-3.85 2.598-5.736-.734 1.953-2.061 4.04-2.598 5.736m-31.03-4.916c.788-.996 1.488-2.86 1.914-4.234.123-.398.567-1.253.273-1.093-.524 1.89-1.63 3.924-2.187 5.327m-2.597 1.638c2.33-2.542 3.786-6.686 4.374-10.515-2.339 2.552-5.047 5.404-4.374 10.515m-60.83-9.696c1.467-5.407 3.935-10.543 6.424-14.475-3.039 3.838-5.2 9.28-6.425 14.475m88.853-18.845c.175-.648 1.02-1.345.957-1.776-.269.553-1.081 1.282-.957 1.776m-60.967 45.339c1.585-1.157 2.666-3.114 3.691-5.053 2.466-4.664 5.294-9.65 7.792-14.613.492-.976 1.257-2.056 1.503-2.868.716-2.352.484-5.58.821-8.33.662-5.411 1.314-10.622 1.914-16.25.135-1.27.27-2.688.273-3.961.002-.99-.784-2.776.684-3.278.83-.137.298.239.41.82.376-.082.293-1.033.683-.683 4.578 1.3 7.382 4.37 8.612 9.013 2.463-3.147 5.62-9.727 12.166-7.101 1.588.636 3.547 1.91 4.921 3.004 3.398 2.706 4.553 7.403 5.058 12.29.597.184 1.608-.393 2.46-.409.375-6.004.741-13.582-.136-18.846.508-.61.857.832.957-.136 4.95 1.155 7.91 4.297 8.748 9.56 3.237-3.354 6.721-10.29 13.807-8.058 1.871.59 4.174 2.044 5.605 3.141 6.323 4.844 2.735 17.41.683 24.718 1.413.318 3.417.046 5.058.136.911-5.595 3.104-13.205 2.323-18.435 4.29.095 8.562 2.852 9.023 6.964.571 5.102-.874 10.769-1.914 16.115-.494 2.542-.807 5.254-1.23 7.784-.398 2.382-1.476 5.425.547 7.238 2.73-1.445 4.362-4.725 6.015-7.648 1.657-2.931 3.202-6.163 3.69-9.969 1.01-7.865 1.505-16.738 1.23-25.81 3.163.152 7.206-.035 8.886 2.184 1.515 2.003 1.132 8.563 1.093 12.291-.136 12.978-1.305 26.476-3.143 37.01 1.812.743 4.442 1.347 7.107 2.184 2.134.67 5.43 1.46 6.288 3.005.96 1.727.332 4.707-.546 6.691-3.012.14-4.772-1.69-6.835-2.73-2.102-1.062-4.26-1.93-6.972-2.596-1.899 8.042-4.283 15.792-9.432 20.894-2.085 2.068-5.157 4.083-8.612 4.37-4.829.403-10.408-1.902-13.26-4.916-2.683-2.836-4.61-7.981-3.416-12.973.7-2.934 2.573-5.85 4.51-7.785 4.894-4.889 12.674-7.692 22.145-7.374.312-3.133.264-6.997.137-9.832-1.817 1.887-2.551 6.003-6.151 6.282-3.218.248-8.603-3.213-10.116-5.6-2.544-4.014-2.663-9.308-1.777-14.339-2.225-.038-4.053.321-5.878.683-2.725 5.053-5.166 11.153-8.885 15.295-1.069 1.19-2.995 3.15-4.785 3.277-2.731.195-6.27-2.557-6.971-4.506-2.716-7.549 5.67-13.798 11.208-15.431 2.381-7.512 5.146-15.33 4.511-25.402-4.726 1.374-8.55 5.673-10.935 10.106-.819 1.521-2.08 3.292-2.324 4.643-.274 1.513-.111 3.203-.274 4.78-.442 4.313-1.155 8.57-1.913 12.837-1.98 11.142-4.22 22.293-6.015 33.458-.453 2.814-.844 5.7-1.367 8.467-.475 2.517-.864 5.31-2.734 7.102-3.248-.294-6.963-.993-7.518-4.37-.398-2.422.661-5.506 1.094-7.784 3.142-16.556 5.873-36.74 8.201-53.124-.852.15-1.644.36-2.324.683-.785 7.403-2.4 13.933-6.561 18.436-1.66 1.798-3.669 3.918-6.835 3.278-2.649-.536-6.048-2.928-6.698-5.19-.662-2.303-.114-4.899.82-6.965 1.927-4.262 6.662-8.099 9.706-9.832.818-4.305 1.141-10.83-.137-14.886-4.52.327-6.814 3.63-8.749 7.101-1.083 1.944-2.598 4.342-2.87 6.283-.342 2.431-.19 4.732-.547 6.964-.327 2.038-.816 4.144-1.367 6.145-1.08 3.919-2.153 7.633-3.008 11.882-.795 3.95-1.476 8.065-3.007 11.88-.902 2.25-3.105 8.76-5.742 9.15-1.737.257-4.721-1.209-5.057-2.594-.334-1.38.763-3.587 1.093-5.053 1.097-4.863 1.984-10.503 2.735-15.296-2.695 3.948-4.594 9.5-7.655 14.067-.806 1.202-2.429 3.315-3.828 3.414-1.05.074-3.307-.964-4.238-1.503-5.105-2.952-5.664-11.556-4.647-18.845-2.254 5.454-3.804 11.665-7.109 15.568-.788.931-2.216 2.353-3.554 2.459-1.611.126-3.542-1.12-4.921-1.913-3.882-2.232-7.32-6.855-7.929-12.154-.371-3.234.34-7.102 1.094-10.788 1.83-8.943 5.405-19.687 11.893-23.353 1.806-1.02 5.238-1.233 7.382-.41.628.241 4.054 1.625 4.237 2.595.346 1.836-2.865 2.165-3.964 2.868-3.75 2.399-5.45 8.637-6.835 13.246-2.362 7.857-3.662 16.104-2.324 24.719 1.902-1.11 3.346-4.666 4.511-6.555.71-1.151 1.719-4.403 2.597-6.829 1.732-4.782 3.008-9.265 4.648-14.476.687-2.18 2.185-5.441 3.69-5.872 2.204-.63 7.269 1.985 7.93 3.552.868 2.059.278 5.951 0 8.466-.851 7.685-3.627 15.258-3.145 23.626"/>
        <path fill="#0D603D" d="M244.3 244.657c.303-1.924-.396.623-.136 1.365.113-.595.09-1.061.137-1.365zm25.016.683c.577-2.43 1.47-5.269 1.23-8.058.018 3.023-1.011 5.727-1.23 8.058zm-.683-8.877c-3.658.735-7.473 1.446-10.526 3.14-3.075 1.71-6.149 4.44-7.108 7.239-1.646 4.804.8 12.02 5.058 12.29 2.36.151 5.479-2.206 6.834-3.55 3.712-3.677 6.41-10.664 6.699-17.48.02-.474.338-1.544-.41-1.775-.249.017-.315.09-.547.136zm-84.479-29.771c1.6-6.504 4.773-12.164 7.791-16.797-3.605 4.5-6.514 10.425-7.791 16.797zm20.368-16.934c-6.402 2.397-8.415 9.394-10.526 16.934-2.071 7.398-2.932 16.117-.273 21.85 3.996-3.073 6.124-9.086 7.654-14.749.532-1.967 1.303-4.01 1.64-5.872.57-3.124.254-6.34.684-9.423.418-2.991 1.172-5.862.958-8.74h-.137zm-40.053 40.423c1.043-12.107 4.144-22.227 7.519-31.956 1.132-3.263 2.482-6.508 3.007-9.97-4.258 13.135-9.58 25.937-10.526 41.926zm57.413-36.463c1.228-3.098 3.35-6.03 4.922-8.33-2.143 2.185-4.075 5.307-4.922 8.33zm-72.586-21.85c-2.586 15.215-6.818 28.786-6.835 46.568 1.776-1.26 2.638-3.564 3.964-5.872.862-1.499 3.42-4.853 3.691-6.555.108-.68-.11-1.504-.137-2.185-.436-10.906.864-22.917 2.461-32.639h-.273c-.799.386-1.915.455-2.871.683zm-53.312-18.71c.403-.964 1.36-2.1 1.504-2.867-.492.876-1.523 1.937-1.504 2.868zm9.842 12.428c2.82.233 5.176.93 8.065 1.092.482-5.104 2.34-12.914-.137-17.206-8.416-1.464-12.269 10.998-7.928 16.114zm65.341-20.075c-4.692 2.686-6.033 8.721-7.655 14.476 3.735-3.098 8.034-7.541 7.93-14.476h-.275zm-11.345 52.577c1.752-4.36 4.48-8.763 7.108-12.7 1.625-2.434 2.864-5.65 7.382-5.053 1.69.224 3.858 1.159 5.33 2.049 2.092 1.261 3.798 3.593 3.965 6.145.303 4.62-1.607 9.433-2.87 13.246-3.836 11.577-9.113 24.385-9.433 38.649 2.667-4.846 5.275-11.43 7.655-17.48.794-2.019 2.161-4.227 2.46-6.01.15-.884-.047-1.77 0-2.731.266-5.326 1.816-10.353 3.692-14.886 1.829-4.42 4.048-8.688 6.97-11.471 2.919-2.778 9.397-3.847 13.26-.956 1.356-9.435 2.184-19.396 2.872-29.498 3.407-1.13 9.021 1.992 10.115 4.234 1.79 3.665.094 9.087-.273 13.11-.685 7.498-2.207 14.038-3.691 21.168-1.923 9.239-5.25 19.389-1.367 27.858 1.477-.527 1.847-2.37 2.597-3.96.597-1.263 2.103-3.2 2.188-4.643.067-1.15-.85-2.99-.957-4.37-.387-4.96.945-9.76 2.187-13.793 1.693-5.499 4.198-10.317 7.792-13.52 2.682-2.392 6.946-4.047 11.482-1.775.548.274 3.485 1.989 3.554 2.868.136 1.704-2.517 1.497-3.827 2.048-.72.303-1.816 1.111-2.46 1.775-3.05 3.142-5.188 8.49-6.699 13.93-1.537 5.532-2.838 12.035-.41 17.344 4.753-4.711 6.56-13.434 8.612-21.85.552-2.267.925-6.577 3.144-6.965 2.02-.353 6.576 2.298 7.108 3.55 1.44 3.389-1.217 9.91-2.187 13.247-1.624 5.59-3.413 11.273-1.23 16.387 1.699-1.224 2.818-3.554 4.1-5.735 1.119-1.902 2.76-4.287 3.281-6.419.477-1.952.338-4.298.684-6.554.998-6.52 3.452-15.13 2.734-21.031 4.274.079 8.563 2.86 9.022 6.964.57 5.09-.876 10.78-1.913 16.115-.496 2.546-.814 5.286-1.231 7.784-.4 2.399-1.474 5.419.547 7.238 2.731-1.446 4.361-4.725 6.014-7.648 1.658-2.93 3.203-6.163 3.69-9.969 1.01-7.865 1.506-16.738 1.231-25.81 3.156.148 6.928-.05 8.75 2.048 1.65 1.901 1.25 8.507 1.23 12.29-.071 13.028-1.344 26.577-3.144 37.146 1.846.786 4.491 1.339 7.244 2.185 2.047.63 5.57 1.593 6.288 3.141.828 1.785.122 4.643-.683 6.555-3.012.14-4.772-1.69-6.835-2.731-2.101-1.06-4.26-1.929-6.971-2.595-1.918 8.148-4.333 16.038-9.706 21.032-2.762 2.566-6.408 4.712-11.073 4.097-3.968-.524-7.977-2.087-10.525-4.78-2.67-2.821-4.74-8.182-3.418-13.247.723-2.767 2.649-5.65 4.511-7.511 4.891-4.886 12.677-7.695 22.145-7.375.312-3.132.264-6.997.137-9.832-1.817 1.886-2.551 6.004-6.151 6.282-2.506.193-5.683-1.652-7.656-3.141-1.455-1.1-2.568-2.564-3.417-3.825-1.006 1.525-1.897 3.143-3.007 4.917-.912 1.456-1.946 3.746-3.828 3.96-1.595.182-4.977-1.499-6.151-2.458-1.974-1.612-3.245-3.879-4.101-6.282-1.554 1.63-2.703 6.252-5.741 6.418-1.602.089-5.312-2.08-6.562-3.004-.87-.643-1.686-1.66-2.46-2.321-1.889 2.373-1.996 7.363-5.332 7.92-1.769.296-4.831-.98-6.425-2.184-2.135-1.616-3.158-3.713-4.51-5.873-1.027 2.274-1.802 4.638-3.144 6.965-1.136 1.968-3.036 5.28-5.605 5.463-2.295.162-6.061-1.598-7.656-2.732-2.136-1.519-3.604-3.653-4.647-5.599-2.695 5.818-4.65 12.15-7.519 18.3-.803 1.724-1.884 4.564-3.553 4.916-1.16.244-3.247-.376-4.238-.82-5.224-2.334-5.813-11.358-4.922-19.119 1.234-10.735 3.916-20.263 6.835-28.951 1.578-4.694 3.77-9.1 4.238-13.656-3.526 2.563-6.166 6.747-8.475 11.335-1.06 2.105-2.085 4.39-3.007 7.1-.808 2.374-2.243 5.21-2.46 7.512-.387 4.079 1.367 8.085.409 12.29-6.154.892-10.694-2.137-10.389-8.603-1.08 1.32-1.874 3.596-3.007 5.6-.948 1.674-2.412 4.07-4.511 4.232-1.665.13-5.548-1.796-6.835-2.594-4.187-2.597-3.915-9.978-2.87-16.114-1.187 1.963-2.345 4.89-3.692 7.51-1.01 1.966-2.88 5.875-5.194 6.146-1.683.197-3.952-1.094-5.058-1.775-3.904-2.405-6.814-6.43-6.288-12.7.985-11.76 9.142-21.109 12.85-29.772-2.314-1.103-5.581-1.253-8.476-1.775-2.106 12.606-4.703 24.442-8.885 35.507-1.089 2.88-3.026 8.384-6.015 8.74-1.599.19-3.526-.862-4.511-1.503-8.901-5.79-1.288-24.13-1.23-34.414 4.2-.103 8.594 1.567 8.885 6.146.505 7.933-5.17 16.801-3.827 24.854 3.276-4.916 5.271-11.57 7.108-18.3 1.857-6.804 2.892-14.29 4.1-21.577-6.454-.627-12.081-2.84-15.993-6.145-1.725-1.458-3.589-3.771-3.69-6.555-.3-8.215 7.38-16.305 15.173-16.388 3.145-.034 6.579 1.573 8.338 3.824 3.3 4.22 1.972 13.625 1.23 20.075 3.33.932 6.489 1.855 9.57 3.414 2.253 1.14 6.624 3.148 7.245 5.599.597 2.36-1.773 5.429-3.008 7.648-3.63 6.522-8.128 14.98-9.295 23.216-.366 2.582-.026 4.786.683 7.238 2.56-2.1 4.071-5.487 5.605-8.74 4.534-9.619 9.022-20.288 10.116-33.459-3.035-.474-6.223-1.673-9.159-2.73-2.968-1.07-6.716-2.21-7.382-4.371-.57-1.849.979-5.5 2.324-5.6 1.217-.089 2.32 2.157 3.144 2.868 2.884 2.49 6.548 4.712 11.483 5.053 1.003-3.23.936-7.531 1.23-11.471 7.151-1.482 10.311 4.487 9.295 11.198.998.13 2.315-.6 3.418-.819.873-4.18 2.13-8.763 3.964-12.837 2.043-4.54 4.24-9.673 8.202-11.745 4.116-2.152 9.88 1.53 9.158 6.282-1.238 8.157-7.866 14.484-12.85 18.71-1.382 9.704-2.37 20.449-2.05 31.41zM68.78 228.542c2.964-2.75 5.838-5.426 7.656-9.15 2.47-5.057 4.44-11.046 3.827-18.982-.204-2.65-.78-6.003-2.323-7.238-1.345-1.075-4.613-1.615-6.699-1.775-1.244-.096-2.725-.101-3.827 0-2.32.212-4.948.856-6.835 1.639-1.332.552-2.374 1.821-3.554 2.594-1.378.903-2.864 1.337-3.828 2.458-3.577 12.541-4.92 27.315-6.56 41.789 8.849-1.611 16.064-5.691 22.144-11.335m-1.23-69.238c-4.27 8.435-7.98 17.429-11.073 27.04 1.136-.33 1.881-1.202 3.007-1.776 1.211-.616 2.685-.747 3.828-1.365 1.135-.614 2.572-2.541 3.554-3.96 3.564-5.15 6.9-11.625 6.425-19.53-1.551-.352-4.008-1.136-5.741-.409m5.467 22.806c4.337.704 7.804 2.293 10.8 4.78 4.564 3.79 8.644 7.902 9.158 15.568.46 6.85-2.303 13.43-4.784 17.754-2.608 4.547-6.304 8.288-10.252 12.154-3.8 3.72-8.36 6.99-13.123 9.286-5.03 2.426-11.896 4.177-18.728 3.688-4.477-.32-8.26-2.253-11.346-4.917-2.275-1.964-5.222-6.009-5.74-10.788-.257-2.352.365-4.59 1.776-4.916 1.695-.394 5.14 1.613 5.741 2.594.578.944.335 2.256.547 3.55.281 1.717.82 3.197 1.503 4.234-1.911-6.92-.883-14.198.274-20.758 3.462-19.641 9.862-36.855 17.907-51.757-4.081 2.403-7.251 6.503-9.978 10.788-2.748 4.316-4.869 9.497-6.152 14.886-.298 1.25-.084 2.914-1.23 3.687-2.626-.346-5.057-1.944-6.835-3.55-1.218-1.1-2.71-2.834-2.87-4.917-.29-3.728 3.289-8.916 4.783-11.335.995-1.608 2.153-3.222 3.418-4.643 1.255-1.41 2.41-2.955 3.691-4.234 2.723-2.72 5.973-4.932 9.159-6.828 4.247-2.528 9.864-4.718 16.54-4.097 5.684.53 10.484 4.677 12.713 8.33 1.071 1.756 1.832 4.597 1.64 6.965-.55 6.815-4.97 9.975-8.612 14.476"/>
        <path fill="#00583D" d="M173.762 55.552l3.492-7.052 3 5.774c2.222-.404 4.425-.77 6.623-1.126l.964-.154.489 5.312-.539.286c-.637.338-1.727.956-2.977 1.695a157.896 157.896 0 0 1 11.9-2.625l-19.575-36.4-20.688 39.074c6.157-2.115 11.847-3.61 17.31-4.784M186.36 66.112l5.775 11.463h14.933l-7.49-14.366c-4.504.74-8.993 1.746-13.217 2.903"/>
        <g transform="translate(147.248 62.634)">
            <mask id="b" fill="#fff">
                <use xlink:href="#a"/>
            </mask>
            <path fill="#00583D" d="M18.301 5.076l.55-.474c.856-.732 2.157-1.745 3.636-2.837l.807-1.603C17.596 1.612 11.52 3.43 4.887 6.013L.08 14.941h15.772l3.75-7.45-1.302-2.415z" mask="url(#b)"/>
        </g>
        <path fill="#00583D" d="M209.216 75.585h-.415v.446h.415c.143 0 .252-.068.252-.222 0-.149-.109-.224-.252-.224m.188.678l.323.633h-.316l-.306-.606h-.304v.606h-.266v-1.57h.689c.28 0 .515.148.515.474 0 .247-.132.401-.335.463m-.323-1.331c-.686 0-1.207.522-1.207 1.206 0 .685.52 1.208 1.207 1.208.686 0 1.207-.523 1.207-1.208 0-.684-.521-1.206-1.207-1.206m0 2.643c-.817 0-1.438-.62-1.438-1.437a1.41 1.41 0 0 1 1.438-1.437c.816 0 1.438.621 1.438 1.437 0 .817-.622 1.437-1.438 1.437"/>
        <g transform="translate(138.62 54.015)">
            <mask id="d" fill="#fff">
                <use xlink:href="#c"/>
            </mask>
            <path fill="#E21837" d="M75.865 2.98c-10.81.08-24.737 2.818-35.915 6.331 2.891-1.827 7.17-4.415 8.77-5.257L48.37.276C34 2.61 19.451 5.542 0 14.99l1.857 3.858c14.3-7.068 26.012-10.264 36.65-12.693-3.467 2.164-8.525 5.924-10.675 7.802l2.02 3.826c11.156-5.42 30.5-10.367 45.801-10.474l.212-4.33z" mask="url(#d)"/>
        </g>
    </g>
</svg>
