<svg xmlns="http://www.w3.org/2000/svg" width="130" height="130" viewBox="0 0 130 130">
    <g fill="none" fill-rule="evenodd">
        <circle cx="65" cy="65" r="62.5" fill="#F8E71C" stroke="#CABC13" stroke-width="5"/>
        <path fill="#4F4F4D" d="M92.414 34A3.597 3.597 0 0 1 96 37.586v38.56a3.598 3.598 0 0 1-3.586 3.588H66.807l-26.888 20.708 3.043-20.708h-6.376A3.598 3.598 0 0 1 33 76.147V37.586A3.597 3.597 0 0 1 36.586 34h55.828zm-1.04 40.737v-35.74H37.625v35.74h9.341l-2.589 17.625 22.886-17.625h24.11z"/>
        <g fill="#4A4A4A">
            <path d="M64.017 56.408l1.443 2.76c1.124-.202 2.237-.388 3.348-.565l.608-.095.26 2.838-.335.18a30 30 0 0 0-.764.421 79.874 79.874 0 0 1 5.112-1.092l-9.732-17.987L53.69 62.142a75.216 75.216 0 0 1 8.647-2.363l1.68-3.37zM58.293 65.472a36.266 36.266 0 0 1 1.982-1.556l.214-.43c-2.53.65-5.57 1.542-9.076 2.93l-2.28 4.281h7.763l1.782-3.576-.724-1.353.34-.296zM68.629 65.232l2.855 5.466h7.531l-3.718-6.872a68.088 68.088 0 0 0-6.668 1.406"/>
            <path d="M64.706 63.608c1.442-.9 3.57-2.171 4.368-2.587L68.9 59.16c-7.157 1.148-14.399 2.593-24.086 7.246l.924 1.896c7.124-3.476 12.952-5.052 18.251-6.245-1.724 1.063-4.247 2.915-5.316 3.841l1.006 1.884c5.56-2.67 15.187-5.104 22.81-5.158l.102-2.131c-5.378.039-12.318 1.388-17.884 3.115M80.358 69.743h-.199v.21h.199c.067 0 .121-.031.121-.106 0-.07-.054-.104-.121-.104m.087.319l.158.3h-.15l-.146-.286h-.148v.286h-.128v-.743h.331c.136 0 .246.07.246.225 0 .116-.064.19-.163.218m-.154-.63a.566.566 0 0 0-.577.574c0 .324.253.57.577.57.33 0 .58-.246.58-.57a.565.565 0 0 0-.58-.574m0 1.255a.673.673 0 0 1-.686-.681c0-.39.297-.684.686-.684.394 0 .691.294.691.684a.674.674 0 0 1-.691.681"/>
        </g>
    </g>
</svg>
