<svg xmlns="http://www.w3.org/2000/svg" width="95" height="94" viewBox="0 0 95 94">
    <g fill="none" fill-rule="evenodd">
        <circle cx="47.02" cy="47.02" r="45.22" fill="#F8E71C" stroke="#CABC13" stroke-width="3.6" transform="translate(.41)"/>
        <g fill="#4F4F4D">
            <path d="M43.525 44.462c.924-9.065 7.053-15.858 15.768-15.858 9.422 0 15.789 7.925 15.789 18.171v.101c0 10.247-6.367 18.273-15.89 18.273-5.826 0-10.432-2.965-13.13-7.613-1.767 4.761-6.41 7.613-12.766 7.613-5.704 0-9.88-2.02-13.344-5.3l4.737-5.603c2.7 2.423 5.348 3.836 8.505 3.836 3.667 0 5.96-1.767 5.96-4.896v-.101c0-3.029-2.598-4.795-6.316-4.795-2.241 0-4.278.605-5.96 1.312l-4.532-2.978 1.019-17.414h21.9v6.814H30.088l-.408 6.108c1.426-.354 2.7-.606 4.686-.606 3.631 0 6.885.916 9.159 2.936zm15.768 13.67c4.737 0 7.742-4.744 7.742-11.155v-.1c0-6.411-3.158-11.257-7.844-11.257-4.685 0-7.741 4.694-7.741 11.155v.101c0 6.461 3.107 11.256 7.843 11.256z"/>
            <path d="M53.709 48.419v-.968l-.951-1.486h.636l.59.985.602-.985h.62l-.952 1.476v.978h-.545zm1.906 0v-2.454h1.868v.48h-1.326v.498h1.167v.48h-1.167v.515H57.5v.48h-1.886zm2.229 0l1.06-2.472h.503l1.06 2.472h-.569l-.226-.55h-1.047l-.226.55h-.555zm.976-1.027h.658l-.33-.796-.328.796zm2.1 1.027v-2.454h1.132c.315 0 .56.088.722.249.138.137.212.33.212.56v.008c0 .396-.216.645-.53.76l.604.877h-.636l-.53-.786h-.429v.786h-.544zm.545-1.262h.552c.265 0 .417-.14.417-.347v-.007c0-.232-.162-.35-.428-.35h-.54v.704zm2.964 1.297c-.375 0-.753-.13-1.05-.393l.322-.382c.222.182.456.298.739.298.223 0 .357-.088.357-.231v-.007c0-.137-.085-.207-.499-.312-.498-.127-.82-.263-.82-.75v-.008c0-.445.36-.74.866-.74.361 0 .669.113.92.313l-.283.406c-.22-.15-.435-.241-.644-.241-.208 0-.318.094-.318.213v.007c0 .162.106.214.534.323.502.13.785.308.785.736v.007c0 .487-.375.76-.909.76z"/>
        </g>
    </g>
</svg>
