<svg xmlns="http://www.w3.org/2000/svg" width="95" height="94" viewBox="0 0 95 94">
    <g fill="none" fill-rule="evenodd">
        <circle cx="47.02" cy="47.02" r="45.22" fill="#F8E71C" stroke="#CABC13" stroke-width="3.6" transform="translate(.61)"/>
        <path fill="#4F4F4D" d="M47.313 26.716l.2-.211c.68-.785 1.008-1.47 1.056-2.06.026-.373-.055-.759-.309-1.187a4.1 4.1 0 0 0-.744-.889l-.116-.1-.145.146c-.901.918-1.168 1.667-1.143 2.247.023.549.313 1.178 1.008 1.878m1.295 8.09c.177 0 .322-.026.444-.055l-.003-5.021a1.418 1.418 0 0 0-.441-.062h-2.167c-.184 0-.326.023-.441.052v5.02c.115.036.257.066.44.066m.85 4.34c3.552 0 6.73-.468 8.987-1.2 1.137-.37 1.984-.786 2.522-1.2.56-.429.65-.734.65-.88 0-.298-.444-1.005-2.25-1.741-1.253-.506-2.921-.928-4.856-1.197l-1.327-.143v2.277c0 .584-.354.986-.644 1.197-.476.357-1.137.515-1.764.515h-2.167c-.625 0-1.292-.158-1.768-.515-.29-.211-.644-.613-.644-1.197v-2.322l-1.623.165c-1.983.263-3.683.684-4.965 1.197-.86.344-1.475.707-1.861 1.054-.386.35-.45.587-.45.71 0 .146.09.451.646.88.541.414 1.388.83 2.525 1.2 2.257.732 5.435 1.2 8.99 1.2m1.468 5.13c.064-.074.167-.145.306-.262.254-.224.538-.513.85-.805.312-.288.702-.629 1.143-.862.46-.244 1.043-.412 1.694-.247.029.01.06.016.087.023.405.123.81.402 1.085.603.3.218.64.493.95.723.782.581 1.072.61 1.143.61 0 0 .01-.006.029-.026.086-.084.173-.246.28-.785.042-.207.093-.506.17-.778.078-.285.206-.62.438-.93.676-.912 1.552-1.036 1.98-1.117.235-.042.316-.071.37-.1.02-.013.081-.046.162-.205l.003-.006v-1.44l-.11.071c-.692.415-1.532.775-2.46 1.077-2.498.808-5.892 1.297-9.588 1.297-3.7 0-7.09-.49-9.59-1.297-.933-.302-1.77-.662-2.466-1.077l-.109-.071v1.262l.058-.004c.28-.01.634.026 1.014.218.364.181.606.46.757.752.16.308.225.636.26.899.036.262.046.538.055.759.007.24.017.424.036.587a.784.784 0 0 0 .045.22l.058.059c.077.055.106.055.093.051-.003 0 .045.01.193-.068.165-.078.332-.191.593-.363.229-.156.54-.357.892-.5a2.33 2.33 0 0 1 1.31-.171c.532.09.928.33 1.23.606.27.25.5.555.628.714.261.32.406.464.812.464.235 0 .454-.114.885-.503.174-.156.438-.409.68-.597.257-.201.614-.435 1.065-.512.197-.04.403-.043.615-.017.718.104 1.336.597 1.913 1.301l.045.052c.084.068.16.15.229.25.025.035.048.071.067.09m.071.49l-.058-.253-.151.247m.106.522l.042-.081a.765.765 0 0 0 .064-.172l.023-.146-.02-.09-.225-.014-.267.435m-9.457 2.471V44.86l-.229.139c-.315.156-.73.308-1.217.266a1.909 1.909 0 0 1-.196-.03c-.457-.084-.857-.33-1.201-.674a1.853 1.853 0 0 1-.322-.45 2.815 2.815 0 0 1-.258-.893 9.915 9.915 0 0 1-.048-.759c-.01-.24-.016-.425-.039-.583a.406.406 0 0 0-.025-.104l-.078-.04-.048.004v3.506c0 .143.093.451.65.88.541.418 1.388.833 2.525 1.2l.483.132m15.178.445l.457-.078c.67-.15 1.292-.312 1.855-.5 1.137-.366 1.984-.781 2.525-1.2.56-.428.65-.736.65-.879v-3.1l-.17.038c-.265.052-.384.075-.503.124a.707.707 0 0 0-.28.24.95.95 0 0 0-.122.288c-.046.176-.078.357-.133.623-.086.435-.238 1.226-.82 1.8a1.92 1.92 0 0 1-.989.551c-.586.127-1.13-.035-1.549-.226l-.92-.568m-8.263 3.46l-.016-.08v-3.743l-.338.298c-.428.386-1.153 1.002-2.186 1.002-1.253 0-1.897-.661-2.319-1.18l-.1-.114v3.266l1.565.28c.76.1 1.565.184 2.396.24m2.914.074l2.257-.075 2.135-.217v-4.307l-.09.029c-.161.09-.374.256-.677.535-.273.256-.598.584-.908.853-.302.26-.74.594-1.259.71a1.722 1.722 0 0 1-1.346-.224l-.09-.07v2.643m-.347 7.09c5.863 0 11.13-.772 14.904-1.995 3.974-1.29 5.622-2.854 5.622-3.999 0-.597-.444-1.398-1.796-2.274-.982-.639-2.325-1.239-3.97-1.764l-.65-.185-.1.684c-.461 1.567-2.425 2.598-4.425 3.247-2.498.81-5.889 1.294-9.589 1.294-3.696 0-7.086-.483-9.585-1.294-2.006-.649-3.97-1.687-4.427-3.247l-.1-.684-.647.188c-1.649.522-2.992 1.122-3.97 1.761-1.35.88-1.797 1.677-1.797 2.274 0 1.138 1.639 2.705 5.625 4 3.77 1.222 9.041 1.994 14.905 1.994m2.08 8.242c.521.019.917-.14 1.284-.422.393-.302.741-.743 1.121-1.291.37-.545.744-1.161 1.162-1.67.425-.516 1.021-1.08 1.855-1.236 1.423-.26 2.373.14 3.133.814.634.568 1.03 1.21 1.639 1.716.116.1.203.155.26.181l.065.03c.058-.052.161-.153.31-.396.183-.302.363-.691.563-1.155.29-.658.846-2.066 1.664-2.685.248-.185.522-.325.821-.4.184-.038.367-.051.545-.042.534.026.982.276 1.297.503.322.224.631.513.87.733.473.435.734.604.93.662.084-.097.206-.311.348-.727.154-.434.306-1.015.483-1.372l.096-.123v-3.96l-.11.097c-1.268.976-3.013 1.761-4.913 2.378-4.012 1.307-9.495 2.092-15.503 2.092-6.012 0-11.492-.785-15.504-2.092-1.89-.61-3.638-1.398-4.91-2.375l-.116-.103v4.904l.029.08.01.082.144-.107c.097-.071.2-.15.32-.24.395-.286 1.084-.769 1.899-.769.647 0 1.165.28 1.536.691.335.38.528.843.657 1.233.235.733.334 1.543.495 1.94.068.174.13.291.18.366l.01.01.02.016.083.103.068.007c.196-.01.535-.16 1.262-.626.441-.289 1.291-.873 2.035-1.077.937-.256 1.91-.013 2.58 1.035 1.014 1.589 1.667 1.972 2.08 2.004.424.03 1.104-.26 2.302-1.563.408-.445.856-.818 1.365-.976a1.723 1.723 0 0 1 1.41.165c.78.457 1.185 1.42 1.855 2.28.544.707 1.185 1.242 2.27 1.285m-18.975 4.644v-6.247l-.36-.694c-.245-.61-.345-1.456-.545-2.066-.096-.295-.18-.45-.244-.522-.033-.033-.036-.039-.084-.039-.09 0-.3.065-.754.396-.499.363-.888.713-1.375.885l-.273.062v4.988c0 .853.92 1.946 3.065 2.984m33.332.668l.428-.152c2.992-1.184 4.231-2.5 4.231-3.5v-4.317l-.248.14c-.177.068-.37.107-.586.107-.56 0-1.03-.214-1.394-.448a6.755 6.755 0 0 1-.94-.75c-.28-.255-.483-.444-.683-.583-.148-.104-.231-.136-.283-.143a.263.263 0 0 0-.08.046c-.107.08-.264.272-.467.648l-.042.085.064.318m-25.52 10.103v-7.051l.01-.098c-.423-.45-.822-.992-1.205-1.595-.126-.192-.2-.214-.206-.214-.007-.007-.061-.026-.216.016-.167.045-.37.14-.64.295-.268.152-.538.334-.854.538-.505.325-1.32.87-2.164.934h-.016v5.952l.039.013c.94.305 1.977.584 3.091.83l2.157.38m17.481.289l.412-.043a42.71 42.71 0 0 0 5.187-1.018l.49-.143v-6.136l-.139.126c-.119.091-.241.169-.386.234-.31.142-.654.204-1.02.159-.5-.065-.95-.325-1.35-.659-.724-.606-1.214-1.336-1.677-1.755a1.555 1.555 0 0 0-.574-.34c-.196-.055-.48-.088-.91-.01l-.13.065.016.02c.049.116.081.25.081.379m-9.66 9.558v-7.557l-.383-.535-.386-.587a3.919 3.919 0 0 0-.303-.402l-.11-.055c-.083.097-.205.2-.366.382-1.185 1.282-2.448 2.297-3.884 2.186l-.431-.074v6.218l3.426.343 2.434.081m1.945.059l4.163-.14 1.597-.159v-7.395l-.476.63c-.783.908-1.826 1.693-3.381 1.634a4.621 4.621 0 0 1-1.81-.421l-.083-.046v5.838m-.116 2.03c-6.012 0-11.492-.79-15.504-2.091-3.78-1.226-6.984-3.16-6.984-5.87v-15.58l.007-.015-.007-.049c0-2.712 3.178-4.667 7.213-5.939l1.156-.327v-7.493l.003-.02v-.019c0-1.634 1.565-2.799 3.545-3.597 1.465-.584 3.332-1.034 5.441-1.317l1.868-.191v-1.356c0-.58.35-.976.64-1.193.239-.179.526-.308.831-.39l.178-.022-.545-.652c-.46-.678-.747-1.418-.782-2.225-.068-1.632.911-3.137 2.592-4.522a.962.962 0 0 1 1.188-.039c1.784 1.291 2.702 2.754 2.58 4.405-.059.782-.352 1.525-.793 2.222l-.605.801.235.032c.302.082.59.211.83.39.287.217.638.613.638 1.193v1.401l1.578.17c2.07.288 3.902.742 5.335 1.329 1.929.778 3.474 1.933 3.474 3.561l-.032.195.032.143v7.194l1.153.324c4.028 1.271 7.216 3.234 7.216 5.942l-.03.402.03.143V65.13c0 2.712-3.178 4.638-6.978 5.87-4.012 1.301-9.495 2.093-15.503 2.093"/>
    </g>
</svg>
