<svg xmlns="http://www.w3.org/2000/svg" width="70" height="70" viewBox="0 0 70 70">
    <g fill="none" fill-rule="evenodd" transform="translate(2 2)">
        <path fill="#09CA78" d="M16.553 33.496c-.765.76-.723 2.28.042 3.02l9.328 8.899c.786.76 2.359.78 3.166.06l1.488-1.34 3.208-2.9L49.38 27.237c.807-.72.829-2.2.042-2.94l-1.806-1.74c-.786-.74-2.358-.74-3.144-.02L29.217 36.876c-.787.74-2.359.72-3.124-.02l-5.078-4.82c-.765-.76-2.295-.74-3.06.04l-1.402 1.42z"/>
        <circle cx="33" cy="33" r="33" stroke="#9B9B9B" stroke-width="4"/>
    </g>
</svg>
