<svg xmlns="http://www.w3.org/2000/svg" width="302" height="300" viewBox="0 0 302 300">
    <defs>
        <linearGradient id="a" x1="24.975%" x2="84.674%" y1="99.653%" y2="-10.785%">
            <stop offset="0%" stop-color="#FFF33B"/>
            <stop offset="4%" stop-color="#FEE72E"/>
            <stop offset="12%" stop-color="#FED51B"/>
            <stop offset="20%" stop-color="#FDCA10"/>
            <stop offset="28%" stop-color="#FDC70C"/>
            <stop offset="45%" stop-color="#FFF"/>
            <stop offset="67%" stop-color="#F8B019"/>
            <stop offset="100%" stop-color="#FFF"/>
        </linearGradient>
        <radialGradient id="b" cx="50.004%" cy="49.99%" fx="50.004%" fy="49.99%">
            <stop offset="0%" stop-color="#414042"/>
            <stop offset="72%" stop-color="#403F41"/>
            <stop offset="94%" stop-color="#231F20"/>
        </radialGradient>
        <linearGradient id="c" x1="50%" x2="50%" y1=".001%" y2="99.997%">
            <stop offset="0%" stop-color="#E2D565"/>
            <stop offset="12%" stop-color="#E2D562"/>
            <stop offset="22%" stop-color="#E4D458"/>
            <stop offset="31%" stop-color="#E6D347"/>
            <stop offset="39%" stop-color="#EAD12F"/>
            <stop offset="47%" stop-color="#EFCE11"/>
            <stop offset="51%" stop-color="#F1CD00"/>
            <stop offset="100%" stop-color="#A27B41"/>
        </linearGradient>
        <linearGradient id="d" x1="49.988%" x2="49.988%" y1="100.237%" y2="-.223%">
            <stop offset="0%" stop-color="#FFF33B"/>
            <stop offset="4%" stop-color="#FEE72E"/>
            <stop offset="12%" stop-color="#FED51B"/>
            <stop offset="20%" stop-color="#FDCA10"/>
            <stop offset="28%" stop-color="#FDC70C"/>
            <stop offset="67%" stop-color="#F8B019"/>
            <stop offset="100%" stop-color="#FFF"/>
        </linearGradient>
    </defs>
    <g fill="none" fill-rule="evenodd">
        <path fill="url(#a)" fill-rule="nonzero" d="M223.379 280.961c-3.851-1.337-10.135-3.121-18.647-5.29-1.034-.263-1.034-.263-1.014-.446a.223.223 0 0 1 .203-.182c59.11-25.375 92.337-88.711 79.62-151.767C270.827 60.219 215.649 14.71 151.325 14.228h-1.074C85.93 14.22 30.405 59.285 17.178 122.23 3.95 185.175 36.642 248.777 95.525 274.658c0 0 .122 0 .142.162.02.162 0 .162-.689.345-11.148 2.736-16.54 4.337-19.093 5.209C16.901 246.626-12.023 177.437 5.393 111.75 22.809 46.063 82.213.294 150.169.203h1.176c68.006.509 127.158 46.711 144.122 112.57 16.964 65.858-12.507 134.888-71.805 168.188H223.38z"/>
        <path fill="#F7941D" fill-rule="nonzero" d="M150.169.405h1.176c67.91.526 126.967 46.681 143.884 112.453 16.917 65.772-12.54 134.694-71.77 167.92-6.951-2.431-19.62-5.532-19.538-5.532h.122c59.104-25.48 92.29-88.87 79.555-151.96s-67.913-108.643-132.274-109.2h-1.074C85.852 14.12 30.284 59.265 17.06 122.29 3.836 185.314 36.572 248.986 95.525 274.9c0 0-13.255 3.182-19.66 5.33C16.993 246.497-11.842 177.396 5.588 111.82 23.018 46.244 82.358.58 150.21.527l-.041-.122zm.04-.283C82.23.246 22.81 46.024 5.352 111.725c-17.459 65.702 11.399 134.937 70.352 168.79h.344c2.554-.85 7.925-2.452 19.053-5.188.75-.183.912-.223.871-.588a.426.426 0 0 0-.324-.345C36.97 248.457 4.45 184.997 17.663 122.22 30.876 59.442 86.219 14.475 150.372 14.391h1.074c64.139.597 119.113 45.99 131.835 108.857 12.722 62.867-20.277 126.063-79.137 151.552a.426.426 0 0 0-.405.365c0 .344 0 .364 1.155.648 8.513 2.169 14.796 3.953 18.647 5.31h.142a.385.385 0 0 0 .202 0c59.416-33.342 88.939-102.507 71.916-168.477C278.778 46.675 219.475.43 151.345 0l-1.135.122z"/>
        <path fill="#FFF" fill-rule="nonzero" d="M151.06 3.628l1.197 2.412 2.675.385-1.946 1.885.466 2.655-2.391-1.256-2.392 1.256.466-2.655-1.945-1.885 2.675-.385zM138.271 4.114l1.42 2.311 2.695.142-1.763 2.047.668 2.615-2.472-1.034-2.27 1.46.223-2.696-2.088-1.703 2.615-.628zM125.604 5.716l1.58 2.189 2.696-.081-1.56 2.189.912 2.533-2.574-.83-2.129 1.661-.02-2.696-2.23-1.52 2.554-.85zM113.098 8.432l1.784 2.027 2.675-.325-1.378 2.331 1.135 2.453-2.635-.608-1.986 1.824-.244-2.676-2.35-1.317 2.472-1.074zM100.876 12.222l1.966 1.865 2.635-.568-1.176 2.432 1.338 2.351-2.675-.364-1.804 2.006-.487-2.655-2.452-1.115 2.371-1.277zM89.04 17.046l2.107 1.682 2.595-.77-.953 2.533 1.52 2.21-2.696-.142-1.621 2.169-.71-2.615-2.553-.892 2.27-1.48zM77.669 22.903l2.25 1.5 2.513-1.013-.73 2.594 1.723 2.088-2.696.101-1.439 2.29-.932-2.533-2.615-.669 2.108-1.682zM66.866 29.714l2.35 1.297 2.413-1.216-.507 2.655 1.905 1.905-2.675.345-1.237 2.391-1.155-2.432-2.655-.426 1.966-1.864zM56.67 37.456l2.473 1.074 2.29-1.418-.263 2.695 2.068 1.743-2.635.568-1.034 2.493-1.358-2.331-2.696-.203 1.804-2.006zM47.205 46.03l2.554.871 2.169-1.621-.04 2.716 2.209 1.56-2.575.79-.81 2.575-1.561-2.21-2.696.041 1.622-2.169zM222.994 277.475l-2.25-1.5-2.493 1.014.73-2.615-1.723-2.067 2.695-.102 1.44-2.29.932 2.534 2.614.668-2.128 1.662zM233.817 270.665l-2.371-1.297-2.412 1.216.506-2.655-1.905-1.926 2.675-.324 1.237-2.412 1.155 2.452 2.676.426-1.966 1.845zM243.992 262.922l-2.473-1.074-2.29 1.419.263-2.696-2.047-1.743 2.635-.567 1.013-2.493 1.358 2.33 2.696.203-1.804 2.007zM253.457 254.329l-2.554-.852-2.148 1.602.02-2.696-2.189-1.56 2.574-.791.79-2.574 1.561 2.189 2.696-.02-1.601 2.148zM262.152 244.944l-2.635-.628-2.006 1.784-.203-2.676-2.33-1.378 2.492-1.014.588-2.634 1.743 2.067 2.676-.284-1.42 2.31zM269.976 234.85l-2.655-.405-1.865 1.966-.426-2.675-2.432-1.155 2.392-1.237.344-2.675 1.906 1.905 2.655-.507-1.216 2.412zM289.17 100.734l-1.865 1.946.548 2.655-2.433-1.175-2.33 1.337.344-2.675-1.986-1.824 2.655-.466 1.115-2.473 1.277 2.391zM270.807 66.703l-1.297 2.372 1.216 2.412-2.655-.507-1.906 1.905-.344-2.675-2.392-1.236 2.432-1.156.426-2.655 1.865 1.966zM263.085 56.529L261.99 59l1.419 2.29-2.676-.263-1.743 2.047-.587-2.634-2.493-1.014 2.33-1.358.203-2.696 2.007 1.804zM254.49 47.063l-.87 2.554 1.62 2.169-2.715-.04-1.54 2.188-.811-2.574-2.575-.79 2.21-1.56-.04-2.697 2.168 1.602zM245.106 38.368l-.648 2.635 1.804 2.007-2.696.202-1.358 2.331-1.013-2.493-2.656-.588 2.068-1.743-.264-2.675 2.29 1.419zM234.992 30.545l-.405 2.655 1.966 1.864-2.675.426-1.135 2.432-1.237-2.391-2.675-.345 1.885-1.905-.507-2.655 2.412 1.216zM224.25 23.613l-.182 2.695 2.128 1.662-2.615.67-.952 2.533-1.44-2.27-2.695-.122 1.743-2.067-.75-2.595 2.513.994zM212.94 17.654l.04 2.696 2.271 1.48-2.554.89-.71 2.616-1.641-2.149-2.675.122 1.52-2.21-.953-2.533 2.594.77zM201.144 12.708l.304 2.676 2.372 1.277-2.473 1.114-.466 2.656-1.824-2.007-2.676.365 1.338-2.331-1.176-2.432 2.655.547zM188.963 8.797l.527 2.655 2.493 1.054-2.372 1.317-.243 2.696-1.986-1.824-2.615.587 1.115-2.452-1.378-2.31 2.695.303zM176.498 5.98l.75 2.573 2.574.852-2.23 1.52-.02 2.695-2.128-1.641-2.574.81.912-2.533-1.581-2.19 2.696.082zM163.83 4.236l.973 2.513 2.635.629-2.088 1.702.223 2.696-2.27-1.46-2.493 1.034.69-2.614-1.764-2.027 2.695-.162zM37.983 55.414l2.635.649 2.007-1.804.202 2.695 2.331 1.358-2.493 1.034-.588 2.635-1.743-2.067-2.675.283 1.419-2.31zM30.16 65.528l2.655.405 1.864-1.966.426 2.676 2.432 1.155-2.391 1.216-.345 2.696-1.905-1.905-2.655.506 1.216-2.412zM23.228 76.27l2.695.183 1.683-2.129.648 2.635 2.534.933-2.27 1.439-.122 2.695-2.067-1.722-2.595.73.994-2.514zM17.269 87.6l2.695-.06 1.48-2.27.892 2.553 2.614.71-2.148 1.641.122 2.676-2.21-1.52-2.533.952.79-2.594zM12.323 99.376L15 99.092l1.277-2.391 1.114 2.473 2.656.466-2.007 1.824.365 2.675-2.331-1.337-2.432 1.175.547-2.655zM8.411 111.558l2.656-.527 1.054-2.473 1.317 2.351 2.696.243-1.824 1.987.587 2.634-2.452-1.135-2.31 1.379.303-2.676zM5.594 124.023l2.574-.75.851-2.574 1.52 2.23 2.696.02-1.641 2.128.81 2.574-2.533-.912-2.19 1.58.082-2.695zM3.851 136.69l2.513-.972.629-2.635 1.702 2.087 2.696-.223-1.46 2.27 1.034 2.493-2.594-.689-2.047 1.764-.162-2.696zM3.243 149.46l2.412-1.196.385-2.655 1.885 1.925 2.655-.466-1.257 2.392 1.257 2.391-2.655-.446-1.885 1.926-.385-2.676zM3.73 162.249l2.31-1.399.142-2.695 2.047 1.743 2.615-.669-1.054 2.473 1.459 2.27-2.675-.223-1.703 2.108-.628-2.635zM5.33 174.937l2.19-1.601-.081-2.696 2.189 1.56 2.533-.891-.83 2.554 1.661 2.148h-2.696l-1.52 2.23-.851-2.554zM8.047 187.422l2.026-1.783-.324-2.676 2.331 1.379 2.452-1.135-.608 2.634 1.845 1.987-2.696.243-1.317 2.351-1.075-2.473zM11.817 199.644l1.864-1.966-.527-2.635 2.412 1.176 2.351-1.338-.365 2.676 1.987 1.804-2.635.486-1.115 2.452-1.277-2.37zM16.66 211.481l1.683-2.108-.77-2.594 2.513.973 2.23-1.54-.122 2.695 2.148 1.621-2.614.71-.892 2.554-1.48-2.25zM22.518 222.852l1.5-2.25-1.013-2.513 2.594.73 2.088-1.724.101 2.696 2.29 1.44-2.533.932-.669 2.634-1.682-2.128zM29.328 233.655l1.298-2.351-1.216-2.412 2.655.506 1.905-1.905.344 2.676 2.392 1.236-2.432 1.155-.426 2.655-1.844-1.966zM37.071 243.85l1.074-2.473-1.419-2.29 2.696.263 1.723-2.047.588 2.635 2.493 1.013-2.331 1.358-.203 2.696-2.006-1.804zM45.645 253.315l.871-2.554-1.601-2.168 2.696.04 1.54-2.21.81 2.575 2.575.81-2.21 1.561.041 2.696-2.148-1.621zM55.029 261.99l.648-2.615-1.803-2.006 2.695-.203 1.358-2.33 1.034 2.492 2.635.568-2.068 1.743.264 2.696-2.29-1.42zM65.143 269.834l.405-2.675-1.966-1.845 2.676-.426 1.155-2.452 1.236 2.412 2.676.344-1.906 1.906.507 2.655-2.412-1.216zM75.885 276.766l.183-2.696-2.108-1.682 2.614-.67.933-2.512 1.439 2.27 2.695.101-1.722 2.088.73 2.594-2.514-.993zM277.232 224.088l-2.696-.162-1.662 2.108-.669-2.615-2.533-.932 2.29-1.44.101-2.695 2.068 1.723 2.594-.73-.993 2.514zM283.19 212.778l-2.695.061-1.48 2.27-.891-2.554-2.595-.71 2.149-1.64-.142-2.697 2.23 1.54 2.513-.952-.77 2.574zM288.136 201.002l-2.675.284-1.277 2.371-1.115-2.452-2.655-.486 2.007-1.804-.365-2.676 2.33 1.338 2.433-1.176-.547 2.635zM292.048 188.82l-2.655.528-1.054 2.473-1.317-2.351-2.696-.244 1.844-1.986-.608-2.635 2.453 1.135 2.33-1.378-.324 2.675zM294.886 176.356l-2.595.75-.85 2.554-1.521-2.23h-2.696l1.662-2.148-.83-2.554 2.533.912 2.189-1.581-.081 2.696zM296.609 163.688l-2.514.973-.628 2.615-1.703-2.088-2.675.223 1.44-2.27-1.035-2.473 2.615.69 2.047-1.764.142 2.675zM297.237 150.899l-2.432 1.195-.385 2.676-1.885-1.926-2.656.446 1.257-2.391-1.257-2.372 2.656.446 1.885-1.925.385 2.675zM296.73 138.13l-2.31 1.398-.142 2.696-2.047-1.764-2.615.69 1.054-2.493-1.46-2.27 2.676.222 1.723-2.087.608 2.635zM295.129 125.441l-2.169 1.602.081 2.695-2.189-1.58-2.553.912.83-2.575-1.661-2.128h2.695l1.52-2.23.852 2.555zM292.413 112.956l-2.027 1.763.324 2.696-2.31-1.378-2.453 1.115.588-2.615-1.824-1.986 2.675-.243 1.318-2.372 1.074 2.493zM283.799 88.897l-1.682 2.108.77 2.574-2.513-.952-2.23 1.54.142-2.695-2.149-1.622 2.595-.71.892-2.553 1.48 2.25zM277.962 77.527l-1.5 2.25.993 2.493-2.594-.73-2.068 1.723-.121-2.696-2.27-1.439 2.533-.932.649-2.615 1.682 2.128z"/>
        <path fill="#414042" fill-rule="nonzero" d="M56.367 228.932l-8.635-11.512 2.432-1.824 6.588 8.776 4.053-3.02-5.837-7.783 2.453-1.845 5.837 7.804 4.175-3.142-6.668-8.898 2.432-1.824 8.715 11.634zM40.84 205.259l-1.377-2.858 13.823-16.215 1.58 3.243-3.344 3.83 4.054 8.25 5.067-.263 1.54 3.141-21.342.872zm8.514-9.587l-5.513 6.425 8.431-.426-2.918-6zM33.91 188.76l-2.21-8.37a7.864 7.864 0 0 1 .466-5.92 5.837 5.837 0 0 1 3.628-2.614 5.837 5.837 0 0 1 6.871 2.96l5.777-6.953 1.013 3.912-5.33 6.344 1.094 4.054 6.547-1.723.871 3.304-18.728 5.006zm7.174-10.499c-.628-2.371-2.25-3.547-4.155-3.04-2.027.527-2.736 2.27-2.027 4.702l1.277 4.804 6.304-1.662-1.399-4.804zM28.7 166.282l-.203-3.141 12.75-11.229-13.418.851-.203-3.344 19.377-1.216.182 2.838-13.114 11.573 13.783-.872.223 3.345zM28.214 142.082l.263-3.385 19.357 1.54-.264 3.385zM29.085 131.461l.69-3.08 15.383-7.216-13.093-2.94.73-3.262 18.95 4.256-.628 2.777-15.83 7.418 13.479 3.04-.73 3.243zM43.922 112.085a9.891 9.891 0 0 1-5.007-13.297 10.479 10.479 0 0 1 5.432-5.654l1.46 3.04a7.54 7.54 0 0 0-4.054 4.054 6.567 6.567 0 0 0 3.547 8.553 6.486 6.486 0 0 0 9.04-3.162c.7-1.52.912-3.22.608-4.865l-3.263-1.54-2.027 4.52-2.696-1.236 3.405-7.52 7.439 3.365a12.364 12.364 0 0 1-.608 8.634 9.648 9.648 0 0 1-13.276 5.108zM64.352 80.547l-13.965-1.601 2.595-3.101 10.134 1.337-3.06-9.708 2.513-3 4.053 13.418 5.94 4.965-2.21 2.635zM71 69.622a9.952 9.952 0 0 1 1.5-14.188 9.85 9.85 0 0 1 14.188 1.297 9.972 9.972 0 0 1-1.5 14.188A9.87 9.87 0 0 1 71 69.622zm12.932-10.64a6.648 6.648 0 0 0-9.486-1.136 6.547 6.547 0 0 0-.77 9.405 6.587 6.587 0 1 0 10.134-8.31l.122.04zM91.613 55.373l-5.168-9.91 3.02-1.562 5.108 9.77c1.662 3.202 4.195 4.054 6.89 2.635 2.697-1.419 3.487-3.851 1.845-7.033l-5.168-9.891 3.02-1.581 5.087 9.749c2.676 5.148 1.115 9.242-3.364 11.573-4.48 2.331-8.675 1.236-11.27-3.75zM108.132 35.004l8.31-2.473a7.763 7.763 0 0 1 5.919.284 5.797 5.797 0 0 1 2.797 3.567 5.817 5.817 0 0 1-2.757 6.952l7.114 5.554-3.87 1.155-6.507-5.148-4.054 1.216 2.027 6.506-3.263.953-5.716-18.566zm10.803 6.83c2.331-.689 3.466-2.351 2.899-4.236-.588-2.027-2.351-2.655-4.784-2.027l-4.763 1.419 1.926 6.263 4.722-1.419zM144.392 31.092l-6.08.223-.122-3.162 15.749-.568.101 3.162-6.08.223.567 16.215-3.425.122zM160.161 27.95l8.574 1.196a7.824 7.824 0 0 1 5.27 2.716 5.837 5.837 0 0 1 1.013 4.378 5.837 5.837 0 0 1-5.391 5.189l4.053 8.107-4.053-.547-3.79-7.378-4.237-.608-.77 6.648-3.385-.486 2.716-19.215zm6.973 10.702c2.432.345 4.053-.71 4.418-2.655.304-2.027-1.033-3.385-3.526-3.75l-4.926-.689-.912 6.445 4.946.649zM178.788 42.32l3.648-10.56 3.223 1.115-3.587 10.439c-1.176 3.405 0 5.817 2.837 6.81 2.838.993 5.189-.122 6.364-3.486l3.628-10.56 3.223 1.115-3.587 10.397c-1.885 5.473-5.919 7.155-10.722 5.493-4.804-1.662-6.77-5.432-5.027-10.762zM195.469 54.157l3-1.135a8.959 8.959 0 0 0 4.053 5.23c1.845 1.033 3.487.81 4.196-.446.69-1.216.385-2.25-2.351-4.743-3.121-2.899-4.54-5.108-2.777-8.23 1.642-2.918 5.189-3.546 8.533-1.661a10.742 10.742 0 0 1 4.946 5.594l-2.858 1.338a8.898 8.898 0 0 0-3.608-4.318c-1.743-.993-3.263-.668-3.892.446-.75 1.298-.304 2.311 2.534 4.926 2.838 2.614 4.196 5.209 2.615 8.006-1.784 3.182-5.331 3.648-8.898 1.641a11.938 11.938 0 0 1-5.493-6.648zM223.46 55.961l-4.804-3.85 2.027-2.453 12.323 9.83-2.027 2.473-4.803-3.851-10.135 12.708-2.695-2.148zM229.743 79.817l3.182.162a8.837 8.837 0 0 0 1.723 6.385c1.277 1.682 2.878 2.128 4.054 1.257 1.094-.831 1.216-1.906-.304-5.29-1.723-3.872-2.17-6.466.668-8.655 2.656-2.027 6.081-1.237 8.513 1.824a10.864 10.864 0 0 1 2.331 7.094h-3.162a8.695 8.695 0 0 0-1.621-5.391c-1.216-1.581-2.737-1.885-3.75-1.115-1.196.912-1.176 2.027.405 5.533 1.703 3.871 1.804 6.425-.75 8.391-2.878 2.21-6.344 1.257-8.816-2.027a11.958 11.958 0 0 1-2.473-8.168zM255.14 86.89l1.722 2.96-16.762 9.81-1.723-2.939zM260.53 96.255l1.197 2.939-8.513 14.674 12.424-5.047 1.277 3.101-17.978 7.297-1.074-2.635 8.756-15.1-12.688 5.189-1.257-3.101zM259.375 120.597a9.81 9.81 0 0 1 11.716 7.966 10.134 10.134 0 0 1-1.561 8.107l-2.878-1.682a7.824 7.824 0 0 0 1.358-5.797 6.547 6.547 0 0 0-7.864-5.108 6.526 6.526 0 0 0-5.615 7.56 7.62 7.62 0 0 0 3.588 5.047l-1.764 2.554a9.952 9.952 0 0 1-4.844-7.094 9.75 9.75 0 0 1 7.864-11.553zM272.631 142.224l.243 14.41h-3.06l-.183-11.005h-5.047l.163 9.749h-3.061l-.162-9.546h-5.21l.183 11.127h-3.06l-.243-14.553zM266.976 174.207l-.243-3.607 2.878-.142.547 5.472-.486 2.331-19.113-4.054.689-3.303zM254.39 191.618a5.695 5.695 0 0 1-.426-5.027c1.398-3.891 4.58-5.654 8.107-4.398a6.75 6.75 0 0 1 3.892 9.08 7.114 7.114 0 0 1-3.75 4.399 9.79 9.79 0 0 1-7.763-.304c-5.878-2.027-8.918-6.466-7.155-11.411a9.222 9.222 0 0 1 4.277-5.068l1.845 2.635a6.608 6.608 0 0 0-3.223 3.568c-1.155 3.303 1.844 5.634 4.195 6.526zm4.053 1.297a3.669 3.669 0 0 0 4.743-2.614 3.567 3.567 0 0 0-2.027-4.845 3.547 3.547 0 0 0-4.6 2.574 3.588 3.588 0 0 0 1.904 4.885h-.02zM244.154 196.969a9.567 9.567 0 0 1 7.62 1.58c5.17 2.9 7.824 7.642 5.129 12.425a8.736 8.736 0 0 1-4.804 4.054l-1.398-2.878a6.466 6.466 0 0 0 3.547-2.858c1.662-2.939-.811-5.736-3.102-7.094a6.08 6.08 0 0 1-.567 5.027 6.08 6.08 0 0 1-8.655 2.898 6.73 6.73 0 0 1-2.209-9.526 7.276 7.276 0 0 1 4.439-3.628zm-.669 10.134a3.527 3.527 0 0 0 4.905-1.784 3.588 3.588 0 0 0-1.054-5.107 3.628 3.628 0 0 0-4.986 1.804 3.506 3.506 0 0 0 1.135 5.148v-.06zM239.31 212.332a4.905 4.905 0 0 1 1.5 5.676 4.641 4.641 0 0 1 5.127.506c2.311 1.865 2.29 5.513-.141 8.533-2.433 3.02-5.98 3.851-8.31 2.027a4.621 4.621 0 0 1-1.602-4.925 4.986 4.986 0 0 1-5.837-.203c-2.696-2.189-2.412-6.08.263-9.303 2.676-3.223 6.385-4.398 9-2.31zm-7.054 9.08c1.378 1.115 3.405.447 4.844-1.337 1.44-1.784 1.622-3.892.244-5.006-1.237-.994-3.203-.649-4.804 1.337-1.601 1.987-1.52 3.993-.284 5.007zm7.074 4.906a3.06 3.06 0 0 0 4.297-.994 3.08 3.08 0 0 0 0-4.398 3.527 3.527 0 0 0-4.378 5.392h.08z"/>
        <circle cx="150.27" cy="150.189" r="91.938" fill="#A7A9AC" fill-rule="nonzero" stroke="#939598" stroke-width=".6"/>
        <circle cx="150.27" cy="150.189" r="91.938" fill="url(#b)" fill-rule="nonzero" stroke="#FBB040" stroke-width=".6"/>
        <path fill="#FFF" fill-rule="nonzero" d="M150.696 207.59l-39.544 74.73h22.296l17.35-35.146 18.24 35.105h21.708z"/>
        <path fill="#00583D" fill-rule="nonzero" d="M113.057 281.184h19.66l18.04-36.523 18.93 36.523h19.073l-38.145-71.122z"/>
        <path fill="#FFF" fill-rule="nonzero" d="M197.82 253.943a162.006 162.006 0 0 0-37.476 5.676c1.58-.933 2.959-1.723 3.77-2.149l.689-.365-.629-6.749-1.216.203c-18.241 2.939-36.483 6.567-61.332 18.606l-1.054.507 3.365 6.932 1.033-.507a188.841 188.841 0 0 1 39.787-14.39c-3.283 2.31-6.526 4.803-8.29 6.323l-.689.608 3.507 6.608 1.013-.487a153.128 153.128 0 0 1 57.259-13.073h1.094l.385-7.763-1.216.02z"/>
        <path fill="#E31837" fill-rule="nonzero" d="M197.82 255.099c-13.62.101-31.193 3.547-45.3 7.965 3.648-2.31 9.04-5.553 11.067-6.627l-.446-4.743c-18.12 2.939-36.483 6.627-61.008 18.505l2.33 4.844a198.63 198.63 0 0 1 46.233-15.951 131.461 131.461 0 0 0-13.458 9.81l2.554 4.803a153.797 153.797 0 0 1 57.765-13.174l.263-5.432z"/>
        <path fill="#231F20" fill-rule="nonzero" d="M192.712 281.387a1.905 1.905 0 1 1 1.885-1.905 1.844 1.844 0 0 1-1.885 1.905zm0-3.486a1.601 1.601 0 1 0 1.581 1.58 1.56 1.56 0 0 0-1.58-1.58zm.426 1.743l.426.851h-.426l-.405-.81h-.406v.81h-.344v-2.027h.912a.608.608 0 0 1 .669.629.568.568 0 0 1-.426.506v.04zm-.263-.892h-.548v.588h.548c.202 0 .344 0 .344-.284s-.142-.304-.344-.304z"/>
        <path fill="#E31837" fill-rule="nonzero" d="M197.74 254.916c-13.642.102-31.214 3.547-45.321 7.966 3.648-2.31 9.04-5.554 11.066-6.608l-.446-4.763c-18.241 2.94-36.483 6.628-61.028 18.505l2.331 4.865a198.307 198.307 0 0 1 46.354-15.972 135.09 135.09 0 0 0-13.479 9.81l2.453 4.804a153.23 153.23 0 0 1 57.785-13.175l.284-5.432z"/>
        <g fill="#231F20" fill-rule="nonzero">
            <path d="M72.784 291.319h.892L77 299.08h-1.237l-.77-2.027h-3.648l-.77 2.027h-1.216l3.425-7.762zm1.885 4.925l-1.46-3.567-1.56 3.567h3.02zM87.337 292.98a2.027 2.027 0 0 0-.851-.648 2.27 2.27 0 0 0-1.034-.223 2.858 2.858 0 0 0-1.196.243 2.939 2.939 0 0 0-.912.67c-.254.3-.454.643-.588 1.012-.14.397-.21.816-.203 1.237-.005.394.064.786.203 1.155.124.358.317.689.568.973.256.276.567.497.912.649a2.96 2.96 0 0 0 1.216.243c.407.011.812-.08 1.175-.264.342-.183.635-.448.852-.77l.891.669-.304.345a2.96 2.96 0 0 1-.587.446 3.871 3.871 0 0 1-.872.385c-.378.127-.776.189-1.175.182a4.054 4.054 0 0 1-1.662-.345 4.236 4.236 0 0 1-1.277-.932 4.054 4.054 0 0 1-.79-1.297 3.932 3.932 0 0 1-.264-1.44 5.047 5.047 0 0 1 .283-1.681c.197-.486.478-.932.831-1.318.366-.365.8-.654 1.277-.851a4.419 4.419 0 0 1 1.662-.304c.513.004 1.021.1 1.5.284.477.195.895.509 1.216.912l-.871.669zM93.498 291.319h5.007v.972H94.45v2.331h3.689v.973h-3.588v2.493h4.054v.993h-5.108zM116.361 292.98a2.027 2.027 0 0 0-.851-.648 2.27 2.27 0 0 0-1.034-.223 2.858 2.858 0 0 0-1.196.243 2.939 2.939 0 0 0-.912.67c-.254.3-.453.643-.587 1.012-.141.397-.21.816-.203 1.237-.005.394.064.786.203 1.155.124.358.317.689.567.973.257.276.567.497.912.649.383.168.798.25 1.216.243.408.011.812-.08 1.176-.264.342-.183.634-.448.851-.77l.892.669-.304.345a2.96 2.96 0 0 1-.588.446 3.871 3.871 0 0 1-.871.385c-.379.127-.777.189-1.176.182a4.054 4.054 0 0 1-1.662-.345 4.236 4.236 0 0 1-1.277-.932 4.054 4.054 0 0 1-.79-1.297 3.932 3.932 0 0 1-.264-1.44 5.047 5.047 0 0 1 .284-1.681c.196-.486.478-.932.83-1.318.366-.365.8-.654 1.278-.851a4.419 4.419 0 0 1 1.662-.304c.513.004 1.02.1 1.5.284.476.195.895.509 1.216.912l-.872.669zM124.955 291.319h.953l3.324 7.762h-1.237l-.77-2.027h-3.709l-.77 2.027h-1.216l3.425-7.762zm1.885 4.925l-1.46-3.567-1.459 3.567h2.919zM134.32 297.46c.176.276.43.494.729.628.284.138.596.207.912.203.181.03.366.03.547 0 .173-.056.337-.138.486-.243a1.46 1.46 0 0 0 .386-.406c.092-.175.14-.37.141-.567a.872.872 0 0 0-.283-.69 3.365 3.365 0 0 0-.71-.384l-.932-.304a3.425 3.425 0 0 1-.912-.426 2.027 2.027 0 0 1-.71-.71 2.027 2.027 0 0 1-.283-1.195c.002-.25.05-.498.142-.73.102-.262.261-.497.466-.69.23-.236.505-.422.81-.546a3.121 3.121 0 0 1 1.217-.203c.41.001.82.056 1.216.162.406.13.76.386 1.013.73l-.851.77a1.48 1.48 0 0 0-.568-.487 1.763 1.763 0 0 0-.81-.182 1.865 1.865 0 0 0-.73.101 1.155 1.155 0 0 0-.466.304c-.112.11-.202.241-.264.386a1.378 1.378 0 0 0 0 .385.912.912 0 0 0 .284.75c.206.192.447.343.71.445l.912.284c.32.094.633.216.932.365.277.166.519.387.71.649.202.327.301.709.283 1.094a2.33 2.33 0 0 1-.223 1.014 2.027 2.027 0 0 1-.567.75c-.25.216-.539.381-.852.486-.8.28-1.672.28-2.472 0a2.412 2.412 0 0 1-1.075-.81l.811-.933zM144.028 291.319h1.054v3.222h4.053v-3.222h1.054v7.762h-1.054v-3.547h-4.053v3.547h-1.054zM162.857 291.319h5.006v.972h-4.053v2.331h3.689v.973h-3.69v2.493h4.054v.993h-5.006zM175.261 295.007l-2.614-3.688h1.358l2.027 2.979 2.026-2.98h1.318l-2.595 3.67 2.858 4.053h-1.378l-2.23-3.365-2.229 3.365h-1.317zM184.423 291.319h2.756c.422-.018.843.051 1.237.202.287.106.544.28.75.507.192.199.33.443.405.71.135.49.135 1.008 0 1.5a1.784 1.784 0 0 1-.405.709 2.027 2.027 0 0 1-.75.506c-.394.151-.815.22-1.237.203h-1.682v3.425h-1.054l-.02-7.762zm1.054 3.425h1.378c.209.02.42.02.628 0 .187-.02.367-.083.527-.183.166-.085.3-.22.385-.385.097-.195.145-.41.142-.628a1.46 1.46 0 0 0-.142-.649 1.176 1.176 0 0 0-.385-.385 2.31 2.31 0 0 0-.527-.182h-2.006v2.412zM194.78 291.319h2.736c.422-.018.842.051 1.236.202.288.106.545.28.75.507.192.199.332.443.406.71.028.248.028.5 0 .75.004.243-.045.485-.142.709-.077.232-.201.446-.365.628-.171.193-.378.35-.608.466a1.804 1.804 0 0 1-.79.243l2.209 3.547h-1.318l-2.026-3.425h-1.176v3.425h-1.054l.142-7.762zm1.054 3.425h1.48c.202.02.405.02.607 0 .195-.018.382-.08.548-.183.165-.085.3-.22.385-.385.096-.195.145-.41.142-.628a1.46 1.46 0 0 0-.142-.649 1.176 1.176 0 0 0-.385-.385 2.169 2.169 0 0 0-.548-.182H195.935l-.101 2.412zM205.42 291.319h5.007v.972h-4.054v2.331h3.69v.973h-3.69v2.493h4.054v.993h-5.006zM216.123 297.46c.176.276.43.494.73.628.283.138.596.207.911.203.182.03.366.03.548 0 .173-.056.337-.138.486-.243.152-.104.277-.243.365-.406.1-.171.15-.368.142-.567a.81.81 0 0 0-.284-.69 2.594 2.594 0 0 0-.71-.384l-.912-.304a3.547 3.547 0 0 1-.932-.426 2.148 2.148 0 0 1-.71-.71 2.21 2.21 0 0 1-.283-1.195c.008-.252.063-.499.162-.73.102-.262.262-.497.466-.69.23-.236.506-.422.811-.546a3.08 3.08 0 0 1 1.196-.203c.417.003.832.057 1.236.162.402.139.755.392 1.014.73l-.852.77a1.48 1.48 0 0 0-.567-.487 1.784 1.784 0 0 0-.831-.182 2.027 2.027 0 0 0-.73.101 1.54 1.54 0 0 0-.466.304c-.107.11-.19.242-.243.386a1.378 1.378 0 0 0 0 .385.912.912 0 0 0 .284.75c.206.192.446.343.709.445l.912.284c.321.094.633.216.932.365.278.166.52.387.71.649.203.327.302.709.284 1.094a2.33 2.33 0 0 1-.223 1.014 2.027 2.027 0 0 1-.568.75c-.254.22-.55.386-.871.486-.341.108-.697.162-1.054.162a3.648 3.648 0 0 1-1.399-.263 2.412 2.412 0 0 1-1.074-.811l.81-.831zM226.074 297.46c.177.276.43.494.73.628.284.138.596.207.912.203.175.03.353.03.527 0 .181-.052.353-.134.507-.243.152-.104.277-.243.365-.406.1-.171.15-.368.142-.567a.81.81 0 0 0-.284-.69 2.594 2.594 0 0 0-.71-.384l-.912-.304a3.547 3.547 0 0 1-.932-.426 2.148 2.148 0 0 1-.71-.71 2.21 2.21 0 0 1-.283-1.195c.008-.252.063-.499.162-.73.094-.266.255-.503.466-.69.23-.236.505-.422.81-.546a3.02 3.02 0 0 1 1.197-.203c.41.001.82.056 1.216.162.413.127.776.382 1.033.73l-.85.77a1.48 1.48 0 0 0-.568-.487 1.844 1.844 0 0 0-.831-.182 2.027 2.027 0 0 0-.73.101 1.54 1.54 0 0 0-.466.304.892.892 0 0 0-.243.386 1.378 1.378 0 0 0 0 .385.912.912 0 0 0 .283.75c.207.192.447.343.71.445l.912.284c.32.097.631.22.932.365.274.172.514.391.71.649.203.327.302.709.283 1.094a2.33 2.33 0 0 1-.223 1.014c-.137.285-.33.54-.567.75-.254.22-.55.386-.872.486-.34.108-.696.162-1.054.162a3.75 3.75 0 0 1-1.418-.263 2.351 2.351 0 0 1-1.054-.811l.81-.831z"/>
        </g>
        <path fill="#231F20" fill-rule="nonzero" d="M233.493 293.062a1.723 1.723 0 0 1-1.743-1.764 1.743 1.743 0 1 1 3.486 0 1.723 1.723 0 0 1-1.743 1.764zm0-3.223a1.48 1.48 0 1 0 1.459 1.46 1.44 1.44 0 0 0-1.46-1.46zm.385 1.621l.385.77h-.365l-.385-.73h-.365v.73h-.324v-1.905h.83a.588.588 0 0 1 .224 1.135zm-.223-.83h-.507v.547h.507c.162 0 .304 0 .304-.264a.284.284 0 0 0-.304-.284zM239.431 151.527a87.52 87.52 0 0 0-29.957-65.933 52.09 52.09 0 0 0-16.417-2.595 50.671 50.671 0 0 0-41.55 21.221V85.026H94.41a87.945 87.945 0 0 0-19.417 23.816l-2.027 36.483 15.546 10.316a52.333 52.333 0 0 1 20.35-4.54c12.769 0 21.667 6.08 21.667 16.6v.426c0 10.843-7.864 16.944-20.43 16.944-10.824 0-19.925-4.884-29.187-13.276l-10.6 12.547a88.026 88.026 0 0 0 9.91 18.039 63.744 63.744 0 0 0 30.22 7.033c19.155 0 33.748-7.621 41.126-20.634a51.664 51.664 0 0 0 75.378 7.844 87.398 87.398 0 0 0 12.485-45.097zM139.59 133.67a51.3 51.3 0 0 0-25.478-6.08 59.224 59.224 0 0 0-16.072 2.027l1.398-21.14h49.09a68.913 68.913 0 0 0-8.938 25.193zm53.55 51.523c-16.216 0-26.897-16.6-26.897-38.956v-.405c0-22.296 10.479-38.51 26.552-38.51 16.072 0 26.815 16.741 26.815 38.915v.344c0 22.194-10.135 38.612-26.47 38.612z"/>
        <path fill="url(#c)" fill-rule="nonzero" d="M238.094 150.19a87.52 87.52 0 0 0-29.876-65.934 52.09 52.09 0 0 0-16.418-2.594 50.671 50.671 0 0 0-41.631 21.2V83.73H93.073a88.168 88.168 0 0 0-19.397 23.795l-2.027 36.483 15.546 10.297a52.698 52.698 0 0 1 20.33-4.54c12.768 0 21.666 6.08 21.666 16.6v.344c0 10.823-7.864 16.944-20.43 16.944-10.824 0-19.924-4.884-29.187-13.275l-10.6 12.667a87.58 87.58 0 0 0 9.91 18.04 63.927 63.927 0 0 0 30.221 7.033c19.154 0 33.727-7.621 41.105-20.634a51.685 51.685 0 0 0 75.398 7.844 87.398 87.398 0 0 0 12.486-45.138zm-99.843-17.857a51.36 51.36 0 0 0-25.477-6.08 59.995 59.995 0 0 0-16.073 2.026l1.398-20.958h49.09a68.77 68.77 0 0 0-8.938 25.012zm53.55 51.522c-16.215 0-26.917-16.6-26.917-38.956v-.344c0-22.296 10.499-38.612 26.572-38.612s26.896 16.762 26.896 38.956v.345c0 22.194-10.317 38.611-26.552 38.611z"/>
        <path stroke="url(#d)" stroke-width=".29" d="M238.094 150.19a87.52 87.52 0 0 0-29.876-65.934 52.09 52.09 0 0 0-16.418-2.594 50.671 50.671 0 0 0-41.631 21.2V83.73H93.073a88.168 88.168 0 0 0-19.397 23.795l-2.027 36.483 15.546 10.297a52.698 52.698 0 0 1 20.33-4.54c12.768 0 21.666 6.08 21.666 16.6v.344c0 10.823-7.864 16.944-20.43 16.944-10.824 0-19.924-4.884-29.187-13.275l-10.6 12.667a87.58 87.58 0 0 0 9.91 18.04 63.927 63.927 0 0 0 30.221 7.033c19.154 0 33.727-7.621 41.105-20.634a51.685 51.685 0 0 0 75.398 7.844 87.398 87.398 0 0 0 12.486-45.138zm-99.843-17.857a51.36 51.36 0 0 0-25.477-6.08 59.995 59.995 0 0 0-16.073 2.026l1.398-20.958h49.09a68.77 68.77 0 0 0-8.938 25.012zm53.55 51.522c-16.215 0-26.917-16.6-26.917-38.956v-.344c0-22.296 10.499-38.612 26.572-38.612s26.896 16.762 26.896 38.956v.345c0 22.194-10.317 38.611-26.552 38.611z"/>
        <path fill="#231F20" fill-rule="nonzero" d="M174.025 146.926l-3.263-5.148h2.23l2.026 3.425 2.027-3.425h2.027l-3.263 5.128v3.385h-1.885zM180.328 141.778h6.426v1.682h-4.56v1.723h4.053v1.662h-4.054v1.784h4.642v1.682h-6.507zM191.395 141.778h1.743l3.648 8.594h-2.026l-.77-2.027h-3.608l-.77 2.027h-2.027l3.81-8.594zm2.027 5.026l-1.135-2.776-1.135 2.776h2.27zM198.084 141.778h3.891a3.385 3.385 0 0 1 2.493.871c.517.544.781 1.28.73 2.027a2.675 2.675 0 0 1-1.824 2.655l2.027 3.04h-2.19l-1.824-2.736h-1.48v2.656h-1.864l.04-8.513zm3.77 4.054c.912 0 1.439-.507 1.439-1.217 0-.81-.568-1.216-1.48-1.216h-1.865v2.433h1.906zM206.292 149.034l1.095-1.317a4.054 4.054 0 0 0 2.554 1.033c.77 0 1.236-.304 1.236-.81 0-.467-.304-.71-1.723-1.075s-2.837-.912-2.837-2.614a2.696 2.696 0 0 1 3-2.574 4.986 4.986 0 0 1 3.161 1.094l-.973 1.399a4.155 4.155 0 0 0-2.23-.831c-.709 0-1.094.324-1.094.75 0 .547.365.73 1.845 1.114 1.48.385 2.695 1.074 2.695 2.554 0 1.703-1.276 2.655-3.12 2.655a5.391 5.391 0 0 1-3.609-1.378z"/>
        <path fill="#FFF" fill-rule="nonzero" d="M173.741 146.642l-3.283-5.168h2.189l2.027 3.425 2.026-3.425h2.027l-3.283 5.128v3.385h-1.865zM180.045 141.474h6.425v1.662h-4.56v1.723h4.053v1.682h-4.054v1.784h4.622v1.662h-6.486zM191.111 141.413h1.723l3.648 8.574h-2.026l-.79-1.906h-3.588l-.79 1.906h-1.906l3.73-8.574zm2.027 5.006l-1.135-2.756-1.135 2.756h2.27zM197.8 141.474h3.891a3.344 3.344 0 0 1 2.473.871c.526.538.792 1.278.73 2.027a2.615 2.615 0 0 1-1.824 2.635l2.027 3.04h-2.19l-1.824-2.716h-1.48v2.716h-1.864l.06-8.573zm3.77 4.054c.912 0 1.439-.487 1.439-1.196 0-.79-.568-1.216-1.48-1.216h-1.864v2.452l1.905-.04zM205.988 148.75l1.115-1.317a3.912 3.912 0 0 0 2.534 1.033c.77 0 1.236-.304 1.236-.81 0-.487-.284-.73-1.723-1.095s-2.817-.912-2.817-2.594a2.655 2.655 0 0 1 2.98-2.574 4.885 4.885 0 0 1 3.161 1.074l-.973 1.338a4.054 4.054 0 0 0-2.209-.831c-.71 0-1.094.324-1.094.73 0 .567.364.75 1.844 1.134 1.48.385 2.696 1.075 2.696 2.554 0 1.682-1.297 2.635-3.122 2.635a5.452 5.452 0 0 1-3.628-1.277z"/>
    </g>
</svg>
