<svg xmlns="http://www.w3.org/2000/svg" xmlns:xlink="http://www.w3.org/1999/xlink" width="28" height="28" viewBox="0 0 28 28">
    <defs>
        <path id="a" d="M27.125 2.376v23.892c0 .821-.65 1.48-1.447 1.48h-6.692V17.354h3.41l.51-4.053H18.98v-2.59c0-1.175.317-1.973 1.963-1.973h2.098V5.11a27.57 27.57 0 0 0-3.059-.162c-3.023 0-5.097 1.889-5.097 5.36V13.3h-3.422v4.053h3.422v10.402H2.322c-.797 0-1.447-.666-1.447-1.481V2.376c0-.815.65-1.48 1.447-1.48h23.35c.803 0 1.453.665 1.453 1.48z"/>
    </defs>
    <g fill="none" fill-rule="evenodd">
        <mask id="b" fill="#fff">
            <use xlink:href="#a"/>
        </mask>
        <use fill="#000" fill-rule="nonzero" xlink:href="#a"/>
        <g fill="#FFF" mask="url(#b)">
            <path d="M-1-1.023h30v30.696H-1z"/>
        </g>
    </g>
</svg>
