<svg xmlns="http://www.w3.org/2000/svg" xmlns:xlink="http://www.w3.org/1999/xlink" width="240" height="242" viewBox="0 0 240 242">
    <defs>
        <path id="a" d="M.063.127H18.27V11.74H.063z"/>
        <path id="c" d="M0 .217h59.502V14.81H0z"/>
    </defs>
    <g fill="none" fill-rule="evenodd">
        <path fill="#3C3C3C" d="M65.603 98.335c.027-.143.008-.606.201-.874.175-.24.617-.207.877-.403.375-.282.698-.656 1.032-1.006.195-.204.339-.486.558-.635.118-.081.393-.021.51.091.114.11.129.365.16.561.011.068-.057.157-.097.23-.587 1.065-1.147 2.15-1.783 3.177-.166.268-.562.476-.86.488-.395.017-.595-.539-.598-1.629M40.03 112.68l1.858-1.796 1.496.954c-.196.267-.501.559-.212 1.045.064.107-.154.581-.334.687-.33.193-.73.33-1.096.316-.314-.012-.64-.231-.924-.425-.243-.164-.435-.424-.787-.782M170.186 106.133c-.085-.466-.075-.94.4-1.197.479-.258.798.136 1.121.424.453.405.888.836 1.327 1.26.4.387.538 1.048.25 1.374-.367.416-.814.29-1.159-.005-.638-.548-1.227-1.167-1.94-1.856M86.954 215.174c.748-.037 1.312-.253 1.684-.041.63.36 1.17.957 1.688 1.522.298.325.338.803-.014 1.162-.348.353-.67.248-1.016-.1-.516-.519-1.1-.95-1.623-1.463-.231-.227-.38-.56-.719-1.08M197.511 114.421c-.532-.912-.457-1.316.342-1.507.718-.172 1.387-.384 1.964-.933.265-.252.619-.376.92.002.322.404.12.778-.153 1.013-.446.386-.928.754-1.444.995-.484.227-1.032.28-1.629.43M46.488 78.73c-.464.048-.936.24-1.315.104-.588-.21-1.107-.218-1.68 0-.235.089-.545.065-.784-.032-.305-.122-.367-.437-.148-.734.782-1.064 3.08-.999 3.825.108.06.091.048.244.102.553M2.792 127.472c-.7.917-1.461.064-2.148.227-.454-.696-.1-1.319.034-1.915.048-.21.451-.52.596-.464.375.143.786.39 1.016.736.262.395.344.943.502 1.416M163.085 38.975l-1.72-.808c.448-.301.683-.75.674-1.442-.003-.301.435-.609.674-.914.217.272.523.504.635.823.297.846.234 1.681-.263 2.34M188.574 10.492c.582-.019.956.284.995.807.047.644-.72 1.445-1.38 1.443-.366-.001-.848-.48-.885-.878-.059-.638.601-1.35 1.27-1.372M103.175 138.87c.064-.826.925-2.053 1.546-2.124.196-.022.488.095.592.263.106.17.1.51.028.725-.314.933-1.12 1.336-2.166 1.136M38.252 169.486c.552-.492 1.022-.96 1.538-1.35.225-.168.622-.336.806-.224.38.232.191.658.04 1.023-.29.705-.97 1.228-1.618 1.19-.4-.023-.746-.16-.766-.64M105.59 63.92c1.022.81 1.169 2.09.407 2.683-.353.275-.758.208-.87-.18-.147-.501-.153-1.094-.08-1.623.044-.319.354-.59.542-.88M41.658 202.501c-.263-.327-.6-.632-.795-1.028-.122-.246-.122-.676-.013-.938.214-.518.69-.468 1.113-.41.393.053.445.388.467.763.048.853-.04 1.072-.772 1.613M105.864 219.122c-.116.518-.164.861-.271 1.179-.146.433-.366.786-.867.619-.487-.163-.847-.653-.742-1.166.05-.24.289-.458.484-.624.105-.09.299-.063.452-.062.265.004.53.029.944.054M117.991 57.015c-.197.573-.268 1.034-.497 1.346-.142.194-.547.255-.793.189-.131-.036-.253-.477-.242-.727.014-.334.16-.66.251-.989.12-.429.395-.723.762-.541.242.119.377.512.52.722M213.023 38.832c.253-.933-.17-1.384-.832-1.779l1.026-1.077c.597.562.648 1.355.78 2.04.076.404-.286.764-.974.816M90.438 79.363l-.375 1.094c-.554-.35-1.083-.657-1.58-1.02-.122-.088-.226-.39-.184-.539.046-.159.303-.385.415-.351.567.168 1.26 0 1.724.816M47.477 27.824c-.616-.044-1.059-.542-1.036-1.023.024-.502.417-.889.863-.85.439.04.766.467.729.996-.034.472-.206.837-.556.877M68.721 77.017c.131-1.404.892-2.085 1.718-1.79.153.055.343.269.362.432.02.16-.12.438-.255.51-.543.292-1.11.524-1.825.848M83.047 5.401l-1.131.132-.192 1.01c-.266-.245-.427-.498-.63-.552-.165-.045-.38.147-.721.302.294-1.21 1.157-1.403 1.818-1.77.257-.141.746.143.856.878M186.343 133.18c-.73.152-.989-.452-1.434-.87l.768-1.13c.84.52.843.532.666 2M201.114 220.948c-.462.02-1.014.283-1.214-.353-.096-.304.095-.832.308-1.112.126-.166.616-.17.824-.027.582.403.243.955.082 1.492M74.666 215.2c.69.924.793 1.37.416 1.676-.377.305-1.006.189-1.212-.224-.268-.54-.066-.93.796-1.452M93.814 21.915c-.191-.667-.14-1.2.377-1.28.285-.043.674.293.918.568.191.215.23.601.44 1.21l-1.735-.498M105.716 207.733c-.68-.002-1.281-.532-1.274-.976.009-.456.254-.713.647-.75.365-.034 1.01.651.96 1.087-.029.262-.254.496-.333.639M166.041 145.407c1.17-.064 1.36.155 1.226 1.46l-1.046.21c-.47-.562-.497-1.098-.18-1.67M116.319 228.902c.055-.236.065-.314.074-.314.617.011 1.234.013 1.849.064.082.006.239.31.204.398-.115.3-.252.661-.478.814-.16.107-.507-.026-.715-.162-.174-.113-.24-.421-.403-.577-.128-.122-.331-.145-.531-.223M25.565 125.736c-.48.142-.777.311-1.064.291-.265-.018-.737-.241-.736-.37.003-.347.137-.79.361-1.003.156-.147.602-.07.82.083.231.163.346.536.62.999M133.52 24.083c.01-.721.377-1.047.892-1.035.413.01.882.475.717.78-.193.361-.563.727-.91.81-.216.053-.53-.41-.7-.555M177.289 170.605c-.088-.172-.323-.428-.335-.698-.028-.618.416-1.25.747-1.105.271.119.553.455.65.767.117.376-.504 1.032-1.062 1.036M132.88 97.968c-.35-.58-.67-1.053-.93-1.566-.178-.35.08-.747.442-.64.302.088.66.308.814.594.267.493.33 1.068-.326 1.612M233.463 124.689c.61-.573 1.223-.426 1.884-.232.08.636-.185.958-.65 1.051-.528.105-1.003-.005-1.234-.819M85.654 87.045c.6-1.387 1.284-1.996 2.07-1.899-.249.828-.836 1.33-1.342 1.88-.111.121-.413.019-.728.019M239.193 29.867c-.507-.003-1.125-.892-1.035-1.333.01-.042.028-.103.054-.113.2-.075.424-.238.6-.188.494.14.876.743.749 1.16-.064.21-.277.362-.368.474M46.538 110.81c-.569.287-.978.495-1.388.703.126.18-.432-.032-.162-.658.13-.302.486-.67.736-.666.277.005.548.4.814.62M162.825 73.286c-.87-.08-1.161-.365-1.073-1.055.062-.49.341-.676.74-.582.485.116.583.646.333 1.637M174.004 138.698c-.505-.034-.809-.424-.732-.888.07-.42.252-.734.704-.667.362.053.73.113.642.682-.068.44-.173.875-.614.873M27.217 202.568c.75.071 1.457.82 1.688 1.753-.724-.391-1.713-.32-1.688-1.753M54.438 72.752l-2.005-.354c.127-.683.347-.94.818-.889.53.057.921.29 1.187 1.243M177.285 21.48c.097-.096.236-.346.415-.39.33-.079.942.73.87 1.198-.034.212-.3.483-.501.535-.36.094-.82-.663-.784-1.343M98.423 193.326c-.197-.294-.464-.56-.567-.892-.07-.225.043-.575.17-.802.063-.116.4-.182.499-.098.152.129.272.4.287.622.023.36-.05.727-.082 1.092l-.307.078zM182.452 169.993c.34-.676.47-1.377 1.155-1.646.634.405.199.883.06 1.315-.197.608-.614.534-1.215.33M36.108 126.628c-.31-.507-.563-.769-.642-1.086-.102-.406.302-.898.58-.736.263.153.519.508.588.826.046.204-.251.505-.526.996M188.294 73.073c.144-.166.343-.596.576-.62.45-.045.488.452.478.851-.01.379.025.868-.452.896-.556.032-.516-.508-.602-1.127M230.457 121.6c.2.956.23 1.817-.563 2.751.323-1.031-.623-2.08.563-2.75M104.519 47.04c-.564-.416-.792-.827-.355-1.344.298-.352.698-.235.902.112.39.666-.16.881-.547 1.232M157.463 72.592c-.263-.553-.486-.878-.558-1.242-.028-.14.295-.526.449-.52.435.017.67.409.639.875-.016.228-.25.438-.53.887M223.35 34.14c-.17.463-.342.925-.51 1.38-.667-.232-.717-.68-.523-1.087.128-.27.46-.417.702-.618l.331.325M150.256 178.25l-.256 1.313c-.543-.059-1.123.024-1.042-.747.076-.723.648-.516 1.298-.566M111.396 118.256c.244-.93.646-1.327 1.033-1.09.21.128.463.62.394.796-.312.79-.849.104-1.427.294M192.876 67.497c.283-.488.692-.648.955-.235.176.278.06.81.022 1.222-.004.04-.487.134-.547.04-.196-.306-.298-.689-.43-1.027M45.224 214.836c-.368.965-1.016.437-1.538.611.27-1.267.328-1.29 1.538-.611M165.82 225.877c-.21.22-.39.509-.637.636-.18.093-.446-.028-.673-.053.08-.3.083-.746.259-.863.24-.16.61-.07.926-.086l.125.366M13.228 93.105c.098-.508.109-.922.272-1.235.065-.125.49-.108.705-.016.41.175.423.587.064.869-.09.071-.2.12-.307.16-.178.063-.36.11-.734.222M232.045 84.43c-.34.345-.511.666-.694.675-.378.018-.787-.165-.797-.684-.004-.193.31-.577.43-.553.314.062.6.301 1.06.561M237.436 112.296c-.462-.55-.562-.973-.236-1.323.336-.362.693-.206 1.07.32l-.834 1.003M117.239 48.183l.104 1.058c-.23.05-.468.185-.563.104-.217-.184-.532-.5-.505-.715.066-.537.471-.602.964-.447M81.984 65.803c.378-.83.796-1.061 1.484-.7-.242.908-.727.952-1.484.7M186.794 31.453c.3.348.793.56.412 1.136-.233.352-.536.246-.768-.06-.441-.58-.046-.798.356-1.076M43.612 148.29c.346-.283.517-.507.727-.576.312-.101.692-.002.669.429-.013.222-.352.522-.59.595-.168.051-.414-.216-.806-.448M143.476 123.131c-.24-.334-.507-.555-.55-.822-.027-.168.283-.406.442-.611.216.264.454.512.625.81.026.046-.26.32-.517.623M32.909 164.93c-.353-.22-.577-.289-.582-.374-.032-.557-.017-1.118-.017-1.884.967.643.507 1.38.599 2.259M21.544 41.488c-1.208-.021-1.27-.138-.74-1.054l.74 1.054M157.702 117.177l-.891-1.225c.55-.042.967-.174 1.03-.06.166.307.182.72.258 1.09l-.397.195M233.18 53.594c-.42-.249-.77-.532-.418-1.095.087-.139.512-.209.607-.105.4.433.236.839-.19 1.2M156.851 41.577c.59.186.81.544.638 1.077-.038.117-.434.223-.567.139-.472-.302-.387-.725-.071-1.216M228.102 75.46c-.298-.386-.521-.633-.677-.924-.023-.042.336-.468.411-.432.245.117.484.333.629.582.051.09-.172.383-.363.775M159.001 216.354c-.076.759-.426.926-.88.782-.132-.042-.316-.472-.263-.56.268-.451.668-.406 1.143-.222M159.036 163.945c-.247-.358-.505-.679-.482-.706.214-.263.468-.493.737-.681.031-.022.357.33.33.393-.129.311-.332.584-.585.994M39.872 175.089c.299-.21.453-.409.59-.396.34.031.734.134.71.634-.007.17-.356.492-.445.451-.278-.126-.507-.391-.855-.689M236.675 176.882c.096-.585.174-1.054.68-.957.144.027.367.48.32.658-.147.556-.54.436-1 .3M92.643 13.928c-.296.38-.528.837-.955.427-.12-.115-.127-.628-.01-.758.352-.397.677-.196.965.331M188.065 17.816c.147.51.228.969-.379 1.08-.148.028-.474-.204-.48-.334-.036-.625.333-.771.859-.746M145.348 118.862c.408-.206.626-.401.838-.393.145.005.283.292.423.453-.166.185-.329.511-.5.516-.192.005-.39-.278-.761-.576M131.875 31.89c.317-.282.488-.553.633-.536.22.026.42.253.63.394-.163.195-.304.507-.493.55-.18.04-.409-.203-.77-.408M224.62 39.48l-1.548.953c.469-1.21.85-1.441 1.548-.953M114.94 59.424c-.264.272-.462.572-.54.537a.988.988 0 0 1-.49-.526c-.035-.104.241-.492.362-.484.193.013.375.249.669.473M196.658 166.373c-.208-.317-.445-.527-.415-.664.05-.227.27-.407.418-.607.167.183.45.354.467.553.016.186-.25.403-.47.718M136.038 58.46c.174.333.404.598.355.716-.09.215-.33.43-.534.47-.107.023-.417-.377-.383-.488.071-.235.309-.404.562-.698M110.289 67.028c.17-.07.375-.244.502-.188.247.108.45.345.671.527-.104.154-.239.455-.31.437-.251-.064-.48-.237-.719-.368l-.144-.408M130.687 57.478c.567.334.668.665.342 1.09-.078.101-.314.189-.385.133-.464-.363-.16-.72.043-1.223M206.947 183.137c-.186-.298-.379-.476-.387-.663-.005-.136.266-.427.356-.4.184.055.414.25.461.44.032.124-.224.34-.43.623M207.992 91.85c.806.13.712.6.452 1.241-.608-.236-.57-.68-.452-1.24M95.786 194.424c.27-.231.51-.522.578-.478.185.122.369.37.409.599.022.124-.297.474-.38.443-.203-.075-.357-.314-.607-.564M165.562 44.321c-.07.54-.22.876-.66.749-.102-.03-.23-.382-.187-.527.14-.482.446-.513.847-.222M196.834 67.607c.333-.42.62-.656.994-.24.076.084.096.368.032.453-.34.446-.656.271-1.026-.213M238.687 38.212c-.275.254-.436.46-.637.554-.06.028-.302-.23-.342-.394-.09-.365.102-.58.425-.54.146.018.277.183.554.38M156.871 116.302l-.777.572a56.24 56.24 0 0 0-.2-.147c.06-.25.052-.58.193-.735.269-.296.562-.222.784.31M149.812 176.308c-.24-.784-.08-1.07.33-1.106.127-.01.27.216.404.335l-.734.77M72.109 44.532c-.247-.083-.498-.153-.733-.268-.022-.01.014-.376.102-.439.41-.3.607-.002.77.334l-.14.373M66.08 116.077c-.223.235-.369.386-.513.539-.134-.171-.33-.323-.376-.52-.026-.116.204-.442.287-.429.18.03.34.217.603.41M22.317 101.748c-.199-.314-.361-.524-.458-.767-.017-.042.243-.226.375-.343.146.214.313.416.422.652.024.05-.16.224-.339.458M26.302 135.773c-.27.22-.428.405-.616.464-.064.02-.306-.304-.286-.434.025-.156.231-.353.382-.381.121-.023.277.176.52.351M43.439 121.304c-.179-.333-.395-.566-.355-.705.055-.187.306-.3.473-.447.103.16.3.332.285.475-.02.193-.205.364-.403.677M116.072 162.167l.971-.28c-.188.845-.509.832-.865.716l-.106-.436M111.3 11.258c-.227.187-.377.403-.49.38-.15-.029-.348-.228-.376-.388-.024-.134.165-.317.26-.478l.606.486M213.95 207.4c-.243.467-.554.57-.921.24-.06-.054-.043-.36.032-.44.35-.377.657-.308.889.2M202.694 157.364c-.389.003-.653-.146-.553-.606.027-.123.34-.296.445-.245.406.196.276.53.108.851M146.619 175.662l.923.65c-.734.424-.788.388-.923-.65M183.502 76.581c.464-.352.727-.166.889.23.033.084-.096.35-.197.392-.448.187-.59-.148-.692-.622M204.506 214.452c.366.152.664.315.508.808-.028.088-.287.177-.383.127-.407-.21-.407-.531-.125-.935M228.491 82.857c-.183-.314-.401-.531-.367-.67.048-.194.282-.33.436-.492.129.18.343.35.358.542.012.153-.216.331-.427.62M209.42 184.144c-.193-.295-.377-.47-.418-.68-.023-.126.178-.306.279-.462.15.166.36.305.425.505.04.122-.143.337-.286.637M95.761 220.56l-.233-1.335c.723.42.799.81.582 1.29l-.349.046M224.858 85.546c-.146-.23-.352-.43-.319-.529.07-.207.264-.36.408-.536.135.166.397.355.377.49-.029.192-.265.344-.466.575M218.902 125.9c-.158-.308-.312-.5-.339-.712-.011-.086.32-.343.38-.303.16.108.314.32.356.521.02.101-.207.268-.397.495M123.682 166.764c.46.606.45.903.097 1.092-.097.052-.261-.06-.394-.096l.297-.996M179.99 88.232c-.133-.285-.285-.462-.267-.615.017-.143.213-.26.331-.387.107.157.287.306.3.473.01.13-.184.282-.364.53M186.392 10.611l.112 1.034c-.17.006-.415.097-.5.003-.275-.306-.197-.619.388-1.037M237.273 67.996h1.328c-.477.534-.778.787-1.328 0M38.448 27.998l-.504-.427c.129-.178.232-.408.398-.511.07-.044.389.179.386.274-.005.194-.151.384-.28.664M187.036 198.736c-.168-.276-.335-.446-.361-.64-.012-.09.29-.348.387-.313.157.058.315.276.367.465.024.085-.202.26-.393.488M119.903 224.337c-.434-.16-.54-.416-.32-.77.057-.09.316-.151.368-.094.276.306.125.579-.048.864M202.016 23.959l.894-.706c.084.212.18.334.163.43-.106.565-.397.647-1.057.276M204.32 76.66c-.165-.346-.292-.572-.37-.817-.012-.037.287-.258.303-.239.158.182.308.385.408.611.022.05-.16.215-.34.445M152.428 193.607l-.425-.455c.1-.11.22-.326.298-.308.148.033.295.18.393.324.025.036-.14.237-.266.439M119.408 158.65l-.357-.527c.14-.108.299-.324.412-.296.125.031.243.273.288.448.017.066-.18.202-.343.374M137.933 147.859c-.2.173-.33.372-.458.37-.131-.001-.26-.199-.39-.31.135-.16.25-.365.416-.454.06-.033.238.21.432.394M58.66 155.48v1.004c-.142.022-.238.072-.28.038-.442-.372-.363-.667.28-1.042M55.982 53.144c-.172-.208-.356-.351-.336-.423.057-.206.196-.384.303-.573.098.112.279.226.276.335-.004.183-.125.362-.243.66M46.403 153.9c-.201-.273-.346-.433-.439-.625-.018-.038.22-.307.25-.288.168.106.33.248.442.422.03.047-.122.245-.253.49M188.674 82.125c-.2.184-.334.403-.46.397-.114-.006-.318-.267-.305-.393.016-.163.209-.303.326-.453l.439.449M129.1 241.675c-.176-.29-.31-.466-.384-.67-.016-.043.256-.29.279-.27.154.133.302.298.394.488.026.054-.14.227-.29.452M127.658 64.824c.167-.176.272-.364.347-.35.155.031.294.168.44.262-.088.144-.171.398-.269.405-.137.01-.284-.162-.518-.317M207.323 121.802c.243-.163.382-.309.537-.336.068-.012.17.215.256.334-.127.119-.242.288-.388.337-.076.025-.207-.164-.405-.335M224.585 98.833l.648-.404c-.02.62-.02.62-.648.404M179.227 128.284l-.516.357-.19-.421.57-.32.136.384M13.908 150.038l-.979-.462c.681-.084.681-.084.979.462M152.326 68.374c-.23.225-.342.395-.487.45-.062.022-.277-.203-.273-.307.006-.126.154-.3.272-.344.094-.036.237.089.488.2M7.863 126.716l-.339-.544.404-.298c.087.152.22.295.243.458.012.09-.163.212-.308.384M156.465 106.126c-.124-.227-.277-.417-.247-.47.088-.153.243-.27.393-.353.026-.014.24.24.217.309-.05.162-.193.287-.363.514M39.834 211.376c-.187-.224-.347-.341-.392-.5-.022-.08.206-.353.25-.333a.853.853 0 0 1 .388.357c.031.059-.122.245-.246.476M94.775 140.359c.21-.135.373-.302.428-.264.135.093.22.279.325.427-.102.09-.231.273-.301.248-.14-.05-.25-.215-.452-.411M63.048 153.858c-.147-.287-.273-.442-.292-.612-.009-.078.19-.261.294-.26.107 0 .31.185.3.26-.024.17-.15.324-.302.612M57.268 153.101c-.208-.027-.42-.036-.619-.1-.028-.009.01-.28.017-.43l.657.101-.055.43M69.59 182.965c.205-.192.333-.383.4-.36.141.05.256.208.363.341.01.013-.126.245-.18.238-.16-.019-.31-.109-.582-.219M135.985 73.062c.356-.173.52-.31.685-.311.105-.001.315.23.297.304a.674.674 0 0 1-.305.399c-.071.037-.224-.12-.677-.392M19.755 187.723c.182-.179.31-.38.378-.357.141.05.269.203.356.349.02.033-.158.308-.226.298-.148-.021-.285-.153-.508-.29M163.226 95.445c-.208.13-.372.294-.432.255-.133-.086-.235-.264-.302-.43-.014-.035.212-.274.268-.25.146.067.26.226.466.425M161.557 12.369l.61.17c-.038.116-.083.333-.11.33-.194-.022-.382-.09-.572-.144l.072-.356M157.633 110.211c-.205.123-.368.286-.431.246-.128-.08-.2-.27-.295-.416.116-.061.24-.184.346-.166.11.018.204.17.38.336M12.037 153.743c.125-.05.252-.14.374-.131.061.004.178.214.155.282-.043.126-.164.292-.262.3-.132.012-.274-.11-.411-.174l.144-.277M137.831 211.34c-.044-.16-.141-.332-.119-.479.025-.157.163-.292.251-.436.097.11.248.205.275.334.025.114-.09.264-.143.398-.088.06-.175.122-.264.182M115.48 183.376c-.206-.235-.382-.349-.38-.459.003-.12.171-.235.267-.353.081.076.22.143.231.228.017.136-.051.284-.119.584M112.891 191.267l.254.924c-.622-.175-.662-.45-.254-.924M113.01 114.307c-.194.19-.35.394-.386.37a1.131 1.131 0 0 1-.334-.404c-.019-.033.138-.26.183-.248.153.04.294.146.536.282M107.156 127.838c-.115-.24-.263-.438-.228-.5.085-.149.258-.233.395-.344.06.143.177.292.164.425-.011.119-.165.221-.33.42M40.735 213.77l.588.49-.138.262-.656-.377.206-.374zM40.645 218.3c-.103-.211-.241-.367-.216-.474.028-.12.196-.247.318-.27.059-.012.226.221.212.318-.019.131-.166.238-.314.425M92.471 33.712l.597-.677c.103.155.187.224.18.28-.051.437-.209.702-.777.397M91.998 135.256c-.159.15-.262.322-.364.321-.11 0-.218-.164-.328-.256l.316-.436.376.371M69.213 165.156c.144.16.291.319.423.492.006.007-.18.231-.192.221-.168-.137-.32-.298-.476-.453l.245-.26zM22.522 176.68c-.141-.178-.326-.32-.307-.406a.63.63 0 0 1 .303-.374c.058-.03.3.185.288.234-.045.175-.162.326-.284.545M142.7 178.196l-.468-.873c.449.094.604.385.467.873M148.344 126.532c-.136.106-.235.216-.353.258-.037.012-.193-.204-.175-.242.06-.127.175-.22.27-.327l.258.311M149.289 90.147c-.144-.17-.303-.278-.298-.376.004-.107.16-.283.253-.285.11-.002.22.15.33.236l-.285.425M153.89 55.761c-.059-.288-.148-.463-.102-.575.041-.1.234-.129.36-.19.046.141.149.294.123.417-.021.107-.188.181-.38.348M123.537 168.662c.135.233.257.35.264.476.007.138-.093.282-.147.423-.127-.124-.295-.224-.365-.38-.034-.076.116-.257.248-.519M59.618 164.348l-.509.352c-.067-.13-.2-.272-.183-.383.017-.111.182-.252.292-.266.094-.01.203.142.4.297M128.306 67.753c-.136.126-.265.27-.28.256a.932.932 0 0 1-.248-.34c-.014-.036.158-.23.195-.213.112.052.2.17.333.297M162.654 13.15c.154-.09.27-.183.397-.213.028-.007.164.247.134.303-.062.119-.2.186-.308.275l-.223-.365M165.36 66.45c-.133-.211-.235-.323-.27-.457-.013-.046.153-.222.218-.21.124.024.235.14.351.218l-.299.449M238.258 75.77c.197-.084.328-.169.465-.186.072-.008.155.104.232.161l-.26.431-.437-.407M175.116 89.369l-.289.28c-.074-.116-.18-.222-.21-.351-.014-.06.119-.163.185-.247l.314.318M98.1 12.5c.095-.18.147-.28.2-.378.108.078.244.136.313.246.031.049-.079.3-.117.296-.12-.007-.237-.09-.397-.164M181.861 99.002c-.167-.5-.252-.64-.244-.774.005-.078.16-.147.246-.22.08.126.2.244.224.38.02.107-.08.236-.226.614M188.74 55.117c-.128-.237-.261-.374-.248-.487.015-.126.166-.232.257-.346.086.12.228.23.242.36.012.111-.121.242-.25.473M47.245 145.354c-.041-.224-.11-.377-.079-.504.02-.082.187-.126.288-.187.054.141.144.282.147.425.002.064-.169.132-.356.266M94.332 107.139c-.142.049-.292.154-.423.13-.107-.02-.216-.18-.274-.307-.02-.042.108-.238.182-.25.108-.018.23.069.344.111l.171.316M203.12 98.53l-.423.325c-.072-.125-.173-.24-.205-.377-.011-.051.146-.22.214-.21.112.013.215.127.414.262M204.821 116.824c-.186.142-.285.259-.4.287-.054.013-.21-.165-.199-.224.03-.141.131-.263.204-.392l.395.329M206.618 18.491c-.136.124-.258.267-.28.25a.816.816 0 0 1-.242-.32c-.013-.031.157-.225.208-.208.107.035.19.16.314.278M207.217 211.681c-.114-.332-.229-.496-.19-.596.045-.12.221-.186.34-.275.055.112.163.232.151.336-.014.128-.128.243-.301.535M130.884 115.985c-.1-.206-.21-.337-.184-.404a.582.582 0 0 1 .28-.278c.043-.02.226.148.216.179-.044.127-.137.234-.312.503M86.265 46.166c.217-.124.356-.268.437-.234.113.049.184.228.273.352-.105.087-.213.247-.312.24-.106-.007-.204-.173-.398-.358M118.386 169.496c-.145-.25-.287-.388-.275-.506.011-.126.168-.235.262-.35.09.123.229.237.251.375.018.106-.112.243-.238.48M78.21 167.992c-.103-.166-.21-.33-.296-.505-.005-.01.167-.114.257-.174l.243.564-.205.115M119.508 173.75l-.329.443c-.094-.112-.22-.209-.268-.341-.023-.065.095-.275.156-.28.114-.008.234.087.441.178"/>
        <path fill="#CDB076" d="M217.727 141.324a.777.777 0 0 0-.586-.93l-6.688-1.522c-1.001-.228-1.346 1.288-.345 1.515l6.69 1.523a.777.777 0 0 0 .929-.586M23.359 96.295c-1-.228-1.346 1.288-.344 1.515l7.323 1.667c1 .228 1.347-1.287.345-1.516l-7.324-1.666zM215.34 114.71a.777.777 0 0 0 .07 1.553c1.332-.06 2.665-.12 3.997-.184 1.025-.049.952-1.602-.074-1.552-1.33.063-2.66.124-3.992.184M197.746 115.373c-2.79.141-5.674.288-8.481.345a.778.778 0 0 0 .032 1.555c6.402-.132 12.932-.708 19.445-.726a.777.777 0 1 0-.004-1.555c-3.689.01-7.401.199-10.992.381M49.448 121.813a.776.776 0 0 0-.797-.755c-4.864.136-9.832.365-15.014.596-1.025.045-.958 1.598.068 1.553 5.213-.232 10.144-.46 14.99-.595a.777.777 0 0 0 .753-.8M27.267 123.476c1.026-.039.968-1.593-.059-1.553-2.364.09-4.47.155-6.44.201-.911.022-1.04 1.334-.155 1.536.247.056 6.402-.175 6.654-.184M214.785 88.967c-1.561.46-3.204.96-5.023 1.526a.777.777 0 0 0 .461 1.484 335.547 335.547 0 0 1 5-1.519c.985-.29.548-1.782-.438-1.49M189.83 98.323a.774.774 0 0 0 .395-.014c3.918-1.184 7.877-2.458 11.704-3.69l2.377-.765a.778.778 0 0 0-.474-1.48l-2.379.764c-3.82 1.23-7.772 2.503-11.677 3.683a.777.777 0 0 0 .053 1.502M176.162 102.444a.772.772 0 0 0 .397-.015c2.617-.795 5.236-1.586 7.854-2.376a.777.777 0 0 0-.448-1.488c-2.62.789-5.239 1.581-7.856 2.377a.776.776 0 0 0 .053 1.502M38.411 145.2c2.905-.815 5.82-1.74 8.642-2.635 3.923-1.246 6.7-1.932 9.825-3.003 1.548-.53 3.135-1.043 4.67-1.539l.711-.23a.777.777 0 0 0-.477-1.48l-.712.231c-1.541.498-3.134 1.013-4.695 1.548-3.017 1.033-6.168 1.841-9.25 2.819-2.951.936-6.052 1.928-9.133 2.792-.989.278-.569 1.773.42 1.497M32.209 146.307a.776.776 0 0 0-.971-.513l-6.316 1.955c-.756.235-.714 1.325.058 1.5.288.067-.145.155 6.716-1.97a.777.777 0 0 0 .513-.972M204.583 66.783c.868-.547.042-1.863-.828-1.315l-11.21 7.063c-.588.37-.427 1.263.24 1.415.45.102-.338.483 11.798-7.163M177.852 83.355a.776.776 0 0 0 .586-.1l9.68-6.099a.778.778 0 0 0-.827-1.315l-9.68 6.098a.777.777 0 0 0 .24 1.416M168.026 89.545a.775.775 0 0 0 .585-.1l4.73-2.98a.778.778 0 0 0-.827-1.315l-4.73 2.98a.777.777 0 0 0 .242 1.415M51.848 161.168L35.573 171.42c-.586.37-.428 1.263.242 1.415.454.104-.685.701 16.86-10.353a.778.778 0 0 0-.827-1.315M187.029 45.626c-.517.57-1.564 1.493-1.97 2.066-.582.961-1.775 1.723-2.633 2.916-.604.84.666 1.735 1.26.909.338-.47.758-.874 1.204-1.302 1.85-1.778.675-.96 2.493-2.736.284-.277.552-.54.795-.808.691-.762-.46-1.805-1.15-1.045M178.455 54.89a7449.059 7449.059 0 0 1-8.496 9.228.778.778 0 0 0 1.142 1.054c2.835-3.074 5.667-6.151 8.497-9.23.695-.756-.447-1.81-1.143-1.053M157.96 78.823a.776.776 0 0 0 .743-.23c2.782-3.007 5.563-6.015 8.342-9.025a.777.777 0 0 0-1.14-1.055c-2.78 3.01-5.56 6.018-8.342 9.024a.778.778 0 0 0 .397 1.286M69.42 174.961c2.405-2.569 4.893-5.226 7.33-7.85 1.485-1.6 2.967-3.202 4.447-4.808a.778.778 0 0 0-1.142-1.053 1655.352 1655.352 0 0 1-4.443 4.804c-5.27 5.675-10.657 11.373-15.915 17.053a.778.778 0 0 0 .396 1.286c.62.141.03.499 9.326-9.432M53.128 192.577a924.718 924.718 0 0 1 3.56-3.91c.693-.756-.45-1.807-1.145-1.049a874.322 874.322 0 0 0-3.566 3.916c-.69.761.461 1.805 1.15 1.043M158.264 48.315c1.454-2.64 2.702-5.428 4.283-7.915 1.019-1.68 1.364-3.216 2.48-4.71.185-.287 1.314-2.4 2.12-4.233.414-.94-1.007-1.568-1.421-.626a53.407 53.407 0 0 1-1.976 3.974c-1.217 1.648-1.596 3.245-2.523 4.775-1.62 2.547-2.889 5.381-4.323 7.985-.498.904.867 1.645 1.36.75M154.016 53.052c-.678 1.033-1.318 2.175-2.013 3.59l-.721 1.474c-1.792 3.663-3.643 7.45-5.703 11.04a.778.778 0 0 0 1.347.774c2.085-3.635 3.949-7.445 5.75-11.13l.722-1.472c.665-1.357 1.274-2.445 1.917-3.424a.778.778 0 0 0-1.3-.852M82.855 189.553a.777.777 0 0 0-1.033.372c-2.718 5.777-6.173 10.995-8.81 16.815-.425.94.993 1.574 1.415.642 2.6-5.739 6.053-10.955 8.8-16.795a.777.777 0 0 0-.372-1.034M142.152 25.45l.715-3.145c.227-1.001-1.287-1.348-1.514-.345l-.715 3.145c-.227 1 1.287 1.347 1.514.344M138.736 40.485l2.143-9.431c.228-1.002-1.286-1.348-1.514-.345l-2.144 9.431c-.226 1.001 1.288 1.348 1.515.345M136.15 48.361a.776.776 0 0 0 .93-.586l1.118-4.922c.228-1.002-1.286-1.348-1.514-.345l-1.119 4.923a.777.777 0 0 0 .586.93M132.424 64.763a.776.776 0 0 0 .929-.586l2.453-10.796a.777.777 0 0 0-1.514-.345l-2.453 10.797a.777.777 0 0 0 .585.93M104.668 186.928a.776.776 0 0 0-.93.586l-4.802 21.137c-.227 1.001 1.287 1.347 1.514.345l4.803-21.138a.777.777 0 0 0-.585-.93M97.662 214.258l-.373 1.641c-.227 1.002 1.287 1.347 1.515.345l.372-1.641c.228-1.001-1.287-1.347-1.514-.345M117.202 24.388a353.36 353.36 0 0 1-.144-4.676c-.025-1.029-1.577-.99-1.553.036.035 1.461.082 2.997.145 4.698.037 1.024 1.59.972 1.552-.058M115.959 31.745c.163 3.594.335 7.292.448 10.934.031 1.024 1.584.982 1.552-.048-.113-3.638-.284-7.33-.449-10.957-.047-1.026-1.598-.957-1.551.07M116.6 48.587c.14 4.427.295 9.065.46 13.787a.777.777 0 1 0 1.553-.055c-.165-4.72-.32-9.356-.46-13.78-.033-1.027-1.585-.98-1.553.048M122.988 194.596a.777.777 0 0 0-.747.806l.857 23.101c.039 1.025 1.59.973 1.552-.057l-.857-23.102a.778.778 0 0 0-.805-.748M90.918 27.209c.204 1.006 1.727.698 1.523-.31-.194-.955-.404-1.447-.714-2.001-.143-.258-.279-.5-.25-.662.25-1.405-2.66-1.366-1.106 1.42.17.304.362.64.547 1.553M94.62 39.398c.31.979 1.791.51 1.48-.47-.687-2.171-1.369-4.262-2.065-6.434-.313-.978-1.792-.505-1.478.474.687 2.146 1.386 4.291 2.063 6.43M103.595 67.263a.778.778 0 0 0 .914-.987 23304.29 23304.29 0 0 1-6.627-21.602c-.301-.982-1.786-.527-1.485.456 7.11 23.207 6.577 21.991 7.198 22.133M138.255 174.965a.777.777 0 1 0-1.46.53c.435 1.2.75 2.377 1.057 3.517.218.812.443 1.652.711 2.499a.774.774 0 0 0 .975.506.777.777 0 0 0 .506-.975 57.921 57.921 0 0 1-.692-2.434c-.314-1.17-.639-2.38-1.097-3.643M143.347 192.053l-1.531-4.975a.776.776 0 1 0-1.484.459l1.531 4.974c.58 1.884 1.158 3.768 1.74 5.651.302.978 1.79.534 1.484-.458-.581-1.883-1.16-3.767-1.74-5.65M147.147 204.337c-.306-.98-1.79-.517-1.482.465 3.229 10.316 3.057 9.936 3.608 10.061a.778.778 0 0 0 .91-.998 907.894 907.894 0 0 1-3.036-9.528M70.02 40.548c.67.152 1.2-.585.83-1.173L67.8 34.53c-.546-.869-1.861-.042-1.314.828 3.327 5.29 3.103 5.093 3.533 5.19M78.591 54.174c.669.152 1.2-.584.83-1.172l-4.779-7.597c-.547-.868-1.862-.042-1.314.828 5.187 8.247 4.83 7.843 5.263 7.941M84.273 60.717l-1.791-2.848c-.548-.87-1.862-.043-1.315.828 1.925 3.061 1.859 3.097 2.277 3.193.668.152 1.199-.585.83-1.173M88.007 66.653l-.672-1.068c-.547-.869-1.862-.043-1.315.828l.672 1.068c.547.869 1.862.042 1.315-.828M93.035 77.565a.776.776 0 1 0 1.314-.828l-5.223-8.304c-.547-.869-1.862-.042-1.314.828l5.223 8.304zM165.418 189.73l-12.854-20.437a.776.776 0 1 0-1.314.827c13.897 22.096 12.883 20.677 13.339 20.78.668.153 1.199-.583.829-1.17M168.688 194.928c-.547-.869-1.862-.042-1.315.828 5.395 8.576 5.025 8.163 5.466 8.263.669.153 1.2-.584.83-1.172l-4.98-7.919zM46.511 51.134a.777.777 0 0 0 .285 1.061c.583.337 1.054.876 1.553 1.446 1.77 2.023 2.387 1.883 5.06 4.593.72.73 1.826-.36 1.105-1.092-1.072-1.088-2.284-2.145-3.812-3.328-1.086-.84-3.299-4.226-4.19-2.68M57.668 61.271a.778.778 0 0 0 .022 1.1l.39.375c3.898 3.748 3.848 3.703 4.135 3.768.771.175 1.285-.791.698-1.33-1.377-1.266-2.757-2.598-4.147-3.935a.776.776 0 0 0-1.098.022M70.238 71.853c-1.51-1.373-2.865-2.604-4.173-3.797-.758-.691-1.805.457-1.046 1.15 4.485 4.089 4.236 3.915 4.523 3.98.774.176 1.286-.795.696-1.333M84.014 84.632a558.199 558.199 0 0 0-9.594-8.964c-.756-.693-1.806.453-1.048 1.147 3.802 3.482 6.842 6.323 9.567 8.939.741.71 1.817-.41 1.075-1.122M193.471 186.087c-1.363-1.144-2.665-2.42-3.925-3.653-4.114-4.029-3.921-3.513-6.1-5.701-3.313-3.328-3.295-3.178-7.23-6.75-.76-.69-1.804.46-1.044 1.15 11.039 10.026.741.743 10.872 10.093 2.134 1.968 4.159 4.147 6.43 6.052.787.66 1.785-.53.997-1.191M31.445 72.488a.777.777 0 0 0 .527.964c1.052.308 2.247 1.521 3.343 1.868 1.641.373 4.092 2.948 4.663 1.38a.777.777 0 0 0-.463-.997c-.554-.203-1.047-.507-1.568-.83-2.516-1.552-1.39-.387-3.494-1.817-1.033-.703-2.654-1.778-3.008-.568M61.732 87.48c-5.694-3.001-11.514-6.071-17.209-9.144-.903-.487-1.641.88-.737 1.368 5.69 3.071 11.45 6.11 17.223 9.151.907.479 1.632-.896.723-1.375M78.568 97.288a.778.778 0 0 0-.317-1.053 1999.67 1999.67 0 0 0-13.085-6.945c-.907-.479-1.632.895-.723 1.375a1992.86 1992.86 0 0 1 13.074 6.94c.38.204.85.06 1.051-.317M184.008 151.884c-2.687-1.407-4.985-2.608-7.322-3.84-.908-.48-1.634.894-.724 1.374.16.085 7.338 3.873 7.513 3.912.88.2 1.336-1.026.533-1.446M189.363 154.698c-.908-.48-1.633.895-.725 1.374 1.468.776 2.8 1.485 4.072 2.169.904.485 1.64-.884.734-1.37a689.985 689.985 0 0 0-4.081-2.173M199.882 162.15c.21.113 7.68 4.053 7.911 4.106.881.2 1.336-1.03.53-1.448-2.641-1.372-5.214-2.705-7.715-4.03-.903-.483-1.636.89-.726 1.373M237.98 127.225l-8.134-.624c-1.216-.094-1.359 1.75-.14 1.843l8.134.625a.924.924 0 0 0 .14-1.844M11.223 109.82l-8.907-.684c-1.216-.093-1.36 1.75-.14 1.843l8.906.684c1.216.094 1.36-1.75.14-1.843M231.743 99.138c1.557-.302 3.114-.607 4.67-.914 1.197-.236.84-2.052-.357-1.814-1.555.307-3.11.611-4.665.913a.925.925 0 0 0 .352 1.815M223.672 98.806c-7.717 1.165-15.307 2.985-22.784 4.25a.925.925 0 0 0 .307 1.822c7.51-1.27 15.092-3.088 22.752-4.244 1.21-.183.931-2.01-.275-1.828M18.092 138.262c.097.499.58.828 1.083.731 6.092-1.181 11.854-2.31 17.53-3.314 1.204-.212.88-2.033-.322-1.82-5.698 1.008-11.502 2.144-17.56 3.32a.924.924 0 0 0-.73 1.083M11.307 138.616c-2.766.518-5.233.963-7.542 1.36-1.068.185-.99 1.75.085 1.833.3.024 7.51-1.322 7.797-1.376a.924.924 0 0 0-.34-1.817M221.412 71.469c2.032-.98 3.87-1.85 5.618-2.659 1.108-.512.333-2.193-.775-1.678a407.077 407.077 0 0 0-5.645 2.671.925.925 0 0 0 .802 1.666M198.523 82.492c.3.023-.59.528 16.255-7.784 1.094-.54.28-2.2-.816-1.658-5.665 2.795-10.737 5.314-15.763 7.684-.856.403-.616 1.686.324 1.758M192.895 84.242a.923.923 0 0 0-1.229-.443 4497.882 4497.882 0 0 0-8.83 4.166.925.925 0 0 0 .79 1.672c2.94-1.392 5.883-2.78 8.826-4.165a.925.925 0 0 0 .443-1.23M54.51 151.57l.798-.395a.925.925 0 0 0-.82-1.657l-.796.395c-5.79 2.865-21.76 10.593-25.905 12.447-.875.391-.642 1.693.307 1.766.555.042 9.002-4.123 10.154-4.685 6.138-3 .308.027 16.262-7.871M20.204 165.998l-7.09 3.402c-.849.408-.61 1.683.33 1.755.343.026-.162.215 7.558-3.49a.925.925 0 0 0-.798-1.667M198.43 53.076l11.96-10.264c.926-.795-.276-2.2-1.203-1.403l-11.96 10.264a.925.925 0 0 0 1.203 1.403M181.826 66.97c.542.041-.158.491 10.999-9.083.926-.795-.275-2.2-1.203-1.404l-10.327 8.863c-.626.538-.282 1.561.53 1.624M175.858 70.013l-5.046 4.33a.925.925 0 0 0 1.202 1.404l5.046-4.331a.924.924 0 0 0-1.202-1.403M47.13 180.491l-17.364 14.901c-.625.537-.283 1.561.53 1.624.553.042-.682.943 18.036-15.121a.925.925 0 0 0-1.203-1.404M183.146 28.495c.698-1.352 1.969-2.452 2.625-3.957.514-.842 1.268-1.707 1.817-2.528.68-1.016-.856-2.043-1.535-1.028-.519.777-1.314 1.684-1.898 2.657-.953 1.878-1.826 2.41-2.65 4.007-.561 1.087 1.081 1.933 1.64.849M169.882 47.156c.713.055.139.648 9.225-12.742.686-1.01-.841-2.05-1.528-1.039a9121.639 9121.639 0 0 1-8.388 12.339.925.925 0 0 0 .691 1.442M158.467 64.708c2.75-4.023 5.498-8.048 8.244-12.074.688-1.009-.837-2.053-1.526-1.042-2.745 4.025-5.493 8.05-8.242 12.072a.924.924 0 0 0 1.524 1.044M81.855 176.71a.923.923 0 1 0-1.527-1.04c-8.221 12.08-13.515 19.57-20.145 29.265-.69 1.007.834 2.053 1.524 1.043 2.817-4.117 5.704-8.288 8.497-12.323a2154.73 2154.73 0 0 0 11.652-16.946M56.081 210.966c-1.21 1.79-2.393 3.55-3.514 5.23a.925.925 0 0 0 .697 1.434c.735.056.586-.065 4.347-5.629.684-1.011-.846-2.048-1.53-1.035M152.68 29.161c.46-1.234.888-2.504 1.304-3.733 2.559-7.576 2.17-5.212 3.244-9.013.993-3.518 1.446-3.086 2.968-8.637.322-1.177-1.459-1.668-1.782-.49-.41 1.5-.99 3.28-1.633 5.022-1.144 2.15-1.312 4.096-2.136 6.058-1.462 3.28-2.462 6.835-3.696 10.148-.429 1.15 1.306 1.785 1.73.645M141.907 57.092a.924.924 0 0 0 1.197-.523c3.526-8.993 5.169-16.194 7.078-20.317.513-1.108-1.162-1.888-1.676-.777-1.033 2.232-1.62 4.193-2.335 6.435-1.47 4.621-2.99 9.4-4.786 13.983a.924.924 0 0 0 .522 1.199M87.4 209.097c-2.191 7.27-5.348 14.013-7.436 21.32-.336 1.175 1.44 1.682 1.775.508 2.06-7.206 5.214-13.943 7.43-21.294.352-1.169-1.416-1.704-1.769-.534M129.743 5.07l.293-3.825c.093-1.217-1.748-1.36-1.842-.14l-.293 3.823c-.093 1.217 1.749 1.36 1.842.141M128.342 23.355l.879-11.47c.093-1.217-1.748-1.36-1.842-.141l-.879 11.47c-.093 1.217 1.748 1.36 1.842.14M127.662 32.22l.46-5.986c.092-1.218-1.749-1.36-1.842-.141l-.46 5.986c-.093 1.218 1.749 1.361 1.842.142M125.142 53.019a.924.924 0 0 0 .992-.851l1.006-13.13c.093-1.218-1.748-1.36-1.842-.141l-1.006 13.13a.924.924 0 0 0 .85.992M113.757 201.588a.923.923 0 0 0-.992.85l-1.97 25.706c-.093 1.218 1.749 1.36 1.842.141l1.97-25.705a.924.924 0 0 0-.85-.992M110.273 234.963l-.153 1.996c-.093 1.218 1.749 1.36 1.842.141l.153-1.996c.093-1.217-1.749-1.36-1.842-.14M98.388 8.51a.925.925 0 1 0 1.815-.338 431.12 431.12 0 0 1-.983-5.477c-.208-1.206-2.027-.89-1.82.314.295 1.712.618 3.512.988 5.5M100.022 17.044c.819 4.2 1.665 8.52 2.431 12.786.216 1.202 2.035.875 1.818-.328-.766-4.26-1.61-8.572-2.436-12.812-.233-1.199-2.047-.847-1.813.354M103.71 36.747c.936 5.184 1.925 10.614 2.94 16.14a.924.924 0 1 0 1.818-.335 4979.439 4979.439 0 0 1-2.94-16.133c-.218-1.202-2.036-.875-1.819.328M137.723 208.153c-.223-1.2-2.04-.864-1.816.339l5.031 27.03c.223 1.198 2.04.866 1.816-.34l-5.03-27.029zM69.772 16.074c.416 1.148 2.153.52 1.737-.63-.22-.607-.513-1.322-1.02-2.01-.23-.31-.585-.701-.577-.955.048-1.663-3.39-1.175-1.054 1.863.252.329.537.69.914 1.732M76.25 29.77c.528 1.082 2.2.295 1.66-.812-1.188-2.434-2.353-4.776-3.55-7.21-.539-1.095-2.197-.282-1.658.816 1.183 2.406 2.379 4.807 3.547 7.205M91.66 60.987a.926.926 0 0 0 .904-1.32c-4.825-10.112-8.04-16.868-11.559-24.259-.524-1.102-2.193-.309-1.667.795C91.844 62.476 90.909 60.93 91.66 60.987M153.114 185.75c-.573-1.322-1.166-2.69-1.925-4.095a.924.924 0 1 0-1.625.879c.72 1.335 1.298 2.666 1.856 3.953.398.917.81 1.867 1.272 2.816.531 1.09 2.202.304 1.66-.81a68.02 68.02 0 0 1-1.238-2.743M157.488 195.286a.923.923 0 1 0-1.666.798c.89 1.86 1.779 3.723 2.667 5.584 3.263 6.837 3.086 6.815 3.794 6.869a.925.925 0 0 0 .903-1.321c-1.965-4.107-3.756-7.87-5.698-11.93M166.765 214.661a.923.923 0 1 0-1.662.806c1.903 3.936 3.616 7.435 5.238 10.697.544 1.095 2.198.27 1.654-.823-1.62-3.256-3.33-6.75-5.23-10.68M47.508 35.412c.813.062 1.31-.897.772-1.524l-4.43-5.17c-.796-.927-2.198.275-1.403 1.203 4.826 5.633 4.536 5.45 5.061 5.49M59.964 49.949c.813.062 1.31-.897.772-1.524l-6.945-8.104c-.795-.927-2.198.275-1.402 1.203 7.531 8.79 7.045 8.384 7.575 8.425M67.017 58.18c.813.062 1.309-.897.771-1.524l-2.604-3.04c-.794-.926-2.197.276-1.402 1.204 2.812 3.282 2.726 3.32 3.235 3.36M70.835 63.052l.977 1.14c.794.927 2.198-.275 1.402-1.204l-.976-1.14c-.795-.926-2.198.275-1.403 1.204M73.439 66.09l7.59 8.86c.795.927 2.198-.276 1.402-1.204l-7.59-8.86c-.795-.926-2.198.276-1.402 1.204M167.037 172.487a.923.923 0 1 0-1.403 1.203c20.195 23.569 18.758 22.08 19.311 22.122.813.062 1.31-.897.772-1.523l-18.68-21.802zM190.47 199.835c-.795-.927-2.198.275-1.402 1.203l7.239 8.449c.794.927 2.198-.275 1.401-1.204l-7.238-8.448zM22.211 53.165c.746.295 1.394.846 2.08 1.43 2.435 2.072 3.136 1.8 6.752 4.52a.923.923 0 1 0 1.11-1.476c-1.45-1.092-3.06-2.125-5.064-3.25-1.35-.759-2.446-2.25-4.199-2.943a.924.924 0 0 0-.679 1.72M36.8 63.236l.525.374c5.45 3.88 5.233 3.69 5.52 3.713.939.072 1.374-1.155.59-1.687-1.84-1.25-3.696-2.576-5.564-3.906a.925.925 0 0 0-1.07 1.507M52.628 73.895c.94.072 1.375-1.16.586-1.69-2.016-1.352-3.824-2.565-5.57-3.74-1.012-.681-2.045.852-1.03 1.534 6.05 4.072 5.689 3.87 6.014 3.896M57.765 77.496c5.08 3.434 9.15 6.246 12.813 8.848.995.707 2.066-.799 1.07-1.507-3.675-2.611-7.757-5.43-12.849-8.873-1.01-.683-2.047.848-1.034 1.532"/>
        <path fill="#CDB076" d="M136.447 201.299a6205.154 6205.154 0 0 0-5.144-27.786c-1.553-8.294-3.219-17.12-5.242-27.776-.755-3.976-1.513-7.952-2.27-11.929 3.956 12.756 7.953 25.59 11.947 38.293a.778.778 0 1 0 1.481-.467c-4.347-13.825-8.698-27.809-12.996-41.675a13296.582 13296.582 0 0 0 23.506 48.767.922.922 0 1 0 1.662-.808 12979.77 12979.77 0 0 1-22.208-46.06l20.795 33.06a.776.776 0 1 0 1.314-.828l-22.405-35.62c36.457 42.557 34.07 39.947 34.622 39.99.813.062 1.31-.897.772-1.524l-31.483-36.743 3.569 3.328 3.436 3.205a4242.96 4242.96 0 0 0 16.344 15.176 1865.623 1865.623 0 0 0 16.553 15.106c.762.686 1.803-.468 1.039-1.156a1869.569 1869.569 0 0 1-16.54-15.093 4307.548 4307.548 0 0 1-16.337-15.17l-3.437-3.205c-2.09-1.95-4.218-3.935-6.355-5.925 3.472 2.389 6.935 4.776 10.33 7.116l4.6 3.17c14.39 9.915 28.867 19.858 43.976 29.89 1.017.676 2.039-.864 1.02-1.54a2223.115 2223.115 0 0 1-22.086-14.873 5016.689 5016.689 0 0 1-21.862-15l-4.601-3.17-6.957-4.794a269.818 269.818 0 0 0 9.761 4.674c9.823 6.046 26.315 14.239 26.603 14.304.886.202 1.335-1.04.52-1.452-8.795-4.44-17.911-9.004-26.35-14.202l-.087-.046a275.048 275.048 0 0 1-13.042-6.348c6.522 2.286 12.629 4.235 18.68 5.967 10.849 4.646 22.347 8.424 33.568 12.146a.924.924 0 0 0 .581-1.754l-1.274-.424c-10.704-3.55-21.773-7.22-32.202-11.69l-.11-.04a330.061 330.061 0 0 1-18.173-5.789l71.591 16.292c1.001.228 1.346-1.287.344-1.515l-72.39-16.474 90.227 6.925c1.217.094 1.36-1.75.141-1.843l-88.28-6.776.624-.026.825-.015c1.472-.024 2.994-.05 4.45-.247 1.365-.172 2.76-.117 4.236-.058.933.038 1.897.076 2.876.055l.06-.003c.424-.042.871-.055 1.345-.069.883-.026 1.795-.052 2.7-.268 1.085-.143 2.234-.099 3.448-.053.57.022 1.157.045 1.77.047 1.263-.027 2.448-.126 3.593-.224 1.12-.095 2.28-.193 3.488-.218 4.2-.06 8.405-.214 12.472-.363 2.523-.092 5.132-.187 7.705-.259a.777.777 0 0 0-.043-1.553c-2.58.071-5.193.167-7.72.259-4.057.148-8.253.301-12.441.361-1.264.027-2.448.127-3.592.224-1.121.095-2.28.194-3.474.22-.567-.003-1.142-.025-1.698-.047-1.242-.048-2.525-.097-3.756.07l-.08.016c-.759.186-1.601.21-2.417.234-.469.014-.954.028-1.422.073-.922.018-1.852-.019-2.752-.054-1.474-.06-2.999-.12-4.5.068-1.371.187-2.847.212-4.274.235l-.846.016c-.92.036-1.835.075-2.753.111 1.77-.336 3.538-.674 5.312-1.009.316-.054.64-.107.967-.161 1.728-.286 3.515-.582 5.193-1.068 1.576-.44 3.226-.618 4.974-.806 1.103-.12 2.245-.242 3.393-.437l.069-.015a23.638 23.638 0 0 1 1.572-.315c1.034-.184 2.102-.375 3.128-.786 1.252-.358 2.61-.506 4.049-.664.673-.073 1.369-.149 2.09-.253 1.482-.252 2.858-.576 4.187-.89 1.302-.307 2.649-.625 4.066-.866 4.933-.803 9.853-1.717 14.61-2.6 2.954-.55 6.007-1.116 9.021-1.65a.924.924 0 0 0-.321-1.82c-3.023.535-6.08 1.103-9.036 1.652-4.748.881-9.658 1.793-14.576 2.594-1.482.252-2.857.577-4.188.89-1.302.308-2.648.625-4.048.864-.667.096-1.348.17-2.006.241-1.469.161-2.988.327-4.406.739l-.092.032c-.86.35-1.847.527-2.802.697a25.43 25.43 0 0 0-1.66.333c-1.083.182-2.183.301-3.248.415-1.745.188-3.55.382-5.282.867-1.581.458-3.314.745-4.988 1.021-.33.055-.657.109-.993.167l-.04.007.516-.157c5.348-1.775 10.672-3.404 15.82-4.98 4.025-1.231 8.187-2.505 12.296-3.83a.778.778 0 0 0-.475-1.48c-4.1 1.322-8.255 2.594-12.275 3.824-5.157 1.578-10.49 3.21-15.833 4.984-1.853.558-3.698 1.12-5.537 1.68 2.724-1.298 5.46-2.596 8.216-3.893 5.983-3.022 11.963-5.867 17.746-8.618 4.52-2.15 9.194-4.375 13.799-6.65a.925.925 0 0 0-.818-1.658c-4.592 2.269-9.26 4.49-13.775 6.638-5.792 2.756-11.782 5.606-17.761 8.626-1.833.862-3.656 1.726-5.476 2.59l30.716-19.351a.778.778 0 0 0-.828-1.315l-33.261 20.954 37.152-31.885A.925.925 0 0 0 165.387 79l-35.017 30.051 7.593-8.15c5.473-5.874 11.131-11.947 16.74-17.986a.778.778 0 0 0-1.139-1.058 13918.214 13918.214 0 0 1-16.737 17.983c-3.169 3.401-6.37 6.837-9.595 10.302a25391.01 25391.01 0 0 1 10.719-15.573c5.416-7.864 11.015-15.996 16.562-24.08a.925.925 0 0 0-1.523-1.046 16949.022 16949.022 0 0 1-16.56 24.077 44706.05 44706.05 0 0 0-8.216 11.933c5.282-9.951 10.68-20.169 15.896-30.427a.778.778 0 0 0-1.384-.705c-5.876 11.557-11.988 23.07-17.9 34.204l.708-1.998c5.03-14.163 10.23-28.809 15.144-43.472a.923.923 0 1 0-1.75-.588c-4.84 14.438-9.958 28.862-14.916 42.827l8.1-35.653a.777.777 0 1 0-1.515-.344l-8.716 38.364 3.744-48.849a.924.924 0 1 0-1.842-.141l-3.538 46.159c-.14-3.467-.276-6.812-.41-10.17-.351-8.77-.65-16.524-.913-23.704l-.106-2.926a.777.777 0 1 0-1.552.056l.106 2.927c.264 7.182.562 14.937.913 23.71.169 4.228.34 8.44.522 12.898-1.146-6.022-2.206-11.612-3.27-17.232a8285.244 8285.244 0 0 1-5.834-31.153c-.222-1.2-2.039-.867-1.817.336a8071.214 8071.214 0 0 0 5.837 31.16c.85 4.496 1.7 8.975 2.591 13.67a27346.894 27346.894 0 0 0-11.023-35.588.776.776 0 1 0-1.483.462c3.736 12.023 7.512 24.23 11.163 36.037.31 1.007.624 2.017.936 3.027l-2.573-5.37a33593.572 33593.572 0 0 0-19.41-40.453c-.528-1.1-2.193-.3-1.663.801 6.489 13.494 13.056 27.2 19.407 40.452l1.004 2.095-15.19-24.152c-.548-.87-1.863-.042-1.316.828l17.105 27.195L86.98 79.055c-.794-.927-2.197.275-1.402 1.203l24.62 28.734c-1.396-1.28-2.762-2.53-4.11-3.758-1.4-1.276-2.78-2.626-4.113-3.933a181.08 181.08 0 0 0-3.712-3.564c-1.309-1.21-2.704-2.315-3.972-3.505-1.332-1.248-2.654-2.565-3.992-3.86-.73-.707-1.358-1.313-1.967-1.911-.733-.718-1.822.39-1.087 1.11.636.625 1.277 1.243 1.974 1.918 1.314 1.27 2.652 2.604 4.01 3.878.686.643 1.406 1.261 2.101 1.86.625.535 1.27 1.09 1.879 1.652a178.262 178.262 0 0 1 3.68 3.534c1.344 1.315 2.733 2.676 4.154 3.97a2036.17 2036.17 0 0 1 6.015 5.507 2502.38 2502.38 0 0 0-9.853-6.664c-1.87-1.257-3.728-2.605-5.525-3.91-1.622-1.176-3.299-2.392-4.987-3.545-1.751-1.195-3.585-2.253-5.284-3.432-1.33-.922-7.728-5.54-8.015-5.75-.987-.718-2.075.777-1.086 1.496.858.624 1.718 1.238 2.657 1.912 1.766 1.266 3.572 2.6 5.392 3.862.92.639 1.874 1.24 2.797 1.821a81.336 81.336 0 0 1 2.498 1.618c1.667 1.138 3.333 2.347 4.944 3.515 1.81 1.314 3.682 2.672 5.579 3.948 1.85 1.244 3.727 2.512 5.65 3.813a1821.324 1821.324 0 0 1-22.306-11.557.777.777 0 0 0-.722 1.377c6.781 3.563 14.905 7.808 23.74 12.284.964.536 1.926 1.052 2.879 1.557a249.39 249.39 0 0 1-5.753-2.066l-.033-.012c-11.17-3.723-21.464-7.3-30.061-10.309a.923.923 0 1 0-.61 1.745c8.599 3.009 18.895 6.587 30.07 10.312 1.288.486 2.57.946 3.838 1.394L37.161 99.435c-1-.227-1.347 1.289-.345 1.517l71.83 16.346-89.545-6.874c-1.217-.093-1.36 1.75-.141 1.844l86.005 6.601c-17.033.744-33.153 1.445-49.854 1.941a.777.777 0 0 0 .047 1.554c16.938-.503 33.273-1.217 50.568-1.972l2.69-.118c-1.792.346-3.577.69-5.35 1.034-20.208 3.903-39.297 7.59-59.124 11.133a.924.924 0 0 0 .325 1.82c19.84-3.546 38.934-7.234 59.15-11.138l3.225-.623c-12.505 3.917-24.411 7.631-36.905 11.238a.777.777 0 0 0 .43 1.493c13.162-3.8 25.662-7.715 38.896-11.861l.232-.073-2.237 1.083c-14.839 7.18-28.854 13.963-43.659 20.72a.925.925 0 0 0 .767 1.682c14.449-6.594 28.14-13.21 42.573-20.195l-49.697 31.309a.778.778 0 0 0 .828 1.315l52.85-33.295-58.05 49.82c-.926.794.275 2.2 1.203 1.403l55.006-47.208c-1.983 2.149-3.971 4.305-5.962 6.472-3.843 4.345-7.694 8.481-11.418 12.482-2.437 2.619-4.959 5.327-7.469 8.084a.777.777 0 0 0 1.148 1.047c2.505-2.75 5.023-5.456 7.457-8.072 3.73-4.007 7.589-8.15 11.435-12.5 2.868-3.12 5.728-6.22 8.58-9.304-3.24 4.738-6.491 9.507-9.75 14.31-3.765 5.78-7.575 11.32-11.26 16.676a1191.232 1191.232 0 0 0-7.38 10.813.925.925 0 0 0 1.533 1.031c2.468-3.673 4.96-7.294 7.368-10.796 3.692-5.365 7.509-10.914 11.276-16.7 2.884-4.25 5.763-8.474 8.633-12.676-.556 1.066-1.113 2.13-1.668 3.2-9.211 18.1-17.587 34.41-26.827 50.698a.777.777 0 0 0 1.35.767c9.257-16.317 17.641-32.642 26.858-50.754.87-1.677 1.742-3.349 2.615-5.017-.98 2.807-1.96 5.62-2.934 8.449-7.685 22.901-14.7 43.549-22.735 64.324-.44 1.138 1.278 1.815 1.722.667 8.05-20.811 15.071-41.48 22.761-64.396.587-1.703 1.177-3.402 1.767-5.1l-10.97 48.284a.777.777 0 0 0 1.515.344l11.75-51.72-4.987 65.091a.925.925 0 0 0 1.842.142l4.753-62.028.342 8.307c.371 9.111.67 16.656.941 23.744.328 8.57.608 16.335.858 23.738a.778.778 0 0 0 .802.75.777.777 0 0 0 .75-.802c-.25-7.406-.53-15.173-.857-23.745-.272-7.09-.57-14.635-.942-23.748-.154-3.782-.31-7.564-.467-11.345.98 5.144 1.96 10.289 2.937 15.434 2.024 10.655 3.69 19.479 5.242 27.772a6226.614 6226.614 0 0 1 5.142 27.777.924.924 0 1 0 1.817-.332M218.088 185.111c-3.418-2.1-5.916-4.265-10.265-7.086-4.583-2.97-2.618-2.09-10.495-7.295-.782-.518-1.564-1.034-2.344-1.557-1.014-.68-2.044.856-1.028 1.537 13.043 8.738 2.839 1.997 14.548 9.978 2.853 1.943 5.615 4.153 8.618 5.999a.924.924 0 1 0 .966-1.576M17.483 83.919a.923.923 0 0 0 .256-1.827c-.687-.142-1.32-.414-1.99-.702-3.229-1.39-1.703-.214-4.426-1.53-.816-.394-1.66-.802-2.596-.932-1.22-.163-1.456 1.665-.254 1.832 1.243.172 2.586 1.214 4.108 1.59.671.107.795.031 2.44.738.287.124 1.775.778 2.462.83"/>
        <path fill="#CDB076" d="M45.928 92.073c-7.223-2.538-14.604-5.134-21.839-7.757-1.147-.415-1.778 1.322-.629 1.739 5.684 2.06 21.804 7.79 22.092 7.812 1.068.082 1.391-1.437.376-1.794M49.671 95.348a2329.09 2329.09 0 0 1 16.59 5.885.924.924 0 0 0 .626-1.74 2358.412 2358.412 0 0 0-16.604-5.89c-1.15-.404-1.765 1.34-.612 1.745M201 146.521c-3.406-1.186-6.32-2.199-9.284-3.241-1.15-.405-1.765 1.337-.612 1.743.2.071 9.31 3.277 9.521 3.293 1.07.082 1.393-1.44.374-1.795M212.97 150.743a826.497 826.497 0 0 0-5.18-1.845c-1.152-.407-1.766 1.338-.614 1.744 1.862.657 3.553 1.258 5.168 1.84 1.148.414 1.775-1.325.626-1.739M231.857 157.487c-3.347-1.154-6.606-2.274-9.779-3.397-1.147-.41-1.77 1.334-.616 1.742.265.094 9.743 3.43 10.024 3.45 1.07.083 1.392-1.443.371-1.795"/>
        <path fill="#FFF" d="M200.125 195.065c.329-.963 1.805-2.574 3.987-3.788.995-.554 2.217-.958 3.526-1.293-.653 3.41-2.097 6.613-3.877 8.38-.84.834-2.092 1.615-2.671 1.77-.669-.514-1.635-3.11-.965-5.07m-1.32-17.503c.287.222.73.54 1.173.832-.791.29-1.557.612-2.295.969.499-.702.855-1.37 1.122-1.8M63.389 141.325c5.227-6.277 5.78-13.849-.042-19.872 1.888-1.96 2.568-4.984 4.884-22.627-.04 5.529 1.032 8.053 4.696 10.641 1.068.756 2.562 1.81 4.4 2.245-4.602 3.086-7.728 8.457-7.529 13.902.113 3.1 1.839 5.45 3.269 6.88-1.2 1.697-1.281 3.934-1.33 6.003-.013.538-.123 1.743.916 2.86a3.45 3.45 0 0 0-.177 1.066c-.008 1.523-.278 3.412-.631 5.465-1.593-1.824-4.874-4.941-8.456-6.563m-6.539 29.54c-1.15 2.361-3.142 4.214-5.252 6.175-3.404 3.165-7.046 5.42-11.039 6.824 1.001-9.04 2.067-18.309 4.188-26.22.513-.28 1.16-.584 1.869-1.05.547-.358 1.004-.75 1.406-1.097.264-.225.662-.568.814-.64 1.198-.498 2.906-.906 4.352-1.038.307-.028.706-.044 1.125-.044.444 0 .893.017 1.298.048 1.476.114 2.735.41 3.268.624.178.39.49 1.405.635 3.283.452 5.873-1.186 10.105-2.664 13.135M97.167 38.728c.641 7.008-2.768 14.137-6.901 19.866 2.023-8.294 5.346-17.468 6.9-19.866m84.196 84.66c.33-.963 1.805-2.574 3.989-3.788.994-.553 2.215-.958 3.524-1.292-.652 3.41-2.096 6.612-3.876 8.379-.84.834-2.093 1.615-2.671 1.77-.669-.514-1.636-3.11-.966-5.07m-18.41-36.086c.963-7.623-.646-3.528 1.889-8.248a17.887 17.887 0 0 1 1.857-2.81c-.505 3.775-1.566 7.198-2.63 10.536-.368.158-.741.332-1.116.522m-23.712-6.93c-.887.6-1.82 1.317-2.73 2.126.115-1.33.215-1.388 1.931-4.472.386-.694.737-1.271 1.071-1.75a32.635 32.635 0 0 1-.272 4.095m-27.246 38.484c-5.475 0-5.096 3.037-5.236 5.835-.046.907-.092 1.829-.166 2.7-1.84-.705-3.622-2.046-4.159-2.754-1.47-1.94-3.232-3.344-5.632-2.65-.065-2.771-.514-5.399-1.725-7.486 3.536 1.029 6.212-.92 8.37-4.014.952 1.969 2.288 3.487 3.987 4.471 1.353.785 3.603 1.755 5.296 1.636.797-.056 1.57-.312 2.329-.773.02.132.047.264.079.396.522 2.158 2.553 3.606 4.565 4.275a42.78 42.78 0 0 0-.665 1.762 9.275 9.275 0 0 0-.325-.4c-1.661-1.933-4.047-2.998-6.718-2.998m-25.658 8.23a63.44 63.44 0 0 0-1.16-.191c-.475-1.905.31-4.429 1.558-5.518.098 1.727-.16 3.918-.398 5.71m73.527-3.654c-.388 5.716-.885 12.244-1.67 18.714a12.653 12.653 0 0 0-1.611-.1c-3.2 0-6.306 1.14-8.309 3.05-.375.358-.741.742-1.1 1.155-.633-2.38-2.259-4.552-4.492-5.902-1.38-.834-3.552-1.818-5.514-2.078a9.795 9.795 0 0 0-1.276-.086c-3.57 0-5.533 2.103-6.707 3.802.238-2.964.575-6.043 1.01-9.26 4.408-3.877 9.213-9.095 10.252-15.947.343-2.263-.319-4.5-1.864-6.299-1.667-1.94-4.164-3.1-6.678-3.1-.144 0-.287.005-.43.013.382-1.517.68-3.029.97-4.514.085-.428.168-.856.254-1.28.105-.524.214-1.037.329-1.543 1.607 1.555 3.77 2.676 5.683 3.063a7.91 7.91 0 0 0 1.573.161c2.253 0 3.957-.966 5.233-2.033-1.117 7.567-2.32 15.17-3.612 21.99-.07.37-.177.818-.289 1.292-.414 1.745-.93 3.917-.584 6.027.917 5.58 6.993 6.13 8.99 6.311a3.445 3.445 0 0 0 2.697-.946c3.341-3.207 2.492-5.49 6.734-28.379 7.223 3.737 11.991-3.793 15.666-11.136.546 5.215 2.691 8.11 6.073 10.32-7.63 2.794-11.998 8.472-12.792 14.063-3.53-1.325-8.279-1.133-8.536 2.642m-3.866 38.067c-.182 2.17-.827 3.466-1.388 5.599.363-2.025.807-3.614 1.388-5.6m-68.46-52.085a11.097 11.097 0 0 0-3.742-.163c.582-1.39.863-2.82 1.014-4.253a17.141 17.141 0 0 0 2.727 4.416m144.941 74.394c-1.305-2.822-5.022-3.79-9.872-5.116 1.625-10.871 1.901-19.162 2.062-28.141.087-4.862.007-8.466-1.828-10.582-2.498-2.881-6.464-2.663-9.304-2.796a3.448 3.448 0 0 0-2.58.987c-1.539 1.515-.796 2.237-1.028 10.148-1.319-4.237-5.73-6.954-10.17-6.954a3.451 3.451 0 0 0-3.423 3.868c.16 1.32.054 2.972-.18 4.744-.93-.98-2.292-1.873-3.693-2.51.5-.78.735-1.711.655-2.709-.144-1.822-1.519-3.014-2.7-3.85-5.366-3.796-11.743-3.303-16.722 2.655.795-4.878.506-4.644 1.124-8.483 3.017 1.93 6.955 3.064 10.537 2.768 4.22-.352 7.385-2.922 8.897-4.423 3.813-3.786 5.908-9.018 7.402-14.437 3.126 1.325 4.54 3.212 8.142 3.212 1.715 0 2.865-.835 3.407-2.061.51-1.156 2.041-5.173.29-8.329-1.263-2.278-4.023-3.107-6.241-3.773-.235-.071-.46-.139-.67-.205-.896-.282-1.762-.526-2.732-.8 1.596-10.6 1.879-19.445 2.058-27.935.1-4.797.045-8.357-1.578-10.506-2.39-3.164-6.777-2.95-9.553-3.083a3.448 3.448 0 0 0-2.583.985c-1.542 1.516-.797 2.237-1.03 10.152-1.84-5.893-8.843-7.485-11.131-6.82-.646-1.723-1.687-3.255-3.266-4.467-5.732-4.399-11.208-5.042-16.294.132-2.459-3.28-8.63-6.343-11.292-3.142a3.454 3.454 0 0 0-.75 2.775c.132.8.224 1.698.284 2.65-2.142-1.932-5.577-4.032-8.804-4.032-2.919 0-5.081 1.458-6.698 3.128-2.305-2.743-5.91-4.119-7.206-4.208-2.326-.478-5.734 1.243-4.994 5.862.17 1.068-1.21 11.904-1.473 14.059-.567 4.63-.303 6.058-.691 7.424 0 0-.685 1.188-1.226 2.252.698-4.692.902-7.835-.03-10.05-1.128-2.677-5.404-4.668-8.169-4.944a4.402 4.402 0 0 0 .338-2.724c-.252-1.341-1.1-2.939-5.475-4.622-2.57-.988-6.339-.811-8.724.54-3.899 2.206-6.982 6.8-9.206 13.689.442-4.243.429-3.676.513-5.33.022-.424.052-1.027.1-1.355.626-.694 14.183-11.175 18.947-26.7 1.328-4.326 2.087-10.634.237-15.363-2.458-6.28-9.59-11.22-15.732-7.758-9.102 5.13-15.753 28.655-17.938 38.919.498-4.796 1.29-16.955-.787-20.972-1.453-2.811-8.412-6.456-12.24-3.512-3.736 2.873.05 4.993-5.236 44.75-1.718.752-4.298 1.93-5.864 2.256-.979.204-2.458.512-3.738 1.712a3.454 3.454 0 0 0-.786 3.936c.69 1.533 1.825 2.438 2.185 2.8a3.447 3.447 0 0 0 3.023 1.254c1.45-.147 2.76-.477 3.962-.863-1.56 13.467-3.046 15.319-2.568 18.262-4.191.1-8.362 1.368-12.406 3.78-7.377 4.398-9.15 7.401-10.891 9.363-1.712 1.927-2.76 3.692-3.422 4.742-3.996 6.335-6.056 11.492-.495 16.527 1.543 1.397 3.983 3.134 6.94 3.61-2.089 7.47-3.457 14.98-3.91 19.135-4.713-1.262-7.465 2.574-6.933 7.473.875 8.064 8.193 15.483 18.657 15.483 9.846 0 18.73-4.538 25.568-11.245 4.634-4.546 7.738-7.877 10.28-13.561 1.688 1.486 4.51 2.91 7.012 2.613 2.978-.354 4.825-2.915 6.064-5.484 2.389 4.24 7.719 7.272 11.084 6.88 1.595-.187 2.86-1.05 3.873-2.146.728 1.543 1.771 2.739 3.128 3.582 1.46.904 5.073 2.73 7.445 2.547 2.455-.191 4.12-1.842 5.183-3.32 1.93 1.76 4.408 2.484 7.042 2.484-.986 9.481 1.114 15.876 5.934 18.035 1.018.456 2.745.988 4.262.988.415 0 .813-.04 1.183-.117 2.87-.606 4.145-3.44 4.99-5.316.073-.164.144-.321.211-.466 1.44-3.09 2.58-6.194 3.727-9.153 2.126 1.742 6.131 3.505 8.937 3.305 3.52-.25 5.686-3.342 7.37-6.421 2.428 2.164 9.846 6.104 13.281-1.167 3.76 2.278 7.14 3.288 10.136.1 2.156 2.344 6.098 4.053 8.477 3.839-10.888 9.103-6.926 25.144 8.073 27.127 4.365.577 8.223-1.076 11.485-4.114 4.152-3.867 6.263-9.313 7.706-14.617 3.358 1.425 4.668 3.378 8.545 3.198a3.45 3.45 0 0 0 3.02-2.111c.595-1.417 1.833-5.027.486-7.937"/>
        <path fill="#0D603D" d="M75.174 139.01c.055-1.942.003-4.965 1.608-5.044 2.03-.1 4.662 1.675 5.575 3.112.11 2.123-.38 4.85-1.93 4.936-1.666.091-4.302-2.067-5.253-3.005M72.387 101.454c-.047-.351.107-1.461-.108-1.288.047.352-.108 1.462.108 1.288m0-1.61c-.061-.655.128-2.128-.108-2.253.061.657-.128 2.13.108 2.254m.107-3.112c-.047-.351.108-1.462-.107-1.288.046.352-.109 1.462.107 1.288m.107-1.717c-.035-.258.092-1.226-.107-.965.035.258-.092 1.226.107.965M94.9 57.89c2.706-4.294 5.79-10.625 5.79-17.168 0-2.91-.224-6.975-3.645-6.438-.815.128-1.74 1.152-2.252 1.824-1.552 2.041-2.518 4.808-3.538 7.51-2.961 7.852-5.654 18.025-6.647 26.612 3.5-3.422 7.265-7.533 10.293-12.34M90.72 32.782c-.379.388-.872 1.088-.214.322.612-.576 1.897-1.596 2.144-1.824-.855.288-1.278 1.01-1.93 1.502m-10.186 75.324c-2.146 1.035-4.114-.393-5.681-1.502-1.908-1.348-2.887-2.523-3.11-5.58-.373-5.13.96-11.93 1.18-16.523-2.071.932-4.403 2.532-6.54 3.755-1.537 7.889-2.073 15.91-3.646 24.25-.332 1.766-.823 6.362-2.358 6.867-1.04.342-2.675-.357-3.538-.75-1.382-.632-2.792-1.708-3.002-3.005-.226-1.39.596-4.208.857-5.687.952-5.397 1.83-11.322 2.252-17.061-2.484.662-5.076 2.144-8.256 2.468-.245-.316-.642-.61-.965-.966-.34-.374-.558-.647-.75-1.072.812-.762 2-.762 3.002-1.074 2.58-.804 5.033-2.046 7.398-3.004 1.682-12.348 3.129-25.556 3.537-38.95.06-1.939-.19-4.832.644-5.473 1.741-1.339 6.425 1.102 7.076 2.36.561 1.088.77 3.755.858 5.044.745 10.944-1.81 22.406-2.573 32.083 2.26-.992 4.75-2.684 6.754-4.292 1.886-14.204 5.468-28.219 11.15-39.701 1.744-3.523 4.172-7.9 7.291-9.657 2.214-1.248 4.666-.696 6.54.644 1.754 1.253 3.553 3.485 4.288 5.365 1.535 3.921.8 9.437-.321 13.09-2.902 9.456-8.77 16.289-15.117 22.64-1.03 1.03-3.327 2.554-3.753 3.756-.352.996-.275 2.582-.429 3.97-.728 6.56-1.382 13.33-1.715 20.28-.131 2.734-.063 5.477-1.073 7.725"/>
        <path fill="#0D603D" d="M172.846 120.554c.238-1.512-.311.489-.107 1.073.089-.468.07-.835.107-1.073m19.62.536c.452-1.909 1.153-4.14.965-6.33.014 2.374-.793 4.499-.965 6.33m-.536-6.974c-2.869.578-5.861 1.135-8.255 2.468-2.413 1.342-4.823 3.486-5.575 5.687-1.291 3.774.627 9.444 3.966 9.656 1.852.118 4.297-1.733 5.361-2.79 2.91-2.889 5.027-8.378 5.254-13.734.015-.372.265-1.213-.322-1.395-.195.014-.247.07-.429.108m-92.955-9.765c-.072.206.884-1.433.644-1.395-.201.48-.502.857-.644 1.395m47.282 17.812c-.468 2.44-1.064 4.92-1.072 7.404 1.685-9.83 3.454-19.577 4.932-29.615.088-.255-.152-.494-.108-.107-1.161 7.581-2.356 15.044-3.752 22.318m4.074-23.391c-.111-.44.33-.878 0-1.18.143.47-.32.886 0 1.18m11.472 1.609c1.093-1.696 2.398-3.752 2.895-5.687-1.42 1.369-3.032 3.117-2.895 5.687m2.359-2.254c.622-1.487 1.766-3.024 2.037-4.506-.576 1.535-1.617 3.175-2.037 4.506m-24.337-3.862c.617-.782 1.166-2.247 1.5-3.327.097-.312.445-.984.215-.858-.412 1.485-1.28 3.083-1.715 4.185m-2.038 1.288c1.828-1.998 2.97-5.254 3.43-8.263-1.833 2.005-3.957 4.247-3.43 8.263m-47.71-7.619c1.151-4.248 3.087-8.284 5.039-11.373-2.383 3.015-4.08 7.29-5.04 11.373m69.69-14.807c.137-.509.8-1.057.75-1.395-.21.435-.848 1.007-.75 1.395m-47.818 35.624c1.243-.91 2.091-2.447 2.895-3.97 1.934-3.665 4.153-7.582 6.111-11.482.386-.767.987-1.615 1.18-2.253.56-1.849.379-4.385.643-6.545.52-4.252 1.03-8.346 1.501-12.77.106-.997.212-2.11.215-3.11.001-.778-.615-2.182.536-2.576.65-.108.234.187.321.644.295-.064.23-.812.537-.537 3.59 1.021 5.789 3.433 6.754 7.082 1.932-2.472 4.407-7.642 9.542-5.58 1.245.5 2.782 1.501 3.86 2.36 2.665 2.127 3.57 5.817 3.966 9.658.469.144 1.262-.31 1.93-.322.294-4.717.581-10.671-.107-14.807.399-.48.672.654.75-.108 3.882.908 6.205 3.377 6.862 7.511 2.539-2.634 5.272-8.083 10.829-6.33 1.468.463 3.273 1.606 4.396 2.468 4.96 3.806 2.145 13.679.536 19.421 1.108.25 2.68.036 3.967.107.715-4.396 2.434-10.376 1.822-14.485 3.364.075 6.715 2.24 7.077 5.472.447 4.008-.686 8.461-1.501 12.662-.388 1.997-.634 4.128-.965 6.116-.313 1.872-1.158 4.262.429 5.687 2.142-1.136 3.42-3.713 4.717-6.01 1.3-2.302 2.511-4.842 2.894-7.832.792-6.18 1.181-13.152.965-20.28 2.48.12 5.652-.027 6.97 1.717 1.188 1.573.888 6.727.857 9.657-.107 10.197-1.024 20.802-2.465 29.078 1.421.585 3.484 1.06 5.574 1.717 1.674.527 4.259 1.147 4.932 2.36.752 1.358.26 3.7-.429 5.259-2.362.109-3.743-1.329-5.36-2.146a24.842 24.842 0 0 0-5.468-2.04c-1.49 6.32-3.36 12.409-7.398 16.417-1.636 1.625-4.045 3.209-6.755 3.434-3.787.316-8.163-1.495-10.4-3.863-2.104-2.228-3.616-6.27-2.68-10.193.55-2.305 2.019-4.596 3.538-6.116 3.839-3.842 9.941-6.044 17.37-5.794.244-2.462.206-5.498.106-7.726-1.425 1.483-2 4.717-4.824 4.936-2.524.195-6.748-2.524-7.934-4.4-1.995-3.154-2.088-7.313-1.394-11.266-1.745-.03-3.178.252-4.61.536-2.137 3.97-4.052 8.764-6.969 12.018-.838.935-2.349 2.475-3.752 2.575-2.143.153-4.918-2.009-5.468-3.54-2.13-5.932 4.447-10.842 8.79-12.125 1.868-5.902 4.037-12.044 3.539-19.959-3.707 1.08-6.706 4.458-8.577 7.94-.642 1.196-1.63 2.587-1.822 3.649-.216 1.188-.088 2.517-.215 3.755-.347 3.39-.907 6.734-1.5 10.087-1.554 8.754-3.311 17.516-4.719 26.288-.355 2.211-.662 4.48-1.072 6.653-.373 1.977-.677 4.172-2.144 5.58-2.547-.231-5.461-.78-5.897-3.434-.312-1.903.519-4.326.858-6.116 2.465-13.008 4.607-28.866 6.433-41.74-.669.118-1.29.283-1.823.537-.615 5.817-1.883 10.947-5.146 14.485-1.303 1.413-2.877 3.079-5.36 2.576-2.078-.422-4.744-2.3-5.254-4.078-.52-1.81-.09-3.849.643-5.472 1.511-3.35 5.225-6.364 7.612-7.726.642-3.382.896-8.51-.107-11.696-3.545.257-5.344 2.852-6.862 5.58-.85 1.527-2.037 3.411-2.25 4.936-.27 1.91-.15 3.718-.43 5.472a45.837 45.837 0 0 1-1.072 4.828c-.847 3.079-1.688 5.998-2.36 9.336-.623 3.104-1.157 6.337-2.358 9.335-.707 1.766-2.435 6.882-4.503 7.189-1.363.202-3.703-.95-3.967-2.039-.262-1.084.6-2.818.858-3.97.86-3.82 1.556-8.252 2.145-12.018-2.114 3.102-3.603 7.464-6.004 11.052-.632.945-1.905 2.605-3.002 2.683-.824.058-2.594-.758-3.324-1.18-4.004-2.32-4.443-9.081-3.645-14.808-1.768 4.286-2.983 9.165-5.576 12.232-.618.732-1.738 1.849-2.787 1.932-1.264.1-2.778-.88-3.86-1.503-3.044-1.753-5.741-5.386-6.218-9.55-.292-2.54.266-5.58.858-8.476 1.435-7.026 4.239-15.468 9.327-18.349 1.417-.801 4.109-.968 5.79-.321.493.19 3.18 1.276 3.323 2.038.272 1.443-2.247 1.701-3.109 2.254-2.94 1.884-4.274 6.786-5.36 10.408-1.853 6.172-2.872 12.653-1.823 19.421 1.491-.871 2.624-3.666 3.538-5.15.557-.904 1.348-3.46 2.037-5.365 1.358-3.758 2.359-7.28 3.645-11.374.54-1.714 1.714-4.276 2.895-4.614 1.728-.495 5.7 1.559 6.218 2.79.682 1.618.219 4.676 0 6.653-.667 6.037-2.844 11.988-2.466 18.563"/>
        <path fill="#0D603D" d="M191.608 192.23c.238-1.512-.31.49-.107 1.073.089-.468.07-.834.107-1.073zm19.62.537c.452-1.909 1.154-4.14.965-6.331.014 2.375-.793 4.5-.965 6.33zm-.535-6.975c-2.87.578-5.862 1.136-8.256 2.468-2.412 1.342-4.823 3.487-5.575 5.687-1.29 3.775.627 9.445 3.967 9.657 1.851.118 4.297-1.734 5.36-2.79 2.911-2.889 5.027-8.379 5.254-13.734.016-.372.265-1.213-.321-1.395-.195.014-.247.07-.43.107zm-66.259-23.391c1.256-5.11 3.744-9.558 6.111-13.198-2.828 3.536-5.109 8.192-6.11 13.198zm15.975-13.306c-5.02 1.884-6.6 7.382-8.255 13.306-1.625 5.812-2.3 12.663-.215 17.168 3.135-2.415 4.804-7.14 6.004-11.589.417-1.545 1.021-3.151 1.287-4.613.445-2.455.199-4.982.536-7.404.327-2.35.919-4.606.75-6.868h-.107zm-31.413 31.761c.817-9.512 3.25-17.464 5.896-25.108.888-2.564 1.947-5.113 2.36-7.833-3.341 10.32-7.515 20.379-8.256 32.941zm45.03-28.649c.962-2.434 2.627-4.738 3.86-6.545-1.681 1.717-3.197 4.17-3.86 6.545zm-56.931-17.168c-2.028 11.955-5.348 22.618-5.361 36.59 1.393-.991 2.07-2.8 3.11-4.614.675-1.178 2.682-3.813 2.894-5.15.085-.536-.086-1.183-.107-1.718-.343-8.569.677-18.006 1.93-25.644h-.215c-.626.303-1.501.357-2.251.536zm-41.813-14.7c.315-.758 1.066-1.65 1.179-2.254-.386.689-1.194 1.523-1.18 2.254zM83 130.103c2.211.184 4.06.73 6.326.859.377-4.011 1.835-10.148-.108-13.52-6.601-1.15-9.623 8.642-6.218 12.661zm51.248-15.773c-3.68 2.11-4.732 6.852-6.004 11.374 2.929-2.434 6.301-5.925 6.219-11.374h-.215zm-8.899 41.31c1.375-3.425 3.514-6.885 5.575-9.978 1.275-1.913 2.247-4.439 5.79-3.97 1.326.175 3.026.91 4.181 1.61 1.64.99 2.979 2.823 3.11 4.828.237 3.63-1.261 7.411-2.252 10.408-3.008 9.096-7.147 19.159-7.398 30.366 2.092-3.807 4.138-8.98 6.004-13.734.623-1.586 1.695-3.32 1.93-4.721.117-.696-.038-1.392 0-2.147.208-4.184 1.424-8.134 2.895-11.696 1.434-3.473 3.175-6.826 5.467-9.013 2.289-2.182 7.37-3.022 10.4-.75 1.063-7.414 1.713-15.24 2.252-23.178 2.673-.888 7.076 1.565 7.934 3.327 1.403 2.88.073 7.14-.214 10.3-.537 5.891-1.731 11.03-2.895 16.633-1.509 7.259-4.118 15.234-1.073 21.888 1.16-.414 1.449-1.862 2.038-3.111.467-.993 1.648-2.515 1.715-3.648.053-.904-.666-2.35-.75-3.434-.304-3.898.74-7.67 1.715-10.837 1.328-4.321 3.293-8.106 6.111-10.623 2.104-1.88 5.448-3.18 9.006-1.395.43.215 2.733 1.563 2.788 2.253.106 1.339-1.975 1.177-3.002 1.61-.565.237-1.424.873-1.93 1.395-2.392 2.468-4.068 6.67-5.254 10.944-1.205 4.347-2.225 9.456-.321 13.628 3.728-3.702 5.145-10.555 6.755-17.169.433-1.78.725-5.167 2.465-5.472 1.584-.277 5.158 1.806 5.575 2.79 1.13 2.662-.955 7.786-1.715 10.408-1.274 4.393-2.677 8.857-.965 12.876 1.332-.962 2.21-2.793 3.216-4.507.877-1.494 2.165-3.368 2.573-5.043.375-1.533.265-3.377.537-5.15.782-5.122 2.707-11.888 2.144-16.524 3.352.062 6.716 2.247 7.076 5.472.447 3.998-.687 8.47-1.5 12.661-.39 2.001-.639 4.154-.966 6.117-.314 1.884-1.156 4.257.429 5.687 2.142-1.136 3.42-3.713 4.717-6.01 1.3-2.302 2.512-4.842 2.895-7.832.792-6.18 1.18-13.152.965-20.28 2.475.117 5.434-.038 6.862 1.61 1.294 1.493.98 6.683.965 9.657-.056 10.235-1.054 20.88-2.466 29.185 1.448.618 3.523 1.052 5.682 1.717 1.605.494 4.369 1.252 4.932 2.468.649 1.402.095 3.647-.536 5.15-2.363.11-3.743-1.328-5.361-2.146a24.861 24.861 0 0 0-5.468-2.038c-1.503 6.401-3.398 12.6-7.612 16.524-2.166 2.017-5.026 3.702-8.684 3.22-3.113-.412-6.257-1.64-8.256-3.757-2.094-2.216-3.718-6.428-2.68-10.407.566-2.175 2.077-4.44 3.538-5.902 3.836-3.839 9.942-6.046 17.368-5.794.245-2.462.208-5.498.108-7.726-1.426 1.482-2.001 4.717-4.825 4.936-1.965.152-4.457-1.298-6.004-2.468-1.141-.864-2.015-2.015-2.68-3.005-.79 1.198-1.488 2.47-2.36 3.863-.714 1.144-1.525 2.944-3 3.112-1.252.143-3.905-1.178-4.826-1.931-1.548-1.267-2.545-3.049-3.216-4.936-1.218 1.28-2.12 4.912-4.503 5.043-1.256.069-4.166-1.635-5.146-2.36-.683-.506-1.323-1.306-1.93-1.825-1.481 1.865-1.565 5.786-4.181 6.223-1.388.233-3.79-.77-5.04-1.716-1.675-1.27-2.477-2.917-3.537-4.614-.806 1.786-1.413 3.644-2.466 5.472-.891 1.547-2.381 4.15-4.396 4.292-1.8.127-4.754-1.255-6.004-2.146-1.676-1.194-2.828-2.87-3.646-4.4-2.113 4.572-3.647 9.547-5.897 14.379-.63 1.355-1.477 3.586-2.787 3.863-.909.192-2.546-.296-3.323-.644-4.097-1.835-4.56-8.925-3.86-15.022.967-8.436 3.07-15.921 5.36-22.748 1.238-3.688 2.956-7.15 3.324-10.73-2.765 2.014-4.836 5.301-6.647 8.907a42.957 42.957 0 0 0-2.359 5.579c-.633 1.865-1.759 4.092-1.93 5.902-.303 3.204 1.074 6.352.322 9.656-4.827.7-8.387-1.68-8.148-6.76-.847 1.037-1.47 2.826-2.36 4.4-.743 1.315-1.89 3.198-3.537 3.326-1.306.101-4.352-1.412-5.36-2.039-3.284-2.04-3.071-7.84-2.252-12.66-.93 1.541-1.839 3.84-2.895 5.9-.792 1.545-2.259 4.616-4.074 4.829-1.32.155-3.1-.86-3.967-1.395-3.062-1.889-5.344-5.052-4.932-9.979.773-9.239 7.17-16.584 10.078-23.391-1.814-.867-4.377-.985-6.647-1.395-1.652 9.905-3.69 19.204-6.969 27.898-.854 2.263-2.373 6.588-4.717 6.867-1.255.15-2.766-.677-3.539-1.18-6.98-4.55-1.01-18.96-.965-27.04 3.295-.081 6.74 1.23 6.97 4.829.396 6.233-4.056 13.201-3.002 19.528 2.569-3.862 4.134-9.09 5.575-14.378 1.456-5.346 2.268-11.229 3.216-16.954-5.062-.493-9.476-2.23-12.544-4.828-1.353-1.145-2.815-2.963-2.895-5.15-.235-6.455 5.789-12.811 11.901-12.877 2.467-.026 5.16 1.236 6.54 3.005 2.588 3.316 1.546 10.705.965 15.773 2.61.733 5.089 1.457 7.505 2.682 1.767.896 5.196 2.474 5.682 4.4.469 1.853-1.39 4.265-2.359 6.009-2.846 5.124-6.374 11.77-7.29 18.24-.287 2.03-.02 3.762.536 5.688 2.008-1.65 3.193-4.311 4.396-6.867 3.556-7.558 7.076-15.94 7.934-26.29-2.38-.372-4.88-1.314-7.183-2.145-2.328-.84-5.268-1.735-5.79-3.434-.447-1.453.768-4.321 1.822-4.4.955-.07 1.82 1.695 2.466 2.254 2.263 1.957 5.136 3.702 9.007 3.97.786-2.538.734-5.917.964-9.013 5.61-1.165 8.087 3.526 7.29 8.799.783.102 1.816-.471 2.681-.644.685-3.284 1.671-6.885 3.11-10.087 1.601-3.566 3.324-7.6 6.432-9.227 3.228-1.692 7.75 1.202 7.183 4.935-.97 6.41-6.17 11.38-10.078 14.7-1.084 7.625-1.86 16.068-1.608 24.68zM53.946 179.569c2.324-2.161 4.578-4.264 6.004-7.19 1.937-3.973 3.482-8.679 3.002-14.914-.16-2.082-.613-4.716-1.823-5.687-1.054-.845-3.617-1.269-5.254-1.395-.975-.075-2.137-.08-3.002 0-1.82.167-3.88.673-5.36 1.288-1.045.434-1.862 1.431-2.788 2.038-1.08.71-2.246 1.05-3.002 1.932-2.806 9.853-3.859 21.461-5.146 32.834 6.941-1.266 12.6-4.472 17.369-8.906m-.965-54.401c-3.348 6.627-6.26 13.694-8.684 21.245.89-.258 1.475-.944 2.358-1.395.95-.484 2.106-.587 3.002-1.073.89-.482 2.017-1.997 2.787-3.112 2.796-4.046 5.412-9.133 5.04-15.344-1.217-.277-3.143-.893-4.503-.321m4.288 17.919c3.401.553 6.12 1.801 8.47 3.755 3.58 2.978 6.78 6.209 7.184 12.232.36 5.382-1.807 10.552-3.753 13.95-2.045 3.572-4.944 6.512-8.04 9.55-2.981 2.922-6.558 5.491-10.293 7.296-3.946 1.906-9.33 3.281-14.689 2.897-3.51-.251-6.479-1.77-8.899-3.863-1.784-1.543-4.095-4.721-4.502-8.477-.201-1.848.287-3.606 1.393-3.862 1.33-.31 4.032 1.268 4.503 2.038.454.742.263 1.773.429 2.79.22 1.348.643 2.511 1.18 3.326-1.5-5.437-.693-11.155.214-16.31 2.715-15.432 7.735-28.957 14.045-40.666-3.201 1.888-5.687 5.11-7.827 8.476-2.154 3.392-3.818 7.462-4.824 11.696-.234.982-.066 2.29-.965 2.898-2.06-.273-3.966-1.528-5.361-2.79-.955-.864-2.125-2.227-2.251-3.863-.227-2.93 2.58-7.006 3.752-8.906.78-1.264 1.688-2.532 2.68-3.648.985-1.109 1.891-2.322 2.895-3.327 2.136-2.138 4.685-3.875 7.183-5.365 3.332-1.986 7.737-3.707 12.974-3.219 4.458.416 8.222 3.674 9.97 6.546.84 1.379 1.437 3.611 1.287 5.472-.432 5.354-3.9 7.837-6.755 11.374"/>
        <path fill="#00583D" d="M136.284 43.648l2.739-5.541 2.353 4.537a268.93 268.93 0 0 1 5.194-.885l.756-.12.384 4.173-.423.225c-.5.265-1.355.75-2.335 1.332a123.65 123.65 0 0 1 9.334-2.063l-15.354-28.6-16.225 30.7a116.296 116.296 0 0 1 13.577-3.758M146.165 51.945l4.53 9.006h11.711l-5.875-11.287a102.311 102.311 0 0 0-10.366 2.281"/>
        <g transform="translate(115.489 49.213)">
            <mask id="b" fill="#fff">
                <use xlink:href="#a"/>
            </mask>
            <path fill="#00583D" d="M14.354 3.988l.43-.372c.672-.575 1.693-1.372 2.853-2.23L18.27.128C13.8 1.266 9.035 2.695 3.833 4.725l-3.77 7.014h12.371l2.941-5.854-1.021-1.897z" mask="url(#b)"/>
        </g>
        <path fill="#00583D" d="M164.091 59.388h-.326v.35h.326c.112 0 .198-.053.198-.174 0-.117-.086-.176-.198-.176m.147.533l.254.497h-.248l-.24-.476h-.239v.476h-.208v-1.233h.54c.22 0 .404.116.404.372 0 .195-.104.315-.263.364m-.253-1.046a.93.93 0 0 0-.947.948.93.93 0 0 0 .947.949.93.93 0 0 0 .947-.95.93.93 0 0 0-.947-.947m0 2.076c-.64 0-1.128-.486-1.128-1.128 0-.641.487-1.129 1.128-1.129.64 0 1.128.488 1.128 1.129 0 .642-.488 1.128-1.128 1.128"/>
        <g transform="translate(108.722 42.44)">
            <mask id="d" fill="#fff">
                <use xlink:href="#c"/>
            </mask>
            <path fill="#E21837" d="M59.502 2.34c-8.478.064-19.402 2.216-28.169 4.976 2.268-1.436 5.624-3.47 6.878-4.13l-.274-2.97C26.667 2.052 15.257 4.355 0 11.78l1.456 3.031c11.216-5.554 20.402-8.065 28.746-9.973-2.72 1.7-6.687 4.654-8.373 6.13l1.584 3.006c8.75-4.26 23.921-8.145 35.923-8.23l.166-3.402z" mask="url(#d)"/>
        </g>
    </g>
</svg>
