<svg xmlns="http://www.w3.org/2000/svg" width="130" height="130" viewBox="0 0 130 130">
    <g fill="none" fill-rule="evenodd">
        <circle cx="65" cy="65" r="65" fill="#F8E71C"/>
        <path fill="#4F4F4D" d="M65.216 36.95l.279-.294c.95-1.095 1.408-2.05 1.476-2.875.036-.52-.077-1.06-.432-1.657-.23-.385-.563-.797-1.04-1.24l-.162-.141-.202.204c-1.26 1.281-1.634 2.327-1.598 3.138.032.765.437 1.643 1.409 2.621M66.755 48c.247 0 .45-.037.62-.077l-.004-7.01a1.984 1.984 0 0 0-.616-.085h-3.029c-.256 0-.454.031-.616.072v7.01c.162.049.36.09.616.09m1.188 6.058c4.964 0 9.405-.652 12.56-1.675 1.588-.517 2.772-1.096 3.523-1.676.783-.597.91-1.023.91-1.227 0-.416-.622-1.403-3.146-2.431-1.75-.707-4.082-1.295-6.786-1.67l-1.854-.2v3.178c0 .815-.495 1.377-.9 1.671-.666.498-1.589.72-2.466.72h-3.029c-.873 0-1.804-.222-2.47-.72-.405-.294-.9-.856-.9-1.67v-3.243l-2.268.231c-2.772.367-5.148.956-6.94 1.671-1.2.48-2.06.987-2.6 1.472-.54.489-.63.82-.63.991 0 .204.126.63.904 1.227.756.58 1.94 1.16 3.528 1.676 3.155 1.023 7.596 1.675 12.564 1.675m2.052 7.163c.09-.104.234-.204.428-.367.355-.312.751-.715 1.188-1.123.436-.403.98-.878 1.597-1.204.644-.34 1.458-.575 2.367-.344.04.013.086.022.122.032.567.172 1.134.561 1.516.842.419.303.896.688 1.328 1.01 1.093.81 1.498.85 1.597.85 0 0 .014-.008.04-.036.122-.117.244-.344.392-1.095.059-.29.13-.707.239-1.087.108-.398.288-.865.612-1.3.945-1.272 2.169-1.444 2.767-1.557.329-.059.441-.1.518-.14.027-.019.112-.064.225-.286l.004-.009v-2.01l-.153.1c-.967.58-2.142 1.082-3.438 1.503-3.492 1.127-8.235 1.81-13.4 1.81-5.171 0-9.91-.683-13.402-1.81-1.305-.421-2.475-.924-3.447-1.503l-.153-.1v1.761l.081-.004c.392-.014.887.036 1.418.303.508.254.846.643 1.057 1.05.225.43.315.888.365 1.255.05.367.063.751.076 1.06.01.334.023.592.05.819.018.176.045.267.063.308l.08.081c.109.077.15.077.131.073-.004 0 .063.013.27-.095.23-.11.464-.268.828-.508.32-.217.756-.498 1.247-.697a3.26 3.26 0 0 1 1.831-.24 3.34 3.34 0 0 1 1.72.847c.377.349.697.774.877.996.364.448.567.648 1.134.648.328 0 .634-.159 1.237-.702.243-.218.612-.57.95-.833.36-.281.86-.607 1.49-.716a2.72 2.72 0 0 1 .859-.022c1.003.144 1.867.833 2.673 1.815l.063.073c.117.095.225.208.32.348.035.05.067.1.094.127m.099.684l-.081-.353-.212.344m.149.729l.058-.113c.045-.087.072-.168.09-.24l.032-.204-.027-.127-.315-.018-.374.607m-13.216 3.45V62.28l-.32.194c-.44.218-1.021.43-1.7.372a2.67 2.67 0 0 1-.275-.041c-.64-.118-1.197-.462-1.679-.942a2.587 2.587 0 0 1-.45-.63c-.22-.434-.31-.887-.36-1.245-.04-.375-.058-.751-.067-1.059-.014-.335-.023-.593-.054-.815a.566.566 0 0 0-.036-.145l-.108-.054-.068.004v4.895c0 .2.13.63.91 1.227.755.584 1.939 1.164 3.527 1.675l.675.186m21.213.62l.64-.108a26.36 26.36 0 0 0 2.591-.698c1.589-.511 2.772-1.091 3.528-1.675.783-.598.91-1.028.91-1.227v-4.329l-.24.055c-.368.072-.535.104-.701.172a.988.988 0 0 0-.392.335c-.045.059-.103.176-.17.403-.064.244-.109.498-.185.869-.122.607-.333 1.712-1.148 2.513a2.684 2.684 0 0 1-1.381.77c-.82.176-1.58-.05-2.165-.317l-1.287-.793m-11.547 4.832l-.022-.114v-5.225l-.473.417c-.598.539-1.61 1.399-3.055 1.399-1.75 0-2.65-.924-3.24-1.648l-.14-.159v4.56l2.187.39c1.062.14 2.187.257 3.348.334m4.073.104l3.154-.104 2.984-.303v-6.013l-.126.04c-.225.127-.522.358-.945.748-.383.358-.837.815-1.27 1.19-.422.363-1.034.83-1.759.992a2.41 2.41 0 0 1-1.881-.312l-.126-.1v3.69m-.486 9.898c8.195 0 15.557-1.077 20.83-2.784 5.554-1.802 7.858-3.985 7.858-5.583 0-.833-.621-1.952-2.511-3.174-1.373-.892-3.25-1.73-5.549-2.463l-.909-.258-.14.955c-.643 2.187-3.388 3.627-6.182 4.532-3.492 1.132-8.23 1.807-13.401 1.807-5.166 0-9.905-.675-13.397-1.807-2.803-.905-5.548-2.354-6.187-4.532l-.14-.955-.904.262c-2.304.73-4.18 1.567-5.549 2.459-1.885 1.227-2.51 2.34-2.51 3.174 0 1.59 2.29 3.776 7.86 5.583 5.27 1.707 12.637 2.784 20.831 2.784m2.907 11.506c.73.027 1.283-.195 1.796-.589.549-.421 1.035-1.037 1.566-1.802.517-.76 1.04-1.621 1.624-2.332.594-.72 1.427-1.508 2.592-1.725 1.99-.362 3.317.195 4.379 1.136.886.793 1.44 1.69 2.29 2.396.162.14.284.217.365.253l.09.041c.08-.072.225-.213.432-.552.256-.421.508-.965.787-1.612.405-.92 1.184-2.885 2.327-3.75a3.223 3.223 0 0 1 1.147-.556c.257-.055.513-.073.76-.06.748.037 1.373.386 1.814.703.45.312.882.715 1.215 1.023.662.607 1.026.842 1.3.924.118-.136.289-.435.487-1.015.216-.606.427-1.417.675-1.915l.135-.172v-5.528l-.153.135c-1.773 1.363-4.212 2.459-6.867 3.32-5.607 1.824-13.27 2.92-21.668 2.92-8.401 0-16.06-1.096-21.667-2.92-2.642-.852-5.085-1.952-6.863-3.315l-.162-.145v6.846l.04.113.014.114.203-.15c.135-.1.279-.208.445-.335.554-.398 1.517-1.073 2.655-1.073.905 0 1.63.39 2.147.964.468.53.738 1.178.918 1.72.328 1.024.468 2.156.693 2.709.094.244.18.407.252.511l.013.014.027.022.117.145.095.01c.274-.014.747-.222 1.764-.874.616-.403 1.804-1.218 2.844-1.504 1.31-.357 2.668-.018 3.604 1.445 1.418 2.218 2.331 2.753 2.907 2.798.594.04 1.544-.362 3.218-2.183.571-.62 1.197-1.14 1.908-1.362a2.41 2.41 0 0 1 1.97.23c1.09.639 1.657 1.984 2.593 3.184.76.987 1.656 1.734 3.172 1.793m-26.518 6.484v-8.721l-.504-.97c-.342-.85-.482-2.032-.76-2.883-.136-.412-.253-.63-.343-.73-.045-.045-.05-.054-.117-.054-.126 0-.418.09-1.053.553-.697.507-1.242.996-1.921 1.236l-.383.086v6.964c0 1.19 1.287 2.716 4.284 4.165m46.584.933l.599-.213c4.18-1.652 5.913-3.49 5.913-4.885v-6.027l-.347.195c-.247.095-.517.15-.819.15-.783 0-1.44-.3-1.948-.626-.504-.317-.959-.72-1.314-1.046-.392-.357-.675-.62-.954-.815-.207-.144-.324-.19-.396-.199a.367.367 0 0 0-.113.064c-.148.113-.369.38-.652.905l-.059.118.09.444M51.423 97.846v-9.844l.014-.135c-.59-.63-1.148-1.386-1.683-2.228-.176-.267-.28-.299-.288-.299-.01-.01-.086-.036-.302.023-.234.063-.517.194-.895.412-.374.212-.752.466-1.193.751-.706.453-1.845 1.214-3.024 1.304h-.022v8.309l.054.018c1.314.426 2.763.815 4.32 1.16l3.015.529m24.43.403l.576-.059c2.642-.362 5.08-.842 7.25-1.422l.684-.199v-8.567l-.194.177a2.682 2.682 0 0 1-.54.326c-.432.2-.913.285-1.426.222-.698-.09-1.328-.453-1.886-.92-1.012-.846-1.696-1.865-2.344-2.449-.28-.244-.527-.39-.801-.475-.275-.077-.67-.123-1.274-.014l-.18.09.023.028c.067.163.112.348.112.53M62.35 98.86V88.31l-.535-.747c-.207-.312-.392-.593-.54-.82a5.471 5.471 0 0 0-.423-.56l-.153-.078c-.117.136-.288.28-.513.534-1.656 1.789-3.42 3.206-5.427 3.052l-.603-.104v8.68l4.788.48 3.402.113m2.718.082l5.818-.195 2.232-.222V88.202l-.666.878c-1.093 1.268-2.551 2.364-4.725 2.282a6.465 6.465 0 0 1-2.529-.589l-.117-.063v8.15m-.162 2.835c-8.401 0-16.06-1.105-21.667-2.92-5.283-1.712-9.76-4.411-9.76-8.196V68.83l.008-.022-.009-.068c0-3.785 4.442-6.516 10.08-8.29l1.616-.458v-10.46l.004-.027v-.027c0-2.282 2.187-3.907 4.955-5.021 2.047-.815 4.657-1.444 7.605-1.838l2.61-.268V40.46c0-.81.49-1.363.895-1.666.333-.25.734-.43 1.161-.544l.248-.031-.76-.91c-.644-.947-1.045-1.98-1.094-3.107-.095-2.277 1.273-4.378 3.622-6.312a1.346 1.346 0 0 1 1.66-.054c2.494 1.802 3.776 3.844 3.605 6.149-.08 1.091-.49 2.128-1.107 3.102l-.846 1.118.329.045c.423.113.823.295 1.16.544.401.303.892.855.892 1.666v1.956l2.205.235c2.893.403 5.454 1.037 7.456 1.857 2.696 1.086 4.856 2.698 4.856 4.971l-.045.272.045.2v10.042l1.61.453c5.63 1.775 10.085 4.514 10.085 8.295l-.04.561.04.2v21.077c0 3.785-4.441 6.475-9.751 8.195-5.607 1.816-13.27 2.92-21.668 2.92"/>
    </g>
</svg>
