<svg xmlns="http://www.w3.org/2000/svg" width="130" height="130" viewBox="0 0 130 130">
    <g fill="none" fill-rule="evenodd">
        <circle cx="65" cy="65" r="65" fill="#F8E71C"/>
        <g fill="#4F4F4D">
            <path d="M59.627 62.31c1.291-12.687 9.846-22.194 22.01-22.194 13.152 0 22.038 11.09 22.038 25.431v.141c0 14.34-8.886 25.573-22.18 25.573-8.131 0-14.56-4.15-18.327-10.655-2.466 6.664-8.946 10.655-17.818 10.655-7.962 0-13.79-2.826-18.625-7.418l6.611-7.841c3.768 3.39 7.465 5.369 11.872 5.369 5.119 0 8.318-2.473 8.318-6.853v-.14c0-4.24-3.626-6.712-8.815-6.712-3.128 0-5.972.848-8.318 1.837l-6.327-4.168 1.422-24.371h30.568V50.5H40.872l-.569 8.548c1.99-.495 3.768-.848 6.54-.848 5.07 0 9.61 1.282 12.784 4.11zm22.01 19.131c6.611 0 10.806-6.64 10.806-15.611v-.142c0-8.971-4.408-15.753-10.948-15.753S70.69 56.505 70.69 65.547v.141c0 9.042 4.336 15.753 10.947 15.753z"/>
            <path d="M73.843 67.847v-1.354l-1.328-2.08h.888l.825 1.378.839-1.378h.864l-1.328 2.065v1.369h-.76zm2.66 0v-3.434h2.607v.672H77.26v.696h1.629v.673h-1.63v.72h1.877v.673h-2.631zm3.11 0l1.482-3.459h.7l1.482 3.459h-.795l-.316-.77h-1.461l-.316.77h-.775zm1.363-1.438h.918l-.459-1.113-.459 1.113zm2.933 1.438v-3.434h1.58c.439 0 .78.122 1.006.348.193.191.297.461.297.785v.01c0 .554-.302.902-.74 1.064l.843 1.227h-.888l-.74-1.1h-.598v1.1h-.76zm.76-1.766h.77c.37 0 .582-.196.582-.486v-.01c0-.324-.227-.49-.597-.49h-.755v.986zm4.137 1.815a2.207 2.207 0 0 1-1.466-.55l.449-.534c.31.255.637.417 1.032.417.31 0 .498-.123.498-.324v-.01c0-.191-.118-.29-.696-.437-.696-.176-1.145-.367-1.145-1.05v-.01c0-.622.503-1.034 1.21-1.034.503 0 .932.157 1.283.436l-.395.57c-.306-.212-.607-.34-.899-.34-.29 0-.444.133-.444.3v.01c0 .226.148.3.746.451.7.182 1.096.432 1.096 1.03v.01c0 .682-.524 1.065-1.27 1.065z"/>
        </g>
    </g>
</svg>
