<svg xmlns="http://www.w3.org/2000/svg" xmlns:xlink="http://www.w3.org/1999/xlink" width="130" height="130" viewBox="0 0 130 130">
    <defs>
        <linearGradient id="a" x1="24.917%" x2="84.592%" y1="99.632%" y2="-10.902%">
            <stop offset="0%" stop-color="#FFF33B"/>
            <stop offset="5.949%" stop-color="#FFE029"/>
            <stop offset="13.03%" stop-color="#FFD218"/>
            <stop offset="20.32%" stop-color="#FEC90F"/>
            <stop offset="28.09%" stop-color="#FDC70C"/>
            <stop offset="44.86%" stop-color="#FFF"/>
            <stop offset="66.85%" stop-color="#F8B019"/>
            <stop offset="100%" stop-color="#FFF"/>
        </linearGradient>
        <radialGradient id="b" cx="49.994%" cy="50.053%" r="49.962%" fx="49.994%" fy="50.053%">
            <stop offset="0%" stop-color="#414042"/>
            <stop offset="71.62%" stop-color="#403F41"/>
            <stop offset="94.05%"/>
        </radialGradient>
        <circle id="c" cx="29.144" cy="29.007" r="28.994"/>
        <linearGradient id="e" x1="49.884%" x2="49.884%" y1=".064%" y2="99.906%">
            <stop offset="0%" stop-color="#E2D565"/>
            <stop offset="13.26%" stop-color="#E2D462"/>
            <stop offset="23.91%" stop-color="#E4D25A"/>
            <stop offset="33.65%" stop-color="#E7D049"/>
            <stop offset="42.79%" stop-color="#ECCF2F"/>
            <stop offset="50.9%" stop-color="#F1CD00"/>
            <stop offset="100%" stop-color="#A27B41"/>
        </linearGradient>
        <linearGradient id="f" x1="49.854%" x2="49.854%" y1="100.136%" y2="-.165%">
            <stop offset="0%" stop-color="#FFF33B"/>
            <stop offset="5.949%" stop-color="#FFE029"/>
            <stop offset="13.03%" stop-color="#FFD218"/>
            <stop offset="20.32%" stop-color="#FEC90F"/>
            <stop offset="28.09%" stop-color="#FDC70C"/>
            <stop offset="66.85%" stop-color="#F8B019"/>
            <stop offset="100%" stop-color="#FFF"/>
        </linearGradient>
    </defs>
    <g fill="none" fill-rule="evenodd">
        <circle cx="65" cy="65" r="62.5" fill="#F8E71C" stroke="#CABC13" stroke-width="5"/>
        <g transform="translate(16 16)">
            <g fill-rule="nonzero">
                <path fill="url(#a)" d="M72.856 91.98c-1.254-.465-3.3-.995-6.072-1.725-.33-.066-.33-.066-.33-.133 0 0 0-.066.066-.066 16.169-6.963 26.662-22.879 26.794-40.518.066-11.87-4.421-23.078-12.737-31.567C72.262 9.483 61.174 4.775 49.361 4.708h-.33c-24.22 0-44.085 19.829-44.283 44.166-.132 17.773 10.23 33.887 26.465 41.05.066 0 .066 0 .066.066s0 .066-.198.132c-3.63.929-5.412 1.393-6.204 1.725C9.5 83.027.129 66.58.261 48.874.459 22.017 22.369.2 49.097.2h.396C76.42.398 98.132 22.614 97.934 49.67c-.264 17.441-9.767 33.688-25.078 42.31z"/>
                <path fill="#F7941D" d="M48.965.133h.396C76.287.332 97.934 22.48 97.736 49.538c-.132 18.236-10.163 34.02-24.88 42.375-2.244-.796-6.402-1.79-6.336-1.79h.066c15.641-6.765 26.662-22.349 26.794-40.585.198-24.603-19.534-44.697-44.019-44.896h-.33c-24.352 0-44.15 19.696-44.349 44.232A44.532 44.532 0 0 0 31.147 89.99s-4.29 1.06-6.402 1.724A49.04 49.04 0 0 1 .195 48.808C.459 21.884 22.237.133 48.965.133zm0-.133c-13 0-25.21 5.04-34.45 14.258C5.277 23.476.13 35.678.064 48.742-.07 66.448 9.368 82.96 24.679 91.78h.132c.858-.265 2.574-.795 6.204-1.724.264-.066.264-.066.264-.199 0-.066-.066-.132-.132-.132-16.17-7.162-26.53-23.277-26.399-40.983.066-11.804 4.752-22.879 13.067-31.168 8.448-8.224 19.47-12.8 31.216-12.8h.33c24.353.2 44.02 20.293 43.887 44.764C93.116 67.11 82.623 83.027 66.52 89.99c-.066 0-.132.066-.132.132 0 .133 0 .133.396.2 2.772.729 4.818 1.26 6.072 1.724h.132c15.245-8.621 24.814-24.869 24.946-42.442.132-13.13-4.884-25.532-14.057-34.882C74.704 5.372 62.494.132 49.427.066L48.965 0z"/>
            </g>
            <path fill="#FFF" fill-rule="nonzero" d="M49 .97l.46.63.995.105-.766.472.23.734L49 2.544l-.92.367.154-.734-.69-.472.996-.105zM45.042.97l.536.577.996.053-.69.524.307.682-.996-.262-.842.367.076-.682-.766-.472.996-.157zM40.621 1.94l.42.525h.682l-.367.577.21.63-.682-.21-.525.42v-.683l-.577-.367.63-.262zM36.688 2.91l.42.767.734-.153-.368.919.263.92-.682-.23-.472.689-.105-.996-.577-.536.63-.383zM32.702 3.881l.524.69.682-.23-.315.919.367.92-.681-.154-.472.766-.158-.996-.63-.46.63-.459zM29.058 5.822l.766.42.996-.21-.383.681.613.525h-.996l-.613.524-.307-.629-.995-.262.919-.367zM25.994 6.792l.842.613.92-.383-.23.996.613.766h-.996l-.536.919-.383-.996-.996-.23.842-.612zM21.883 9.703l.919.315.92-.315-.23.734.765.472-.995.105-.46.63-.46-.682-.995-.105.689-.472zM18.883 11.696l.896.315.896-.367-.15.681.822.42-.97.157-.449.682-.447-.63-1.045-.052.671-.524zM14.712 14.86l.682.307.577-.613v.996l.524.613-.63.307-.21.995-.419-.842h-.682l.42-.843zM73.053 90.238l-.842-.368-.996.263.306-.682-.69-.525 1.073-.052.536-.577.307.682.996.157-.766.42zM76.04 88.297l-.919-.367-.842.315.153-.682-.69-.472.996-.105.46-.63.46.63.995.157-.766.472zM79.105 85.334l-.92-.315-.842.367.076-.682-.766-.472.996-.105.383-.681.537.629.995.052-.69.525zM82.169 83.14l-.996-.307-.766.613v-.996l-.843-.613.996-.307.307-.995.536.842h1.072l-.613.843zM85.281 81.045l-.682-.23-.524.69-.053-1.072-.576-.46.629-.383.157-.996.42.766.734-.077-.367.843zM88.297 77.01l-.734-.152-.472.766-.105-.996-.63-.46.63-.46.105-.995.472.69.682-.154-.315.843zM95.09 32.702l-.69.524.23.682-.92-.315-.919.367.153-.681-.766-.472.996-.158.46-.63.46.63zM88.297 21.96l-.367.842.315.92-.682-.154-.472.69-.105-.996-.63-.46.63-.46.105-.995.524.766zM85.334 18.819l-.315.995.367.843-.682-.076-.472.766-.157-.996-.63-.383.63-.537.052-.995.525.69zM83.14 14.86l-.307.92.613.843h-1.073l-.536.842-.307-.995-.995-.307.842-.613v-.996l.843.613zM80.087 11.748l-.224.682.672.525-1.045.052-.448.577-.448-.63-.97-.157.82-.472-.148-.681.895.367zM77.01 9.703l-.152.682.766.472-1.073.157-.383.63-.46-.63-.995-.105.69-.472-.23-.682.919.315zM72.977 6.792l-.077.682.843.472-.996.157-.383.63-.536-.577h-.996l.613-.577-.307-.682.996.262zM69.912 5.822v.682l.92.367-.996.262-.307.63-.612-.525h-.996l.613-.525-.383-.681.995.21zM65.298 3.881l.053.996.63.536-.63.383-.105.996-.472-.766-.734.153.367-.842-.315-.92.682.154zM61.312 2.91l.105.997.682.383-.63.536-.052.996-.524-.69-.682.23.315-.92-.368-.918.682.153zM57.886 1.94l.306.996.996.307-.843.536v1.072l-.842-.612-.996.306.383-.996-.613-.842.996.076zM53.928.97l.383.996.996.23-.843.613.077 1.072-.843-.613-.919.383.23-.919-.613-.766.996-.076zM11.748 18.895l.682.23.525-.69.052.996.577.537-.63.383-.157.996-.42-.766-.733.076.367-.843zM9.703 21.96l.682.153.524-.766.105.995.63.46-.63.46-.105.995-.472-.689-.682.153.315-.919zM6.792 25.023l.682.077.472-.843.157.996.63.383-.577.536v.996l-.577-.613-.63.23.263-.919zM5.822 29.058l.996-.077.536-.842.383.995.996.23-.843.613.077 1.073-.843-.613-.996.383.307-.996zM3.881 32.72l1.073-.107.46-.593.382.647.996.107-.69.486.077.7-.842-.323-.92.27.23-.701zM2.91 35.717l.997-.157.383-.63.536.63.996.053-.69.524.23.682-.92-.315-.842.367.077-.682zM1.94 40.038l.996-.23.307-.996.613.843h.995l-.612.842.306.92-.996-.307-.842.613.076-1.073zM.97 44.072l.63-.383.157-.996.42.766.734-.077-.367.92.262.919-.682-.306-.524.689-.053-.996zM.97 49l.593-.46.108-.995.54.689.7-.153-.324.919.324.92-.7-.23-.54.765-.108-.995zM.97 53.928l.577-.536.053-.996.524.613.682-.23-.262.92.367.919-.682-.154-.472.843-.157-.996zM1.94 57.962l.843-.612-.076-1.073.842.613.996-.306-.383.919.69.842H3.778l-.536.843-.307-.996zM2.91 61.312l.767-.472-.077-.682.843.368.92-.315-.23.682.689.524-.996.053-.46.629-.46-.63zM3.881 64.276l.69-.472-.23-.682.919.314.92-.367-.154.682.766.472-.996.105-.46.682-.459-.63zM5.822 68.314l.613-.577-.307-.63.996.21.843-.367-.077.682.843.42-.996.21-.383.63-.536-.578zM6.792 72.977l.367-.843-.262-.92.682.23.524-.612.053.996.577.536-.682.383-.158.996-.42-.843zM9.703 76.04l.367-.842-.315-.92.682.154.472-.69.105.996.63.46-.63.46-.105.995-.524-.766zM11.696 79.181l.315-.995-.367-.843.681.076.472-.766.105.996.682.383-.63.537-.052.995-.524-.69zM14.86 82.169l.307-.92-.613-.842h.996l.613-.843.307.996.995.307-.842.612v.996l-.843-.613zM18.895 85.281l.23-.682-.69-.524 1.073-.053.46-.576.383.629.996.157-.766.472.153.682-.92-.367zM21.96 87.327l.153-.682-.766-.525.995-.104.46-.63.46.63.995.104-.689.472.23.682-.92-.314zM25.023 90.238l.077-.682-.843-.472.996-.158.383-.629.536.577h.996l-.613.577.23.63-.919-.21zM90.238 72.977l-.682-.077-.42.843-.157-.996-.682-.383.577-.536.052-.996.525.613.682-.23-.263.919zM93.149 69.912l-1.073.077-.536.843-.307-.996-.995-.23.842-.613-.076-1.072.842.613.92-.383-.307.995zM94.119 65.28l-.996.107-.46.593-.46-.647-.995-.107.766-.486-.153-.7.919.323.92-.323-.23.754zM96.06 61.312l-.996.158-.383.629-.46-.63-1.072-.052.689-.524-.23-.682.996.315.843-.368-.154.682zM96.06 57.962l-.63.23-.262.996-.367-.843h-.682l.42-.842-.21-.92.629.307.577-.613v1.073zM96.06 53.928l-.63.383-.21.996-.42-.766-.681.077.367-.92-.262-.919.682.306.524-.689.052.996zM97.03 49l-.647.46-.108.995-.485-.689-.7.153.323-.919-.324-.92.7.154.486-.69.108.996zM97.03 45.042l-.92.536-.076.996-.766-.69-.996.307.46-.919-.613-.92 1.072.154.613-.843.23.996zM97.03 41.008l-.843.613v1.072l-.766-.613-.996.307.307-.92-.613-.842h.996l.612-.843.307.996zM96.06 36.688l-.767.472.154.682-.92-.368-.919.315.23-.682-.69-.524.996-.053.537-.629.383.63zM93.149 28.716l-.69.524.307.682-.92-.21-.842.367.076-.682-.842-.42.995-.209.307-.63.536.578zM90.238 25.994l-.368.842.21.92-.63-.23-.576.613v-.996l-.577-.536.63-.383.157-.996.472.842z"/>
            <g fill="#414042" fill-rule="nonzero">
                <path d="M18.228 74.056l-2.816-3.742.786-.59 2.161 2.822 1.31-.985-1.9-2.494.787-.591 1.899 2.495 1.375-.985-2.16-2.89.785-.59 2.816 3.742zM13.186 66.375l-.459-.92 4.454-5.252.523 1.05-1.113 1.248 1.31 2.692 1.637-.066.524.985-6.876.263zm2.75-3.086l-1.768 2.1 2.75-.13-.982-1.97zM10.96 61.057l-.721-2.692c-.197-.788-.131-1.445.13-1.904a1.994 1.994 0 0 1 1.18-.854c.982-.262 1.768.197 2.226.985l1.834-2.232.327 1.247-1.702 2.036.327 1.313 2.096-.591.262 1.05-5.96 1.642zm2.291-3.414c-.196-.788-.72-1.117-1.375-.985-.655.197-.851.722-.655 1.51l.393 1.575 2.03-.525-.393-1.575zM9.257 53.769l-.066-1.05 4.126-3.612-4.322.263-.066-1.116 6.287-.394.065.92-4.256 3.741 4.453-.262.065 1.116zM9.126 45.956l.065-1.116 6.221.525-.065 1.116zM9.388 42.476l.196-.985 4.977-2.363-4.257-.985.262-1.05 6.09 1.378-.196.92-5.108 2.429 4.388.984-.262 1.05zM14.168 36.173c-1.637-.722-2.423-2.56-1.637-4.333.458-.985.982-1.51 1.768-1.838l.459.985c-.59.262-.983.59-1.31 1.313-.459 1.05.065 2.298 1.179 2.757 1.178.525 2.423.131 2.946-1.05.262-.526.328-1.116.197-1.576l-1.048-.394-.655 1.444-.851-.394 1.113-2.429 2.423 1.116c.197.788.262 1.773-.196 2.824-.917 1.772-2.685 2.363-4.388 1.575zM20.782 25.997l-4.518-.526.851-.984 3.274.46-.982-3.152.786-.985 1.31 4.333 1.899 1.576-.72.853zM22.943 22.451c-1.113-1.378-1.047-3.414.459-4.596 1.506-1.247 3.47-.919 4.584.394 1.113 1.38.982 3.414-.458 4.596-1.507 1.248-3.471.985-4.585-.394zm4.192-3.414c-.786-.985-2.096-1.182-3.078-.394-.983.788-.983 2.101-.197 3.086.786.92 2.096 1.182 3.078.394.917-.853.917-2.167.197-3.086zM29.558 17.855l-1.638-3.217.983-.525 1.637 3.152c.524 1.05 1.375 1.313 2.227.853.85-.46 1.113-1.247.589-2.298l-1.637-3.217.982-.525 1.637 3.151c.852 1.642.393 3.02-1.113 3.743-1.44.853-2.816.46-3.667-1.117zM34.928 11.224l2.685-.788c.785-.197 1.44-.197 1.899.066.393.263.72.657.851 1.182.262.985-.13 1.773-.917 2.232l2.292 1.773-1.244.394-2.096-1.642-1.31.394.59 2.101-1.048.329-1.702-6.04zm3.536 2.233c.786-.197 1.113-.788.917-1.38-.197-.656-.786-.853-1.572-.656l-1.572.46.59 2.035 1.637-.46zM46.65 9.977l-1.965.065-.065-1.05 5.108-.197.065 1.05-1.964.066.196 5.253-1.113.065zM51.758 8.926l2.75.394c.786.132 1.376.46 1.703.854.262.394.393.853.327 1.444-.13 1.05-.85 1.576-1.768 1.707l1.375 2.626-1.31-.197-1.244-2.363-1.375-.197-.262 2.167-1.113-.132.917-6.303zm2.226 3.48c.786.131 1.31-.197 1.441-.853.066-.657-.327-1.117-1.113-1.248l-1.572-.197-.327 2.101 1.571.197zM57.783 13.588l1.178-3.414 1.048.328-1.179 3.348c-.392 1.117 0 1.904.917 2.233.917.328 1.703-.066 2.03-1.116l1.18-3.414 1.047.328-1.179 3.348c-.59 1.773-1.899 2.298-3.47 1.773-1.507-.46-2.162-1.641-1.572-3.414zM63.153 17.462l.982-.394c.262.722.655 1.313 1.31 1.707.59.328 1.113.262 1.375-.132.196-.394.13-.722-.786-1.51-.982-.919-1.44-1.641-.917-2.692.524-.919 1.703-1.116 2.75-.525.787.46 1.31 1.05 1.572 1.838l-.916.46c-.262-.656-.655-1.116-1.18-1.379-.589-.328-1.047-.197-1.243.132-.262.394-.066.722.85 1.575.983.92 1.376 1.707.852 2.627-.59 1.05-1.702 1.181-2.881.525-.852-.591-1.44-1.313-1.768-2.232zM72.19 18.052l-1.572-1.247.655-.788 3.995 3.217-.655.788-1.572-1.247-3.274 4.136-.852-.722zM74.22 25.734l1.048.066c-.066.788.065 1.444.59 2.1.392.526.916.657 1.309.395.327-.263.393-.591-.131-1.707-.524-1.248-.72-2.101.196-2.824.852-.656 1.965-.393 2.75.591.525.723.787 1.445.787 2.298l-1.048.066c0-.722-.197-1.313-.524-1.773-.393-.525-.917-.59-1.244-.328-.393.263-.393.657.13 1.773.525 1.247.59 2.1-.261 2.692-.917.722-2.03.393-2.882-.657-.524-.722-.786-1.641-.72-2.692zM82.406 28.032l.59.985-5.436 3.151-.59-.985zM84.174 31.052l.393.92-2.75 4.727 3.994-1.642.393.985-5.828 2.364-.328-.854 2.816-4.924-4.125 1.707-.393-.985zM83.781 38.996c1.768-.328 3.47.723 3.798 2.561.197 1.116-.065 1.904-.524 2.626l-.916-.525c.393-.59.589-1.182.458-1.904-.196-1.182-1.375-1.838-2.554-1.641-1.179.197-2.03 1.247-1.768 2.429.13.788.524 1.182 1.113 1.641l-.59.854c-.785-.526-1.374-1.116-1.57-2.298-.328-1.839.785-3.414 2.553-3.743zM88.103 45.956l.066 4.661h-.983l-.065-3.545h-1.637l.065 3.151h-.982l-.066-3.151H82.8l.065 3.611h-.982l-.066-4.727zM86.27 56.33l-.066-1.182.917-.066.196 1.773-.13.722-6.156-1.313.196-1.05zM82.21 61.976c-.263-.46-.328-.985-.132-1.642.459-1.247 1.507-1.838 2.62-1.444 1.179.394 1.703 1.641 1.244 2.954-.262.723-.655 1.182-1.244 1.445-.59.262-1.31.328-2.489-.066-1.899-.656-2.881-2.1-2.292-3.676.262-.854.786-1.314 1.376-1.642l.589.854c-.524.328-.851.656-1.048 1.181-.393.985.59 1.707 1.375 2.036zm1.31.394c.654.197 1.309-.066 1.57-.854.263-.722-.065-1.379-.654-1.576-.59-.197-1.244.066-1.506.854-.328.788 0 1.379.59 1.576zM78.87 63.683c.654-.197 1.375-.132 2.488.525 1.703.92 2.554 2.495 1.637 4.005-.393.722-.917 1.05-1.571 1.313l-.459-.92c.524-.196.851-.459 1.113-.918.524-.985-.262-1.839-.982-2.298.131.525.131 1.05-.196 1.641-.59 1.05-1.703 1.576-2.816.92-1.114-.592-1.376-1.905-.72-3.086.458-.657.916-.985 1.506-1.182zm-.197 3.348c.59.328 1.244.132 1.572-.59.393-.657.196-1.38-.328-1.642-.524-.328-1.244-.066-1.637.59-.393.657-.196 1.314.393 1.642zM77.298 68.673c.59.46.72 1.116.524 1.838.524-.263 1.113-.263 1.637.197.72.59.72 1.773-.066 2.757-.785.985-1.899 1.248-2.685.657-.523-.46-.654-.985-.523-1.576-.655.329-1.31.394-1.9-.065-.85-.723-.785-1.97.066-3.02.917-1.117 2.096-1.445 2.947-.788zm-2.292 2.954c.458.394 1.113.131 1.572-.394.458-.59.523-1.247.065-1.641-.393-.329-1.048-.197-1.572.46-.458.59-.458 1.247-.065 1.575zm2.292 1.576c.393.328.982.197 1.375-.328.393-.526.393-1.117 0-1.445-.393-.328-1.048-.197-1.44.263-.328.59-.328 1.182.065 1.51z"/>
            </g>
            <circle cx="49.485" cy="49.485" r="30.079" fill="#A7A9AC" fill-rule="nonzero" stroke="#939598" stroke-width=".6"/>
            <circle cx="49.485" cy="49.485" r="30.079" fill="url(#b)" fill-rule="nonzero" stroke="#FBB040" stroke-width=".6"/>
            <g transform="translate(20.376 20.376)">
                <mask id="d" fill="#fff">
                    <use xlink:href="#c"/>
                </mask>
                <use fill="url(#b)" fill-rule="nonzero" xlink:href="#c"/>
                <g mask="url(#d)">
                    <path fill="#000" fill-rule="nonzero" d="M43.184 6.983c-5.79 0-10.513 2.661-13.64 6.986V7.65H4.856L3.727 27.41l5.123 3.394c1.863-.799 4.192-1.464 6.72-1.464 4.192 0 7.12 1.996 7.12 5.456v.133c0 3.527-2.595 5.59-6.72 5.59-3.527 0-6.521-1.597-9.582-4.392l-5.323 6.388c3.925 3.726 8.583 5.988 15.037 5.988 6.255 0 11.046-2.528 13.508-6.787 3.127 4.192 7.785 6.787 13.507 6.787 10.713 0 17.9-9.116 17.9-20.76v-.133c0-11.644-7.187-20.627-17.833-20.627zm-25.95 14.705c-2.263 0-3.66.266-5.257.665l.466-6.92h16.102c-1.464 2.396-2.462 5.19-2.927 8.185-2.33-1.331-5.19-1.93-8.384-1.93zM51.9 27.876c0 7.253-3.393 12.709-8.716 12.709-5.323 0-8.85-5.456-8.85-12.776v-.2c0-7.318 3.46-12.642 8.717-12.642 5.256 0 8.85 5.523 8.85 12.776v.133z"/>
                    <path fill="url(#e)" fill-rule="nonzero" d="M42.12.2C36.33.2 31.605 2.86 28.478 7.186V.932H3.793L2.662 20.694l5.123 3.393c1.863-.798 4.192-1.464 6.72-1.464 4.192 0 7.12 1.996 7.12 5.456v.134c0 3.526-2.595 5.589-6.72 5.589-3.527 0-6.521-1.597-9.582-4.392L0 35.798c3.926 3.726 8.584 5.989 15.038 5.989 6.254 0 11.045-2.529 13.507-6.787 3.128 4.191 7.785 6.787 13.508 6.787 10.712 0 17.899-9.116 17.899-20.76v-.134C59.885 9.25 52.699.2 42.119.2zM16.168 14.905c-2.262 0-3.66.266-5.257.665l.4-6.92h16.102c-1.464 2.395-2.462 5.19-2.928 8.184-2.262-1.33-5.19-1.93-8.317-1.93zm34.667 6.188c0 7.253-3.394 12.709-8.717 12.709s-8.85-5.456-8.85-12.842v-.133c0-7.32 3.46-12.643 8.717-12.643 5.257 0 8.85 5.523 8.85 12.776v.133z" transform="translate(.665 6.317)"/>
                    <path stroke="url(#f)" stroke-width=".287" d="M42.12.2C36.33.2 31.605 2.86 28.478 7.186V.932H3.793L2.662 20.694l5.123 3.393c1.863-.798 4.192-1.464 6.72-1.464 4.192 0 7.12 1.996 7.12 5.456v.134c0 3.526-2.595 5.589-6.72 5.589-3.527 0-6.521-1.597-9.582-4.392L0 35.798c3.926 3.726 8.584 5.989 15.038 5.989 6.254 0 11.045-2.529 13.507-6.787 3.128 4.191 7.785 6.787 13.508 6.787 10.712 0 17.899-9.116 17.899-20.76v-.134C59.885 9.25 52.699.2 42.119.2zM16.168 14.905c-2.262 0-3.66.266-5.257.665l.4-6.92h16.102c-1.464 2.395-2.462 5.19-2.928 8.184-2.262-1.33-5.19-1.93-8.317-1.93zm34.667 6.188c0 7.253-3.394 12.709-8.717 12.709s-8.85-5.456-8.85-12.842v-.133c0-7.32 3.46-12.643 8.717-12.643 5.257 0 8.85 5.523 8.85 12.776v.133z" transform="translate(.665 6.317)"/>
                </g>
            </g>
            <g fill-rule="nonzero">
                <g fill="#000">
                    <path d="M56.57 47.35l-1.01-1.455h.695l.631.99.632-.99h.695l-1.01 1.455v.99h-.57v-.99zM58.53 45.895h2.021v.466h-1.453v.524h1.264v.465h-1.264v.524h1.453v.466h-2.022zM62.004 45.895h.569l1.137 2.445h-.632l-.252-.524h-1.138l-.252.524h-.569l1.137-2.445zm.632 1.397l-.379-.815-.38.815h.76zM64.09 45.895h1.2c.316 0 .568.116.758.233.126.116.253.35.253.582 0 .408-.253.64-.569.757l.632.873h-.695l-.569-.757h-.442v.757h-.569v-2.445zm1.137 1.164c.315 0 .442-.116.442-.349 0-.233-.19-.35-.442-.35h-.57v.7h.57zM66.617 47.99l.315-.407c.253.175.506.291.822.291.253 0 .379-.116.379-.232 0-.117-.063-.233-.506-.292-.505-.116-.884-.29-.884-.756s.379-.757.948-.757c.379 0 .695.116 1.01.29l-.315.408c-.253-.174-.443-.232-.695-.232-.253 0-.316.116-.316.232 0 .175.126.233.568.35.569.116.822.29.822.757 0 .465-.38.756-.948.756a2.1 2.1 0 0 1-1.2-.407z"/>
                </g>
                <g fill="#FFF">
                    <path d="M56.507 47.292l-1.01-1.455h.694l.632.99.632-.99h.695l-1.01 1.455v.99h-.57v-.99zM58.466 45.779h2.022v.465h-1.453v.524h1.263v.466h-1.263v.524h1.453v.466h-2.022zM61.878 45.779h.569l1.137 2.445h-.632l-.253-.524h-1.137l-.253.524h-.568l1.137-2.445zm.632 1.455l-.38-.815-.378.815h.758zM63.963 45.779h1.2c.316 0 .569.116.759.232.126.117.252.35.252.583 0 .407-.252.64-.568.756l.631.874h-.695l-.568-.757h-.442v.757h-.57v-2.445zm1.2 1.222c.316 0 .443-.116.443-.35 0-.232-.19-.348-.443-.348h-.568V47h.568zM66.553 47.874l.316-.407c.253.175.506.291.822.291.252 0 .379-.116.379-.233 0-.116-.063-.233-.506-.29-.505-.117-.884-.292-.884-.758s.379-.757.947-.757c.38 0 .695.117 1.011.291l-.379.466c-.252-.174-.442-.233-.695-.233-.252 0-.316.117-.316.233 0 .175.127.233.569.35.569.116.821.29.821.756s-.379.757-.947.757c-.443-.058-.822-.174-1.138-.466z"/>
                </g>
            </g>
            <g fill-rule="nonzero">
                <path fill="#FFF" d="M48.94 67.285l-12.82 24.7h7.232s5.062-10.375 5.654-11.58c.591 1.205 5.917 11.58 5.917 11.58h7.035l-13.018-24.7z"/>
                <path fill="#00583D" d="M36.711 91.584h6.378l5.851-12.049 6.18 12.05h6.18L48.94 68.087z"/>
                <path fill="#FFF" d="M64.259 82.547c-3.419 0-7.89.737-12.163 1.875.526-.335.986-.603 1.249-.737l.197-.134-.197-2.209-.394.067c-5.918.937-11.835 2.142-19.922 6.159l-.328.134 1.117 2.276.33-.201c4.93-2.477 9.138-3.816 12.885-4.753-1.052.736-2.104 1.607-2.695 2.075l-.197.201 1.117 2.209.329-.134c4.142-2.075 12.097-4.284 18.606-4.284h.329l.131-2.544h-.394z"/>
                <path fill="#E31837" d="M64.259 82.949c-4.405 0-10.125 1.138-14.727 2.61 1.183-.736 2.958-1.807 3.616-2.208l-.132-1.54c-5.851.937-11.834 2.209-19.79 6.091l.79 1.607c5.851-2.945 10.65-4.284 14.99-5.288-1.447.87-3.485 2.477-4.34 3.213l.855 1.606c4.537-2.276 12.492-4.284 18.738-4.35v-1.741z"/>
                <g fill="#000">
                    <path d="M62.55 91.651a.595.595 0 0 1-.592-.602c0-.335.263-.603.591-.603.33 0 .592.268.592.603.066.334-.197.602-.592.602zm0-1.138c-.264 0-.527.2-.527.536 0 .267.198.535.526.535.263 0 .526-.2.526-.535s-.197-.536-.526-.536zm.13.536l.132.267h-.131l-.132-.267h-.131v.267h-.132v-.67h.263c.132 0 .198.068.198.202.131.134.065.2-.066.2zm-.065-.268h-.197v.2h.197c.066 0 .132 0 .132-.066 0-.134-.066-.134-.132-.134z"/>
                </g>
                <path fill="#E31837" d="M64.193 82.882c-4.405 0-10.125 1.205-14.727 2.61 1.183-.736 2.959-1.807 3.616-2.208l-.131-1.54c-5.852.937-11.835 2.209-19.79 6.091l.789 1.607c5.851-2.945 10.65-4.284 14.99-5.288-1.446.87-3.485 2.477-4.34 3.213l.855 1.606c4.537-2.275 12.492-4.284 18.738-4.35v-1.741z"/>
                <g fill="#000">
                    <path d="M23.693 94.931h.263l1.052 2.544h-.394l-.263-.603h-1.183l-.263.603h-.395l1.183-2.544zm.592 1.607l-.46-1.205-.46 1.205h.92zM28.361 95.467c-.065-.067-.131-.134-.263-.201-.131-.067-.197-.067-.328-.067-.132 0-.263 0-.395.067-.131.067-.197.134-.263.2-.065.067-.131.201-.197.335s-.066.268-.066.402 0 .268.066.402c.066.133.132.2.197.334.066.067.198.134.263.201.132.067.263.067.395.067.131 0 .263 0 .394-.067a.518.518 0 0 0 .263-.268l.263.201-.131.134c-.066.067-.132.067-.198.134-.065.067-.197.067-.263.134-.131.067-.263.067-.394.067-.197 0-.394-.067-.526-.134-.131-.067-.329-.201-.394-.335-.132-.134-.198-.268-.263-.402-.066-.133-.066-.334-.066-.468 0-.2 0-.402.066-.536.065-.2.131-.334.263-.468.131-.134.263-.201.394-.268.132-.067.329-.134.526-.134s.329 0 .46.067c.132.067.263.134.395.268l-.198.335zM30.4 94.931h1.643v.335h-1.315v.736h1.184v.335h-1.184v.803h1.381v.335h-1.71zM37.829 95.467c-.066-.067-.132-.134-.263-.201-.132-.067-.197-.067-.329-.067-.131 0-.263 0-.394.067-.132.067-.198.134-.263.2-.066.067-.132.201-.198.335-.065.134-.065.268-.065.402s0 .268.065.402c.066.133.132.2.198.334.065.067.197.134.263.201.131.067.263.067.394.067.132 0 .263 0 .395-.067a.518.518 0 0 0 .263-.268l.263.201-.132.134c-.066.067-.131.067-.197.134s-.197.067-.263.134c-.132.067-.263.067-.395.067-.197 0-.394-.067-.526-.134-.131-.067-.328-.201-.394-.335-.131-.134-.197-.268-.263-.402-.066-.133-.066-.334-.066-.468 0-.2 0-.402.066-.536.066-.2.132-.334.263-.468s.263-.201.394-.268c.132-.067.33-.134.526-.134.198 0 .33 0 .46.067.132.067.264.134.395.268l-.197.335zM40.59 94.931h.329l1.052 2.544h-.395l-.263-.603H40.13l-.263.603h-.394l1.117-2.544zm.592 1.607l-.46-1.205-.46 1.205h.92zM43.615 96.94a.91.91 0 0 0 .263.2c.065.067.197.067.328.067h.198c.065 0 .131-.067.131-.067l.131-.134c0-.067.066-.134.066-.2 0-.068 0-.201-.066-.201-.065-.067-.131-.067-.197-.134-.065-.067-.197-.067-.328-.134-.132 0-.198-.067-.33-.134-.065-.067-.196-.134-.196-.2-.066-.068-.066-.202-.066-.403 0-.067 0-.133.066-.267 0-.067.065-.134.131-.201a.91.91 0 0 1 .263-.201c.132-.067.263-.067.395-.067.131 0 .262 0 .394.067.131.067.263.134.329.268l-.263.268c-.066-.067-.132-.134-.198-.134-.065-.067-.197-.067-.262-.067-.066 0-.198 0-.263.067-.066 0-.132.067-.132.067-.066.067-.066.067-.066.133v.134c0 .134 0 .201.066.268s.132.134.197.134c.066.067.198.067.329.067s.197.067.329.134c.065.067.197.134.197.2.066.068.066.201.066.335s0 .268-.066.335-.132.2-.197.268a.495.495 0 0 1-.263.134c-.132.067-.197.067-.329.067-.131 0-.329 0-.46-.067-.132-.067-.263-.134-.329-.268l.132-.335zM46.77 94.931h.33v1.071h1.314v-1.071h.329v2.544h-.329V96.27h-1.315v1.205h-.329zM52.885 94.931h1.643v.335h-1.315v.736h1.184v.335h-1.184v.803h1.381v.335h-1.71zM56.895 96.136l-.854-1.205h.46l.657 1.004.658-1.004h.46l-.855 1.205.92 1.339h-.46l-.723-1.138-.723 1.138h-.394zM59.854 94.931h.855c.131 0 .263 0 .394.067.132.067.197.134.263.2.066.068.131.135.131.202s.066.2.066.267 0 .134-.066.268c0 .067-.065.134-.131.2a.91.91 0 0 1-.263.202c-.131.067-.263.067-.394.067h-.526v1.138h-.33V94.93zm.394 1.138h.658c.066 0 .131 0 .197-.067.066 0 .066-.067.132-.134 0-.067.065-.134.065-.2 0-.068 0-.135-.065-.201 0-.067-.066-.067-.132-.134-.066 0-.131-.067-.197-.067h-.657v.803zM63.273 94.931h.854c.132 0 .263 0 .395.067a.91.91 0 0 1 .263.2c.066.068.131.135.131.202s.066.2.066.267 0 .134-.066.268c0 .067-.065.134-.131.2-.066.068-.132.135-.197.135-.066.067-.132.067-.263.067l.723 1.205h-.46l-.658-1.138h-.394v1.138h-.33V94.93h.067zm.328 1.138h.658c.066 0 .131 0 .197-.067.066 0 .066-.067.132-.134 0-.067.065-.134.065-.2 0-.068 0-.135-.065-.201 0-.067-.066-.067-.132-.134-.066 0-.131-.067-.197-.067h-.657v.803zM66.691 94.931h1.644v.335H67.02v.736h1.184v.335H67.02v.803h1.38v.335h-1.709zM70.176 96.94a.91.91 0 0 0 .263.2c.066.067.197.067.329.067h.197c.066 0 .131-.067.131-.067l.132-.134c0-.067.066-.134.066-.2 0-.068 0-.201-.066-.201-.066-.067-.132-.067-.197-.134-.066-.067-.198-.067-.329-.134-.132 0-.197-.067-.329-.134-.066-.067-.197-.134-.197-.2-.066-.068-.066-.202-.066-.403 0-.067 0-.133.066-.267 0-.067.066-.134.131-.201a.91.91 0 0 1 .263-.201c.132-.067.263-.067.395-.067.131 0 .263 0 .394.067.132.067.263.134.33.268l-.264.268c-.066-.067-.131-.134-.197-.134-.066-.067-.197-.067-.263-.067s-.197 0-.263.067c-.066 0-.132.067-.132.067-.065.067-.065.067-.065.133v.134c0 .134 0 .201.065.268.066.067.132.134.198.134.065.067.197.067.328.067.132 0 .198.067.33.134.065.067.196.134.196.2.066.068.066.201.066.335s0 .268-.066.335c-.065.067-.131.2-.197.268a.495.495 0 0 1-.263.134c-.131.067-.197.067-.329.067-.131 0-.328 0-.46-.067-.131-.067-.263-.134-.329-.268l.132-.335zM73.398 96.94c.065.066.131.133.263.2.065.067.197.067.328.067h.197c.066 0 .132-.067.132-.067l.131-.134c0-.067.066-.134.066-.2 0-.068 0-.201-.066-.201-.065-.067-.131-.067-.197-.134s-.197-.067-.328-.134c-.132 0-.198-.067-.33-.134-.065-.067-.196-.134-.196-.2-.066-.068-.066-.202-.066-.403 0-.067 0-.133.066-.267 0-.067.065-.134.131-.201a.91.91 0 0 1 .263-.201c.132-.067.263-.067.394-.067.132 0 .263 0 .395.067.131.067.263.134.329.268l-.263.268c-.066-.067-.132-.134-.198-.134-.065-.067-.197-.067-.263-.067-.065 0-.197 0-.262.067-.066 0-.132.067-.132.067-.066.067-.066.067-.066.133v.134c0 .134 0 .201.066.268s.132.134.197.134c.066.067.197.067.329.067.131 0 .197.067.329.134.065.067.197.134.197.2.066.068.066.201.066.335s0 .268-.066.335-.132.2-.197.268a.495.495 0 0 1-.263.134c-.132.067-.198.067-.329.067s-.329 0-.46-.067c-.132-.067-.263-.134-.329-.268l.132-.335z"/>
                </g>
                <g fill="#000">
                    <path d="M75.764 95.467a.595.595 0 0 1-.591-.603c0-.335.263-.602.591-.602.33 0 .592.267.592.602 0 .402-.263.603-.592.603zm0-1.005c-.263 0-.46.201-.46.469 0 .268.197.469.46.469s.46-.201.46-.469c.066-.268-.13-.469-.46-.469zm.132.469l.131.268h-.131l-.132-.268h-.131v.268H75.5v-.603h.263c.132 0 .198.067.198.201.065.067.065.134-.066.134zm-.066-.268H75.7v.201h.131c.066 0 .132 0 .132-.067s-.066-.134-.132-.134z"/>
                </g>
            </g>
        </g>
    </g>
</svg>
